Lato-Italic.ufo
<glyph name="exclam" format="2">
  <advance width="504.7"/>
  <unicode hex="0021"/>
  <guideline x="317.72"/>
  <guideline x="100.0" y="0.0" angle="82.9991"/>
  <outline>
    <contour>
      <point x="266.65999999999997" y="1432.4" type="line"/>
      <point x="196.66" y="859.32" type="line" smooth="yes"/>
      <point x="181.57999999999998" y="739.16"/>
      <point x="177.9" y="638.32"/>
      <point x="174.86" y="498.68" type="curve"/>
      <point x="291.3" y="498.68" type="line"/>
      <point x="322.86" y="638.32"/>
      <point x="344.74" y="739.16"/>
      <point x="359.66" y="859.32" type="curve"/>
      <point x="429.66" y="1432.4" type="line"/>
    </contour>
    <contour>
      <point x="74.53999999999999" y="109.56" type="curve" smooth="yes"/>
      <point x="74.53999999999999" y="39.0"/>
      <point x="128.46" y="-14.92"/>
      <point x="199.02" y="-14.92" type="curve" smooth="yes"/>
      <point x="268.5" y="-14.92"/>
      <point x="324.42" y="39.0"/>
      <point x="324.42" y="109.56" type="curve" smooth="yes"/>
      <point x="324.42" y="179.04000000000002"/>
      <point x="268.5" y="234.96"/>
      <point x="199.02" y="234.96" type="curve" smooth="yes"/>
      <point x="128.46" y="234.96"/>
      <point x="74.53999999999999" y="179.04000000000002"/>
    </contour>
  </outline>
</glyph>
<glyph name="numbersign" format="2">
  <advance width="1160"/>
  <unicode hex="0023"/>
  <outline>
    <contour>
      <point x="250.96" y="501" type="line"/>
      <point x="246.8" y="468.32" type="line"/>
      <point x="95.44" y="0" type="line" name="n02"/>
      <point x="172.4" y="0" type="line" smooth="yes"/>
      <point x="209.56" y="0"/>
      <point x="245.8" y="18.04"/>
      <point x="259.52" y="65.68" type="curve"/>
      <point x="388.68" y="468.32" type="line"/>
      <point x="392.84" y="501" type="line"/>
      <point x="533.72" y="935.72" type="line"/>
      <point x="536.96" y="968.56" type="line"/>
      <point x="687.08" y="1431.32" type="line" name="n11"/>
      <point x="608.88" y="1431.32" type="line" smooth="yes"/>
      <point x="570.8" y="1431.32"/>
      <point x="537.8" y="1408.96"/>
      <point x="525.16" y="1369.96" type="curve" smooth="yes"/>
      <point x="395.08" y="968.56" type="line"/>
      <point x="390.76" y="935.72" type="line"/>
    </contour>
    <contour>
      <point x="644.12" y="501" type="line"/>
      <point x="639.96" y="468.32" type="line"/>
      <point x="511.88" y="74.32" type="line"/>
      <point x="497.24" y="32.24"/>
      <point x="519.44" y="0"/>
      <point x="553.2" y="0" type="curve" smooth="yes"/>
      <point x="631.56" y="0" type="line"/>
      <point x="781.84" y="468.32" type="line"/>
      <point x="786" y="501" type="line"/>
      <point x="925.8" y="935.72" type="line"/>
      <point x="930.12" y="968.56" type="line"/>
      <point x="1060.2" y="1367.04" type="line" smooth="yes"/>
      <point x="1072.68" y="1404.8"/>
      <point x="1050.32" y="1431.32"/>
      <point x="1014.24" y="1431.32" type="curve" smooth="yes"/>
      <point x="937.28" y="1431.32" type="line"/>
      <point x="787.16" y="968.56" type="line"/>
      <point x="783.92" y="935.72" type="line"/>
    </contour>
    <contour>
      <point x="1006.76" y="424.36" type="line" name="n36"/>
      <point x="1022.8" y="478.96" type="line"/>
      <point x="1035.76" y="531.24"/>
      <point x="1020.04" y="550.36"/>
      <point x="983.96" y="550.36" type="curve" smooth="yes" name="n40"/>
      <point x="62" y="550.36" type="line"/>
      <point x="46.88" y="495.76" type="line" smooth="yes"/>
      <point x="33" y="444.56"/>
      <point x="48.72" y="424.36"/>
      <point x="84.8" y="424.36" type="curve" smooth="yes"/>
    </contour>
    <contour>
      <point x="140.52" y="882.04" type="line" name="n46"/>
      <point x="1050.6" y="882.04" type="line" smooth="yes"/>
      <point x="1099.64" y="882.04"/>
      <point x="1124" y="899"/>
      <point x="1133.72" y="936.16" type="curve"/>
      <point x="1156.24" y="1006.96" type="line"/>
      <point x="246.16" y="1006.96" type="line" smooth="yes" name="n52"/>
      <point x="196.04" y="1006.96"/>
      <point x="171.84" y="990"/>
      <point x="161.04" y="952.84" type="curve" smooth="yes"/>
    </contour>
  </outline>
  <guideline angle="82.9991" x="580" y="0"/>
</glyph>
<glyph name="dollar" format="2">
  <advance width="1160"/>
  <unicode hex="0024"/>
  <outline>
    <contour>
      <point x="1096.22" y="1288.8" type="line"/>
      <point x="1015.14" y="1381.56"/>
      <point x="899.54" y="1446.24"/>
      <point x="717.1" y="1446.24" type="curve" smooth="yes" name="n03"/>
      <point x="405.42" y="1446.24"/>
      <point x="213.02" y="1236"/>
      <point x="213.02" y="1007.92" type="curve" smooth="yes"/>
      <point x="213.02" y="579.52"/>
      <point x="860.86" y="739.04"/>
      <point x="860.86" y="432.32" type="curve" smooth="yes"/>
      <point x="860.86" y="257.08"/>
      <point x="728.22" y="128.2"/>
      <point x="498.98" y="128.2" type="curve" smooth="yes" name="n12"/>
      <point x="271.7" y="128.2"/>
      <point x="208.78" y="273.2"/>
      <point x="154.54" y="273.2" type="curve" smooth="yes"/>
      <point x="135.58" y="273.2"/>
      <point x="118.46" y="263.64"/>
      <point x="105.98" y="248.84" type="curve"/>
      <point x="44.74" y="171.4" type="line"/>
      <point x="139.7" y="57.4"/>
      <point x="291.7" y="-16"/>
      <point x="480.78" y="-16" type="curve" smooth="yes" name="n22"/>
      <point x="818.9" y="-16"/>
      <point x="1029.58" y="209.44"/>
      <point x="1029.58" y="474.12" type="curve" smooth="yes"/>
      <point x="1029.58" y="877.08"/>
      <point x="378.66" y="739.44"/>
      <point x="378.66" y="1046.48" type="curve" smooth="yes"/>
      <point x="378.66" y="1182.8"/>
      <point x="485.62" y="1300.96"/>
      <point x="715.1" y="1300.96" type="curve" smooth="yes" name="n31"/>
      <point x="888.34" y="1300.96"/>
      <point x="959.02" y="1196.88"/>
      <point x="1000.14" y="1196.88" type="curve" smooth="yes"/>
      <point x="1019.26" y="1196.88"/>
      <point x="1032.98" y="1205.36"/>
      <point x="1047.94" y="1225.56" type="curve" smooth="yes"/>
    </contour>
    <contour>
      <point x="370.9" y="-239.44" type="line" name="n38"/>
      <point x="434.9" y="-239.44" type="line" smooth="yes"/>
      <point x="462.34" y="-239.44"/>
      <point x="485.62" y="-217.24"/>
      <point x="488.86" y="-193.2" type="curve"/>
      <point x="836.7" y="1637.44" type="line" name="n43"/>
      <point x="772.7" y="1637.44" type="line" smooth="yes"/>
      <point x="745.26" y="1637.44"/>
      <point x="722.9" y="1615.24"/>
      <point x="718.74" y="1590.12" type="curve"/>
    </contour>
  </outline>
  <guideline angle="82.9991" x="580" y="0"/>
</glyph>
<glyph name="ampersand" format="2">
  <advance width="1314"/>
  <unicode hex="0026"/>
  <outline>
    <contour>
      <point x="477.34" y="824.12" type="line"/>
      <point x="248.7" y="755.04"/>
      <point x="55.3" y="574.28"/>
      <point x="55.3" y="334.56" type="curve" smooth="yes"/>
      <point x="55.3" y="117.44"/>
      <point x="205.9" y="-16" name="n05"/>
      <point x="425.3" y="-16" type="curve" smooth="yes"/>
      <point x="811.18" y="-16"/>
      <point x="1121.46" y="356.84"/>
      <point x="1171.5" y="733.24" type="curve"/>
      <point x="1052.42" y="733.24" type="line" smooth="yes"/>
      <point x="1027.22" y="733.24"/>
      <point x="1016.2" y="717.36"/>
      <point x="1011.5" y="693.7" type="curve" smooth="yes"/>
      <point x="960.56" y="424.98"/>
      <point x="739.34" y="122.8"/>
      <point x="461.7" y="122.8" type="curve" smooth="yes" name="n16"/>
      <point x="332.02" y="122.8"/>
      <point x="232.66" y="207.84"/>
      <point x="232.66" y="357.08" type="curve" smooth="yes"/>
      <point x="232.66" y="529.88"/>
      <point x="348.18" y="677.48"/>
      <point x="578.06" y="753.04" type="curve"/>
    </contour>
    <contour>
      <point x="721.74" y="1447.32" type="curve" smooth="yes" name="n23"/>
      <point x="480.54" y="1447.32"/>
      <point x="321.58" y="1272"/>
      <point x="321.58" y="1051.96" type="curve" smooth="yes"/>
      <point x="321.58" y="944.6"/>
      <point x="361.7" y="832.4"/>
      <point x="451.06" y="718.72" type="curve" smooth="yes"/>
      <point x="974.22" y="51.04" type="line" smooth="yes"/>
      <point x="1004.74" y="12.96"/>
      <point x="1025.86" y="0"/>
      <point x="1083.22" y="0" type="curve" smooth="yes" name="n33"/>
      <point x="1230.98" y="0" type="line"/>
      <point x="580.46" y="824.36" type="line"/>
      <point x="515.3" y="909.68"/>
      <point x="482.74" y="989.6"/>
      <point x="482.74" y="1065.36" type="curve" smooth="yes"/>
      <point x="482.74" y="1205.38"/>
      <point x="571.54" y="1313.92"/>
      <point x="706.62" y="1313.92" type="curve" smooth="yes" name="n41"/>
      <point x="815.98" y="1313.92"/>
      <point x="867.18" y="1229.48"/>
      <point x="879.06" y="1155.04" type="curve"/>
      <point x="886.62" y="1125.76"/>
      <point x="901.26" y="1118.52"/>
      <point x="931.02" y="1123.92" type="curve" smooth="yes"/>
      <point x="1032.36" y="1143.36" type="line"/>
      <point x="1034.52" y="1312.76"/>
      <point x="917.74" y="1447.32"/>
    </contour>
  </outline>
  <guideline angle="82.9991" x="627" y="0"/>
</glyph>
<glyph name="quotesingle" format="2">
  <advance width="388.64"/>
  <unicode hex="0027"/>
  <guideline x="213.2"/>
  <guideline x="100.0" y="0.0" angle="82.9991"/>
  <outline>
    <contour>
      <point x="220.1" y="1431.32" type="line"/>
      <point x="183.18" y="1141.64" type="line"/>
      <point x="180.14" y="986.4" type="line"/>
      <point x="183.38" y="945.68"/>
      <point x="197.26" y="922.24"/>
      <point x="231.34" y="922.24" type="curve"/>
      <point x="270.82" y="922.24"/>
      <point x="287.94" y="945.68"/>
      <point x="298.74" y="986.4" type="curve"/>
      <point x="332.78" y="1141.64" type="line"/>
      <point x="368.78" y="1431.32" type="line"/>
    </contour>
  </outline>
</glyph>
<glyph name="parenleft" format="2">
  <advance width="517"/>
  <unicode hex="0028"/>
  <outline>
    <contour>
      <point x="236.56" y="440.72" type="curve" smooth="yes"/>
      <point x="236.56" y="835.84"/>
      <point x="348.08" y="1127.16"/>
      <point x="543.64" y="1431.24" type="curve" smooth="yes"/>
      <point x="569.08" y="1470.56"/>
      <point x="555.2" y="1489.52"/>
      <point x="538.08" y="1502.32" type="curve"/>
      <point x="466.52" y="1548.28" type="line" name="n07"/>
      <point x="156" y="1116.4"/>
      <point x="85.12" y="799.32"/>
      <point x="85.12" y="425.16" type="curve" smooth="yes"/>
      <point x="85.12" y="203.12"/>
      <point x="131.12" y="-60.48"/>
      <point x="241.72" y="-290.76" type="curve" name="n13"/>
      <point x="323" y="-244.8" type="line"/>
      <point x="344.28" y="-232"/>
      <point x="362.32" y="-213.04"/>
      <point x="346.6" y="-173.72" type="curve" smooth="yes"/>
      <point x="273.6" y="5.44"/>
      <point x="236.56" y="244.64"/>
    </contour>
  </outline>
  <guideline angle="82.9991" x="276" y="0"/>
</glyph>
<glyph name="parenright" format="2">
  <advance width="516.18"/>
  <unicode hex="0029"/>
  <guideline x="276.0" y="0.0" angle="82.9991"/>
  <outline>
    <contour>
      <point x="285.76" y="816.8" type="curve"/>
      <point x="285.76" y="442.84000000000003"/>
      <point x="174.24" y="130.36"/>
      <point x="-21.32" y="-173.72" type="curve" smooth="yes"/>
      <point x="-46.760000000000005" y="-213.04"/>
      <point x="-33.8" y="-232.0"/>
      <point x="-15.76" y="-244.8" type="curve"/>
      <point x="54.720000000000006" y="-290.76" type="line"/>
      <point x="366.32" y="141.12"/>
      <point x="436.28" y="458.2"/>
      <point x="436.28" y="832.36" type="curve" smooth="yes"/>
      <point x="436.28" y="1055.48"/>
      <point x="390.28" y="1318.0"/>
      <point x="280.6" y="1548.28" type="curve"/>
      <point x="198.4" y="1502.32" type="line" smooth="yes"/>
      <point x="177.12" y="1489.52"/>
      <point x="160.0" y="1470.56"/>
      <point x="174.8" y="1431.24" type="curve" smooth="yes"/>
      <point x="246.72" y="1252.08"/>
      <point x="285.76" y="1012.88"/>
    </contour>
  </outline>
</glyph>
<glyph name="asterisk" format="2">
  <advance width="790"/>
  <unicode hex="002A"/>
  <outline>
    <contour>
      <point x="200.48" y="987.2" type="line"/>
      <point x="369.16" y="1087.92" type="line"/>
      <point x="400.44" y="1105.64"/>
      <point x="422.8" y="1122.76"/>
      <point x="441.72" y="1153.72" type="curve"/>
      <point x="427.84" y="1185.64" type="line"/>
      <point x="394.12" y="1186.28"/>
      <point x="366.52" y="1178.72"/>
      <point x="336.32" y="1161" type="curve" smooth="yes"/>
      <point x="167.64" y="1060.28" type="line"/>
    </contour>
    <contour>
      <point x="465.08" y="865.52" type="line" name="n10"/>
      <point x="489.84" y="1064.36" type="line" smooth="yes"/>
      <point x="494" y="1098.72"/>
      <point x="489.84" y="1125.4"/>
      <point x="475.8" y="1154.64" type="curve"/>
      <point x="441.72" y="1154.64" type="line"/>
      <point x="418.76" y="1127.4"/>
      <point x="409.2" y="1098.72"/>
      <point x="405.04" y="1063.28" type="curve" smooth="yes"/>
      <point x="380.28" y="865.52" type="line"/>
    </contour>
    <contour>
      <point x="726.52" y="1059.2" type="line"/>
      <point x="581.68" y="1161" type="line" smooth="yes"/>
      <point x="555.64" y="1179.8"/>
      <point x="528.96" y="1186.28"/>
      <point x="497.24" y="1185.64" type="curve"/>
      <point x="474.88" y="1153.72" type="line"/>
      <point x="485.48" y="1121.84"/>
      <point x="504.76" y="1105.64"/>
      <point x="531.72" y="1087.92" type="curve"/>
      <point x="676.72" y="987.2" type="line"/>
    </contour>
    <contour>
      <point x="459.08" y="1504.68" type="line" name="n30"/>
      <point x="434.32" y="1305.84" type="line" smooth="yes"/>
      <point x="430.16" y="1272.56"/>
      <point x="434.32" y="1244.96"/>
      <point x="448.2" y="1215.72" type="curve"/>
      <point x="483.36" y="1215.72" type="line"/>
      <point x="505.4" y="1243.88"/>
      <point x="514.96" y="1272.56"/>
      <point x="519.12" y="1306.92" type="curve" smooth="yes"/>
      <point x="543.88" y="1504.68" type="line"/>
    </contour>
    <contour>
      <point x="197.48" y="1311" type="line"/>
      <point x="342.48" y="1209.2" type="line" smooth="yes"/>
      <point x="368.52" y="1191.48"/>
      <point x="394.12" y="1183.92"/>
      <point x="427.84" y="1184.72" type="curve"/>
      <point x="448.2" y="1216.64" type="line"/>
      <point x="437.76" y="1246.52"/>
      <point x="419.4" y="1265.64"/>
      <point x="393.36" y="1282.28" type="curve"/>
      <point x="248.36" y="1384.08" type="line"/>
    </contour>
    <contour>
      <point x="724.6" y="1383" type="line"/>
      <point x="555.92" y="1282.28" type="line"/>
      <point x="524.64" y="1265.64"/>
      <point x="501.36" y="1246.52"/>
      <point x="483.36" y="1216.64" type="curve"/>
      <point x="497.24" y="1184.72" type="line"/>
      <point x="528.96" y="1182.08"/>
      <point x="556.56" y="1192.56"/>
      <point x="587.84" y="1209.2" type="curve"/>
      <point x="756.52" y="1309.92" type="line"/>
    </contour>
    <contour>
      <point x="423.84" y="1204.92" type="line"/>
      <point x="413.96" y="1157.88" type="line"/>
      <point x="450.36" y="1129.04" type="line"/>
      <point x="502.64" y="1156.8" type="line"/>
      <point x="510.04" y="1211.24" type="line"/>
      <point x="471.8" y="1229.6" type="line"/>
    </contour>
  </outline>
  <guideline angle="82.9991" x="368" y="0"/>
</glyph>
<glyph name="plus" format="2">
  <advance width="1160.0"/>
  <unicode hex="002B"/>
  <guideline x="580.0" y="0.0" angle="82.9991"/>
  <outline>
    <contour>
      <point x="101.53999999999999" y="606.0" type="line"/>
      <point x="1059.18" y="606.0" type="line"/>
      <point x="1075.22" y="736.16" type="line"/>
      <point x="117.58" y="736.16" type="line"/>
    </contour>
    <contour>
      <point x="578.06" y="1165.12" type="line"/>
      <point x="455.74" y="175.04" type="line"/>
      <point x="596.7" y="175.04" type="line"/>
      <point x="717.94" y="1165.12" type="line"/>
    </contour>
  </outline>
</glyph>
<glyph name="comma" format="2">
  <advance width="449.44"/>
  <unicode hex="002C"/>
  <guideline x="212.54" y="0.0" angle="82.9991"/>
  <outline>
    <contour>
      <point x="43.379999999999995" y="122.2" type="curve" smooth="yes"/>
      <point x="43.379999999999995" y="51.64"/>
      <point x="91.14" y="-0.4399999999999995"/>
      <point x="159.86" y="-0.4399999999999995" type="curve" smooth="yes"/>
      <point x="189.26" y="-0.4399999999999995"/>
      <point x="209.74" y="7.5600000000000005"/>
      <point x="224.98000000000002" y="20.32" type="curve"/>
      <point x="175.62" y="36.52" type="line"/>
      <point x="175.62" y="-97.8"/>
      <point x="52.18" y="-180.51999999999998"/>
      <point x="52.18" y="-214.12" type="curve"/>
      <point x="52.18" y="-224.76"/>
      <point x="55.42" y="-233.08"/>
      <point x="64.98" y="-241.56" type="curve" smooth="yes"/>
      <point x="95.98" y="-270.4" type="line"/>
      <point x="215.82" y="-170.32"/>
      <point x="285.26" y="-26.04"/>
      <point x="285.26" y="93.24000000000001" type="curve" smooth="yes"/>
      <point x="285.26" y="172.4"/>
      <point x="243.06" y="234.96"/>
      <point x="161.7" y="234.96" type="curve"/>
      <point x="91.14" y="234.96"/>
      <point x="43.379999999999995" y="184.44"/>
    </contour>
  </outline>
</glyph>
<glyph name="hyphen" format="2">
  <advance width="702.18"/>
  <unicode hex="002D"/>
  <unicode hex="00AD"/>
  <unicode hex="2010"/>
  <guideline x="320.46" y="0.0" angle="82.9991"/>
  <outline>
    <contour>
      <point x="111.88" y="526.16" type="line"/>
      <point x="568.64" y="526.16" type="line"/>
      <point x="586.84" y="671.44" type="line"/>
      <point x="129.92" y="671.44" type="line"/>
    </contour>
  </outline>
</glyph>
<glyph name="period" format="2">
  <advance width="468"/>
  <unicode hex="002E"/>
  <outline>
    <contour>
      <point x="51.64" y="109.56" type="curve" smooth="yes"/>
      <point x="51.64" y="39"/>
      <point x="105.56" y="-14.92"/>
      <point x="176.12" y="-14.92" type="curve" smooth="yes" name="n03"/>
      <point x="245.6" y="-14.92"/>
      <point x="301.52" y="39"/>
      <point x="301.52" y="109.56" type="curve" smooth="yes"/>
      <point x="301.52" y="179.04"/>
      <point x="245.6" y="234.96"/>
      <point x="176.12" y="234.96" type="curve" smooth="yes" name="n09"/>
      <point x="105.56" y="234.96"/>
      <point x="51.64" y="179.04"/>
    </contour>
  </outline>
  <guideline angle="82.9991" x="185" y="0"/>
</glyph>
<glyph name="slash" format="2">
  <advance width="836"/>
  <unicode hex="002F"/>
  <outline>
    <contour>
      <point x="874.12" y="1450.8" type="line" name="n00"/>
      <point x="801.48" y="1450.8" type="line" smooth="yes"/>
      <point x="759.08" y="1450.8"/>
      <point x="723.92" y="1427.36"/>
      <point x="703.72" y="1388.04" type="curve"/>
      <point x="-20.6" y="-90.96" type="line" name="n05"/>
      <point x="52.2" y="-90.96" type="line" smooth="yes"/>
      <point x="88.28" y="-90.96"/>
      <point x="131.76" y="-68.44"/>
      <point x="153.04" y="-24.96" type="curve" smooth="yes"/>
    </contour>
  </outline>
  <guideline angle="82.9991" x="315" y="0"/>
</glyph>
<glyph name="zero" format="2">
  <advance width="1160.0"/>
  <unicode hex="0030"/>
  <guideline x="614.42" y="0.0" angle="82.9991"/>
  <outline>
    <contour>
      <point x="1084.22" y="872.44" type="curve" smooth="yes"/>
      <point x="1084.22" y="1256.54"/>
      <point x="915.44" y="1447.86"/>
      <point x="681.62" y="1447.86" type="curve" smooth="yes"/>
      <point x="368.24" y="1447.86"/>
      <point x="101.32" y="1158.76"/>
      <point x="101.32" y="559.34" type="curve" smooth="yes"/>
      <point x="101.32" y="175.78"/>
      <point x="268.48" y="-15.08"/>
      <point x="502.3" y="-15.08" type="curve" smooth="yes"/>
      <point x="815.14" y="-15.08"/>
      <point x="1084.22" y="271.56"/>
    </contour>
    <contour>
      <point x="907.02" y="881.54" type="curve" smooth="yes"/>
      <point x="907.02" y="329.08"/>
      <point x="714.04" y="129.12"/>
      <point x="519.42" y="129.12" type="curve" smooth="yes"/>
      <point x="386.08000000000004" y="129.12"/>
      <point x="277.6" y="246.8"/>
      <point x="277.6" y="549.08" type="curve" smooth="yes"/>
      <point x="277.6" y="1100.08"/>
      <point x="468.72" y="1303.12"/>
      <point x="663.96" y="1303.12" type="curve" smooth="yes"/>
      <point x="797.84" y="1303.12"/>
      <point x="907.02" y="1184.52"/>
    </contour>
  </outline>
</glyph>
<glyph name="one" format="2">
  <advance width="1160.0"/>
  <unicode hex="0031"/>
  <guideline x="493.1" y="0.0" angle="82.9991"/>
  <outline>
    <contour>
      <point x="694.5" y="1435.54" type="line"/>
      <point x="663.9" y="1334.8"/>
      <point x="635.92" y="1221.26"/>
      <point x="623.8199999999999" y="1122.68" type="curve" smooth="yes"/>
      <point x="486.03999999999996" y="0.0" type="line"/>
      <point x="658.54" y="0.0" type="line"/>
      <point x="834.78" y="1435.54" type="line"/>
    </contour>
    <contour>
      <point x="204.36" y="0.0" type="line"/>
      <point x="915.02" y="0.0" type="line"/>
      <point x="931.52" y="130.7" type="line"/>
      <point x="220.86" y="130.7" type="line"/>
    </contour>
    <contour>
      <point x="255.56" y="1066.96" type="line"/>
      <point x="299.98" y="992.54" type="line"/>
      <point x="310.92" y="975.2"/>
      <point x="344.38" y="959.54"/>
      <point x="380.54" y="986.6" type="curve" smooth="yes"/>
      <point x="671.58" y="1237.12" type="line"/>
      <point x="694.5" y="1435.54" type="line"/>
    </contour>
  </outline>
</glyph>
<glyph name="two" format="2">
  <advance width="1160"/>
  <unicode hex="0032"/>
  <outline>
    <contour>
      <point x="696.86" y="1447.86" type="curve" smooth="yes" name="n00"/>
      <point x="469.18" y="1447.86"/>
      <point x="280.42" y="1306.78"/>
      <point x="213.54" y="1046.06" type="curve"/>
      <point x="302.3" y="1030.94" type="line" smooth="yes"/>
      <point x="348.18" y="1023.38"/>
      <point x="373.54" y="1037.1"/>
      <point x="394.36" y="1082.04" type="curve"/>
      <point x="434.94" y="1209.62"/>
      <point x="538.96" y="1300.96"/>
      <point x="669.02" y="1300.96" type="curve" smooth="yes" name="n10"/>
      <point x="786.38" y="1300.96"/>
      <point x="871.84" y="1229.48"/>
      <point x="871.84" y="1088.12" type="curve" smooth="yes"/>
      <point x="871.84" y="899.7"/>
      <point x="763.36" y="771.76"/>
      <point x="582.92" y="595.4" type="curve" smooth="yes"/>
      <point x="106.6" y="132" type="line"/>
      <point x="82.46" y="111.1"/>
      <point x="68.98" y="82.42"/>
      <point x="66.28" y="58.6" type="curve" smooth="yes"/>
      <point x="58.88" y="0" type="line"/>
      <point x="942.56" y="0" type="line" name="n22"/>
      <point x="955.36" y="103.26" type="line" smooth="yes"/>
      <point x="959.6" y="138.42"/>
      <point x="938.86" y="161.86"/>
      <point x="901.54" y="161.86" type="curve" smooth="yes" name="n26"/>
      <point x="472.9" y="161.86" type="line" smooth="yes"/>
      <point x="389.04" y="161.86"/>
      <point x="280" y="133.94"/>
      <point x="207.26" y="100.78" type="curve"/>
      <point x="203.6" y="34.68" type="line"/>
      <point x="709.86" y="530.64" type="line" smooth="yes"/>
      <point x="893.92" y="709.7"/>
      <point x="1049.74" y="859.24"/>
      <point x="1049.74" y="1103.62" type="curve" smooth="yes"/>
      <point x="1049.74" y="1318.92"/>
      <point x="903.68" y="1447.86"/>
    </contour>
  </outline>
  <guideline angle="82.9991" x="488" y="0"/>
</glyph>
<glyph name="three" format="2">
  <advance width="1160"/>
  <unicode hex="0033"/>
  <outline>
    <contour>
      <point x="699.72" y="1447.86" type="curve" smooth="yes" name="n00"/>
      <point x="472.5" y="1447.86"/>
      <point x="283.74" y="1306.78"/>
      <point x="216.86" y="1046.06" type="curve"/>
      <point x="304.62" y="1030.94" type="line" smooth="yes"/>
      <point x="351.5" y="1023.38"/>
      <point x="375.48" y="1037.1"/>
      <point x="396.76" y="1082.04" type="curve"/>
      <point x="437.34" y="1209.62"/>
      <point x="541.82" y="1300.96"/>
      <point x="672.34" y="1300.96" type="curve" smooth="yes" name="n10"/>
      <point x="789.7" y="1300.96"/>
      <point x="872.94" y="1231.78"/>
      <point x="872.94" y="1094.56" type="curve" smooth="yes"/>
      <point x="872.94" y="910.76"/>
      <point x="764.42" y="800.18"/>
      <point x="529.3" y="796.04" type="curve"/>
      <point x="514.34" y="672.04" type="line"/>
      <point x="748.8" y="671.12"/>
      <point x="819.62" y="579.46"/>
      <point x="819.62" y="456.12" type="curve" smooth="yes"/>
      <point x="819.62" y="296.42"/>
      <point x="706.28" y="130.36"/>
      <point x="510.8" y="130.36" type="curve" smooth="yes" name="n23"/>
      <point x="320.74" y="130.36"/>
      <point x="289.74" y="290.98"/>
      <point x="263.68" y="362.34" type="curve"/>
      <point x="252.04" y="398"/>
      <point x="211.58" y="404.26"/>
      <point x="170.32" y="387.68" type="curve" smooth="yes"/>
      <point x="92.42" y="356.52" type="line"/>
      <point x="128.1" y="146.92"/>
      <point x="216.7" y="-16"/>
      <point x="495.3" y="-16" type="curve" smooth="yes" name="n33"/>
      <point x="757.1" y="-16"/>
      <point x="991.58" y="168.34"/>
      <point x="991.58" y="457.58" type="curve" smooth="yes"/>
      <point x="991.58" y="646.7"/>
      <point x="864.92" y="765.44"/>
      <point x="612.04" y="775.3" type="curve"/>
      <point x="606.1" y="723.94" type="line"/>
      <point x="864.18" y="743.04"/>
      <point x="1044.36" y="852.16"/>
      <point x="1044.36" y="1127.34" type="curve" smooth="yes"/>
      <point x="1044.36" y="1320.68"/>
      <point x="908.08" y="1447.86"/>
    </contour>
  </outline>
  <guideline angle="82.9991" x="488" y="0"/>
</glyph>
<glyph name="four" format="2">
  <advance width="1160"/>
  <unicode hex="0034"/>
  <outline>
    <contour>
      <point x="969.1" y="1432.78" type="line" name="n00"/>
      <point x="808.3" y="1432.78" type="line"/>
      <point x="54.46" y="505.62" type="line"/>
      <point x="61.4" y="418.24" type="line" smooth="yes"/>
      <point x="63.48" y="395.5"/>
      <point x="81.14" y="379.08"/>
      <point x="106.56" y="379.08" type="curve" smooth="yes" name="n06"/>
      <point x="997.56" y="379.08" type="line" smooth="yes"/>
      <point x="1022.06" y="379.08"/>
      <point x="1037.4" y="395.5"/>
      <point x="1040.02" y="415.92" type="curve" smooth="yes"/>
      <point x="1051.82" y="514.64" type="line"/>
      <point x="99.24" y="514.64" type="line" name="n12"/>
      <point x="174.12" y="435.74" type="line"/>
      <point x="912.04" y="1361.8" type="line"/>
      <point x="849.12" y="1374.44" type="line"/>
      <point x="810.72" y="1285.86"/>
      <point x="788.44" y="1190.26"/>
      <point x="779.96" y="1118.42" type="curve" smooth="yes"/>
      <point x="642.8" y="0" type="line" name="n19"/>
      <point x="792.86" y="0" type="line"/>
    </contour>
  </outline>
  <guideline angle="82.9991" x="512" y="0"/>
</glyph>
<glyph name="five" format="2">
  <advance width="1160.0"/>
  <unicode hex="0035"/>
  <guideline x="482.6" y="0.0" angle="82.9991"/>
  <outline>
    <contour>
      <point x="1051.96" y="1431.86" type="line"/>
      <point x="423.36" y="1431.86" type="line"/>
      <point x="234.45999999999998" y="765.72" type="line"/>
      <point x="338.48" y="733.96" type="line"/>
      <point x="415.72" y="759.34"/>
      <point x="488.68" y="771.88"/>
      <point x="554.12" y="771.88" type="curve" smooth="yes"/>
      <point x="723.3199999999999" y="771.88"/>
      <point x="805.8" y="671.46"/>
      <point x="805.8" y="521.96" type="curve" smooth="yes"/>
      <point x="805.8" y="294.62"/>
      <point x="671.82" y="131.12"/>
      <point x="465.84000000000003" y="131.12" type="curve" smooth="yes"/>
      <point x="302.96" y="131.12"/>
      <point x="246.82" y="230.52"/>
      <point x="197.5" y="230.52" type="curve" smooth="yes"/>
      <point x="179.08" y="230.52"/>
      <point x="162.12" y="222.58"/>
      <point x="148.32" y="206.16000000000003" type="curve"/>
      <point x="86.78" y="132.82" type="line"/>
      <point x="160.28" y="54.900000000000006"/>
      <point x="281.24" y="-16.0"/>
      <point x="438.0" y="-16.0" type="curve" smooth="yes"/>
      <point x="732.28" y="-16.0"/>
      <point x="980.84" y="204.16"/>
      <point x="980.84" y="542.1" type="curve" smooth="yes"/>
      <point x="980.84" y="752.88"/>
      <point x="855.98" y="914.46"/>
      <point x="607.34" y="914.46" type="curve" smooth="yes"/>
      <point x="531.18" y="914.46"/>
      <point x="443.56" y="901.38"/>
      <point x="343.94" y="871.14" type="curve"/>
      <point x="380.74" y="763.88" type="line"/>
      <point x="566.24" y="1415.44" type="line"/>
      <point x="422.2" y="1273.78" type="line"/>
      <point x="931.28" y="1273.78" type="line" smooth="yes"/>
      <point x="1003.54" y="1273.78"/>
      <point x="1037.0" y="1308.94"/>
      <point x="1042.4" y="1357.6" type="curve"/>
    </contour>
  </outline>
</glyph>
<glyph name="six" format="2">
  <advance width="1067.0"/>
  <unicode hex="0036"/>
  <outline>
    <contour>
      <point x="284.2" y="391.02" type="curve"/>
      <point x="284.2" y="581.5"/>
      <point x="418.24" y="744.54"/>
      <point x="605.78" y="744.54" type="curve" smooth="yes"/>
      <point x="753.04" y="744.54"/>
      <point x="846.34" y="643.32"/>
      <point x="846.34" y="483.14" type="curve" smooth="yes"/>
      <point x="846.34" y="277.84000000000003"/>
      <point x="707.98" y="126.58000000000001"/>
      <point x="519.28" y="126.58000000000001" type="curve" smooth="yes"/>
      <point x="366.56" y="126.58000000000001"/>
      <point x="284.2" y="237.08"/>
    </contour>
    <contour>
      <point x="285.12" y="475.14" type="line"/>
      <point x="305.66" y="628.04"/>
      <point x="391.72" y="738.9"/>
      <point x="522.94" y="893.78" type="curve"/>
      <point x="980.72" y="1431.86" type="line"/>
      <point x="827.88" y="1431.86" type="line" smooth="yes"/>
      <point x="787.7" y="1431.86"/>
      <point x="750.84" y="1414.04"/>
      <point x="731.18" y="1390.22" type="curve"/>
      <point x="338.15999999999997" y="899.46" type="line" smooth="yes"/>
      <point x="189.57999999999998" y="714.12"/>
      <point x="120.25999999999999" y="565.94"/>
      <point x="120.25999999999999" y="398.42" type="curve" smooth="yes"/>
      <point x="120.25999999999999" y="148.46"/>
      <point x="264.52" y="-16.0"/>
      <point x="504.86" y="-16.0" type="curve" smooth="yes"/>
      <point x="798.72" y="-16.0"/>
      <point x="1020.54" y="212.1"/>
      <point x="1020.54" y="509.06" type="curve" smooth="yes"/>
      <point x="1020.54" y="739.98"/>
      <point x="870.62" y="875.78"/>
      <point x="678.6" y="875.78" type="curve" smooth="yes"/>
      <point x="450.08" y="875.78"/>
      <point x="275.64" y="694.72"/>
      <point x="248.8" y="472.38" type="curve"/>
    </contour>
  </outline>
</glyph>
<glyph name="seven" format="2">
  <advance width="1160"/>
  <unicode hex="0037"/>
  <outline>
    <contour>
      <point x="239" y="1431.86" type="line" name="n00"/>
      <point x="225.04" y="1316.02" type="line" smooth="yes"/>
      <point x="222.42" y="1293.44"/>
      <point x="239.46" y="1273.78"/>
      <point x="261.5" y="1273.78" type="curve" smooth="yes" name="n04"/>
      <point x="1084.22" y="1273.78" type="line"/>
      <point x="962.58" y="1292.2" type="line"/>
      <point x="929.58" y="1263.52"/>
      <point x="904.06" y="1231.6"/>
      <point x="877.46" y="1190.12" type="curve"/>
      <point x="182.86" y="0" type="line" name="n10"/>
      <point x="306.1" y="0" type="line" smooth="yes"/>
      <point x="355.52" y="0"/>
      <point x="386.74" y="26.68"/>
      <point x="407.4" y="60.6" type="curve"/>
      <point x="1095.68" y="1265.46" type="line" smooth="yes"/>
      <point x="1107.32" y="1285.12"/>
      <point x="1122.82" y="1312.18"/>
      <point x="1128.68" y="1355.6" type="curve" smooth="yes"/>
      <point x="1137.78" y="1431.86" type="line"/>
    </contour>
  </outline>
  <guideline angle="82.9991" x="475" y="0"/>
</glyph>
<glyph name="eight" format="2">
  <advance width="1160"/>
  <unicode hex="0038"/>
  <outline>
    <contour>
      <point x="503.38" y="-16" type="curve" smooth="yes" name="n00"/>
      <point x="790.54" y="-16"/>
      <point x="1003.74" y="161.28"/>
      <point x="1003.74" y="442.94" type="curve" smooth="yes"/>
      <point x="1003.74" y="649.8"/>
      <point x="863.44" y="764.94"/>
      <point x="614.7" y="772.56" type="curve"/>
      <point x="607.3" y="714.44" type="line"/>
      <point x="886.42" y="725.44"/>
      <point x="1040.66" y="884.5"/>
      <point x="1040.66" y="1114.86" type="curve" smooth="yes"/>
      <point x="1040.66" y="1300.68"/>
      <point x="903.82" y="1447.86"/>
      <point x="682.7" y="1447.86" type="curve" smooth="yes" name="n13"/>
      <point x="423.04" y="1447.86"/>
      <point x="232.18" y="1263.3"/>
      <point x="232.18" y="1026.54" type="curve" smooth="yes"/>
      <point x="232.18" y="847.5"/>
      <point x="349.9" y="723.44"/>
      <point x="578.3" y="714.44" type="curve"/>
      <point x="584.7" y="772.56" type="line"/>
      <point x="278.2" y="763.4"/>
      <point x="102.58" y="612.38"/>
      <point x="102.58" y="340.7" type="curve" smooth="yes"/>
      <point x="102.58" y="124.04"/>
      <point x="259.54" y="-16"/>
    </contour>
    <contour>
      <point x="604.02" y="811.28" type="curve" smooth="yes"/>
      <point x="457.18" y="811.28"/>
      <point x="399.82" y="915.26"/>
      <point x="399.82" y="1025.84" type="curve" smooth="yes"/>
      <point x="399.82" y="1185.16"/>
      <point x="493.66" y="1315.54"/>
      <point x="666.66" y="1315.54" type="curve" smooth="yes" name="n32"/>
      <point x="804.36" y="1315.54"/>
      <point x="871.94" y="1220.62"/>
      <point x="871.94" y="1104.68" type="curve" smooth="yes"/>
      <point x="871.94" y="947"/>
      <point x="783.06" y="811.28"/>
    </contour>
    <contour>
      <point x="519.42" y="120.1" type="curve" smooth="yes" name="n38"/>
      <point x="367.26" y="120.1"/>
      <point x="281.02" y="217.18"/>
      <point x="281.02" y="353.88" type="curve" smooth="yes"/>
      <point x="281.02" y="591.78"/>
      <point x="438.32" y="674.1"/>
      <point x="587.44" y="674.1" type="curve" smooth="yes"/>
      <point x="713.56" y="674.1"/>
      <point x="826.92" y="608.94"/>
      <point x="826.92" y="444.1" type="curve" smooth="yes"/>
      <point x="826.92" y="251.34"/>
      <point x="708.04" y="120.1"/>
    </contour>
  </outline>
  <guideline angle="82.9991" x="488" y="0"/>
</glyph>
<glyph name="nine" format="2">
  <advance width="1160"/>
  <unicode hex="0039"/>
  <outline>
    <contour>
      <point x="888.5" y="1051.76" type="curve" smooth="yes"/>
      <point x="888.5" y="878.22"/>
      <point x="768.56" y="721.48"/>
      <point x="580.52" y="721.48" type="curve" smooth="yes" name="n03"/>
      <point x="440.26" y="721.48"/>
      <point x="357.98" y="812.84"/>
      <point x="357.98" y="962.94" type="curve" smooth="yes"/>
      <point x="357.98" y="1165"/>
      <point x="486.28" y="1305.28"/>
      <point x="662.1" y="1305.28" type="curve" smooth="yes" name="n09"/>
      <point x="798.28" y="1305.28"/>
      <point x="888.5" y="1204.56"/>
    </contour>
    <contour>
      <point x="895.12" y="980.02" type="line"/>
      <point x="872.82" y="819.7"/>
      <point x="799.44" y="719.44"/>
      <point x="679.74" y="572.78" type="curve"/>
      <point x="207.2" y="0" type="line" name="n16"/>
      <point x="365.44" y="0" type="line" smooth="yes"/>
      <point x="404.54" y="0"/>
      <point x="439.86" y="16.74"/>
      <point x="458.9" y="40.02" type="curve"/>
      <point x="839.84" y="548.2" type="line"/>
      <point x="974.2" y="724.54"/>
      <point x="1052.44" y="856.4"/>
      <point x="1052.44" y="1051.7" type="curve" smooth="yes"/>
      <point x="1052.44" y="1284.2"/>
      <point x="912.8" y="1447.86"/>
      <point x="681.38" y="1447.86" type="curve" smooth="yes" name="n27"/>
      <point x="401.2" y="1447.86"/>
      <point x="183.32" y="1225"/>
      <point x="183.32" y="942.88" type="curve" smooth="yes"/>
      <point x="183.32" y="721.04"/>
      <point x="328.08" y="589.7"/>
      <point x="506.16" y="589.7" type="curve" smooth="yes" name="n33"/>
      <point x="710.02" y="589.7"/>
      <point x="899.36" y="738.52"/>
      <point x="928.98" y="980.02" type="curve"/>
    </contour>
  </outline>
  <guideline angle="82.9991" x="478" y="0"/>
</glyph>
<glyph name="less" format="2">
  <advance width="1160.0"/>
  <unicode hex="003C"/>
  <guideline x="533.0" y="0.0" angle="82.9991"/>
  <outline>
    <contour>
      <point x="176.1" y="709.48" type="line"/>
      <point x="169.24" y="654.12" type="line"/>
      <point x="289.82" y="655.04"/>
      <point x="387.34000000000003" y="667.66"/>
      <point x="463.26" y="704.04" type="curve" smooth="yes"/>
      <point x="940.52" y="932.3" type="line" smooth="yes"/>
      <point x="967.94" y="945.24"/>
      <point x="980.42" y="962.66"/>
      <point x="983.04" y="984.08" type="curve" smooth="yes"/>
      <point x="998.08" y="1110.64" type="line"/>
    </contour>
    <contour>
      <point x="167.07999999999998" y="635.92" type="line"/>
      <point x="890.5" y="234.76" type="line"/>
      <point x="906.54" y="361.32" type="line"/>
      <point x="909.16" y="382.74"/>
      <point x="900.92" y="400.16"/>
      <point x="877.12" y="413.1" type="curve"/>
      <point x="455.56" y="641.36" type="line"/>
      <point x="388.58000000000004" y="678.2"/>
      <point x="293.6" y="690.36"/>
      <point x="173.48" y="691.28" type="curve"/>
    </contour>
  </outline>
</glyph>
<glyph name="equal" format="2">
  <advance width="1160.0"/>
  <unicode hex="003D"/>
  <guideline x="580.0" y="0.0" angle="82.9991"/>
  <outline>
    <contour>
      <point x="128.2" y="442.24" type="line"/>
      <point x="985.44" y="442.24" type="line"/>
      <point x="1001.48" y="572.4" type="line"/>
      <point x="144.24" y="572.4" type="line"/>
    </contour>
    <contour>
      <point x="169.6" y="775.12" type="line"/>
      <point x="1026.84" y="775.12" type="line"/>
      <point x="1041.8" y="905.28" type="line"/>
      <point x="185.64" y="905.28" type="line"/>
    </contour>
  </outline>
</glyph>
<glyph name="greater" format="2">
  <advance width="1160"/>
  <unicode hex="003E"/>
  <outline>
    <contour>
      <point x="998.9" y="635.92" type="line"/>
      <point x="1005.3" y="691.28" type="line"/>
      <point x="885.18" y="690.36"/>
      <point x="787.12" y="677.74"/>
      <point x="710.74" y="641.36" type="curve" smooth="yes"/>
      <point x="234.02" y="413.1" type="line" smooth="yes"/>
      <point x="206.06" y="400.16"/>
      <point x="194.58" y="382.74"/>
      <point x="191.96" y="361.32" type="curve" smooth="yes"/>
      <point x="175.92" y="234.76" type="line" name="n09"/>
    </contour>
    <contour>
      <point x="1007.92" y="709.48" type="line"/>
      <point x="283.5" y="1110.64" type="line" name="n11"/>
      <point x="268.46" y="984.08" type="line" smooth="yes"/>
      <point x="265.84" y="962.66"/>
      <point x="273.08" y="945.24"/>
      <point x="297.42" y="932.3" type="curve" smooth="yes"/>
      <point x="718.44" y="704.04" type="line" smooth="yes"/>
      <point x="785.88" y="667.2"/>
      <point x="881.4" y="655.04"/>
      <point x="1001.06" y="654.12" type="curve"/>
    </contour>
  </outline>
  <guideline angle="82.9991" x="533" y="0"/>
</glyph>
<glyph name="question" format="2">
  <advance width="837.0"/>
  <unicode hex="003F"/>
  <guideline x="368.6" y="0.0" angle="82.9991"/>
  <outline>
    <contour>
      <point x="157.64" y="1303.3" type="curve"/>
      <point x="194.5" y="1232.5" type="line"/>
      <point x="203.44" y="1216.08"/>
      <point x="211.3" y="1210.14"/>
      <point x="227.96" y="1210.14" type="curve"/>
      <point x="262.62" y="1210.14"/>
      <point x="327.02" y="1306.36"/>
      <point x="477.4" y="1306.36" type="curve" smooth="yes"/>
      <point x="583.8" y="1306.36"/>
      <point x="652.6" y="1242.12"/>
      <point x="652.6" y="1138.24" type="curve"/>
      <point x="652.6" y="894.0"/>
      <point x="320.8" y="855.96"/>
      <point x="311.6" y="665.12" type="curve" smooth="yes"/>
      <point x="301.48" y="498.68" type="line"/>
      <point x="420.08000000000004" y="498.68" type="line"/>
      <point x="456.72" y="653.4" type="line" smooth="yes"/>
      <point x="500.08000000000004" y="825.22"/>
      <point x="812.6800000000001" y="835.08"/>
      <point x="812.6800000000001" y="1170.48" type="curve" smooth="yes"/>
      <point x="812.6800000000001" y="1328.64"/>
      <point x="696.08" y="1447.32"/>
      <point x="508.56" y="1447.32" type="curve" smooth="yes"/>
      <point x="359.12" y="1447.32"/>
      <point x="245.08" y="1379.94"/>
    </contour>
    <contour>
      <point x="212.84" y="109.56" type="curve" smooth="yes"/>
      <point x="212.84" y="39.0"/>
      <point x="266.76" y="-14.92"/>
      <point x="337.32" y="-14.92" type="curve" smooth="yes"/>
      <point x="406.8" y="-14.92"/>
      <point x="462.72" y="39.0"/>
      <point x="462.72" y="109.56" type="curve" smooth="yes"/>
      <point x="462.72" y="179.04000000000002"/>
      <point x="406.8" y="234.96"/>
      <point x="337.32" y="234.96" type="curve" smooth="yes"/>
      <point x="266.76" y="234.96"/>
      <point x="212.84" y="179.04000000000002"/>
    </contour>
  </outline>
</glyph>
<glyph name="at" format="2">
  <advance width="1536.66"/>
  <unicode hex="0040"/>
  <guideline y="716.74"/>
  <guideline x="748.52"/>
  <guideline x="100.0" y="0.0" angle="82.9991"/>
  <outline>
    <contour>
      <point x="1036.92" y="185.68" type="curve" smooth="yes"/>
      <point x="1268.56" y="185.68"/>
      <point x="1467.04" y="435.6"/>
      <point x="1467.04" y="774.04" type="curve" smooth="yes"/>
      <point x="1467.04" y="1141.28"/>
      <point x="1209.32" y="1356.76"/>
      <point x="897.72" y="1356.76" type="curve" smooth="yes"/>
      <point x="464.08" y="1356.76"/>
      <point x="88.08" y="957.12"/>
      <point x="88.08" y="450.24" type="curve" smooth="yes"/>
      <point x="88.08" y="22.68"/>
      <point x="353.32" y="-239.24"/>
      <point x="741.12" y="-239.24" type="curve" smooth="yes"/>
      <point x="952.56" y="-239.24"/>
      <point x="1126.88" y="-179.68"/>
      <point x="1269.16" y="-85.24" type="curve"/>
      <point x="1256.36" y="-34.36" type="line"/>
      <point x="1248.96" y="-10.0"/>
      <point x="1228.92" y="10.200000000000003"/>
      <point x="1185.28" y="-14.159999999999997" type="curve"/>
      <point x="1087.12" y="-76.36"/>
      <point x="940.56" y="-124.36"/>
      <point x="753.92" y="-124.36" type="curve" smooth="yes"/>
      <point x="439.2" y="-124.36"/>
      <point x="214.84" y="80.96000000000001"/>
      <point x="214.84" y="457.48" type="curve" smooth="yes"/>
      <point x="214.84" y="914.08"/>
      <point x="523.88" y="1243.88"/>
      <point x="883.84" y="1243.88" type="curve" smooth="yes"/>
      <point x="1153.96" y="1243.88"/>
      <point x="1343.52" y="1082.68"/>
      <point x="1343.52" y="774.04" type="curve" smooth="yes"/>
      <point x="1343.52" y="492.68"/>
      <point x="1211.52" y="295.32"/>
      <point x="1074.4" y="295.32" type="curve" smooth="yes"/>
      <point x="999.6800000000001" y="295.32"/>
      <point x="948.08" y="337.0"/>
      <point x="1019.84" y="543.4" type="curve"/>
      <point x="1151.4" y="903.16" type="line"/>
      <point x="1098.12" y="929.64"/>
      <point x="1039.96" y="942.88"/>
      <point x="956.48" y="942.88" type="curve" smooth="yes"/>
      <point x="620.96" y="942.88"/>
      <point x="423.6" y="654.08"/>
      <point x="423.6" y="412.68" type="curve" smooth="yes"/>
      <point x="423.6" y="286.32"/>
      <point x="483.32" y="188.44"/>
      <point x="611.52" y="188.44" type="curve" smooth="yes"/>
      <point x="743.24" y="188.44"/>
      <point x="861.4" y="269.2"/>
      <point x="970.24" y="476.48" type="curve"/>
      <point x="888.52" y="430.88" type="line"/>
      <point x="857.48" y="265.92"/>
      <point x="919.28" y="185.68"/>
    </contour>
    <contour>
      <point x="1008.6" y="867.52" type="line"/>
      <point x="885.36" y="527.96" type="line" smooth="yes"/>
      <point x="822.68" y="349.12"/>
      <point x="733.56" y="302.4"/>
      <point x="660.56" y="302.4" type="curve" smooth="yes"/>
      <point x="592.96" y="302.4"/>
      <point x="559.92" y="355.4"/>
      <point x="559.92" y="431.8" type="curve" smooth="yes"/>
      <point x="559.92" y="625.88"/>
      <point x="721.52" y="833.24"/>
      <point x="916.68" y="833.24" type="curve" smooth="yes"/>
      <point x="969.28" y="833.24"/>
      <point x="1010.08" y="823.08"/>
      <point x="1048.84" y="803.68" type="curve"/>
    </contour>
  </outline>
</glyph>
<glyph name="A" format="2">
  <advance width="1262.24"/>
  <unicode hex="0041"/>
  <guideline x="618.38" y="0.0" angle="82.9991"/>
  <anchor x="746.06" y="1511.66" name="Top"/>
  <anchor x="252.32" y="1120.0" name="onRight"/>
  <anchor x="550.82" y="-70.0" name="bottom"/>
  <anchor x="746.06" y="1511.66" name="top"/>
  <outline>
    <contour>
      <point x="-64.94" y="0.0" type="line"/>
      <point x="80.66000000000001" y="0.0" type="line" smooth="yes"/>
      <point x="111.50000000000001" y="0.0"/>
      <point x="138.02" y="21.28"/>
      <point x="149.58" y="44.56" type="curve"/>
      <point x="654.82" y="1124.04" type="line" smooth="yes"/>
      <point x="686.26" y="1196.6399999999999"/>
      <point x="738.38" y="1316.16"/>
      <point x="763.5" y="1432.4" type="curve"/>
      <point x="637.5" y="1432.4" type="line"/>
    </contour>
    <contour>
      <point x="212.66" y="395.91999999999996" type="line"/>
      <point x="1004.46" y="395.91999999999996" type="line"/>
      <point x="1021.42" y="530.4" type="line"/>
      <point x="229.78" y="530.4" type="line"/>
    </contour>
    <contour>
      <point x="827.06" y="1432.4" type="line"/>
      <point x="697.82" y="1432.4" type="line"/>
      <point x="697.66" y="1316.16"/>
      <point x="722.02" y="1196.6399999999999"/>
      <point x="735.58" y="1125.12" type="curve" smooth="yes"/>
      <point x="975.14" y="44.56" type="line"/>
      <point x="982.54" y="18.04"/>
      <point x="1000.58" y="0.0"/>
      <point x="1033.58" y="0.0" type="curve" smooth="yes"/>
      <point x="1177.94" y="0.0" type="line"/>
    </contour>
  </outline>
</glyph>
<glyph name="B" format="2">
  <advance width="1204.46"/>
  <unicode hex="0042"/>
  <guideline x="552.48" y="0.0" angle="82.9991"/>
  <anchor x="511.62" y="-70.0" name="bottom"/>
  <anchor x="662.26" y="1511.66" name="Top"/>
  <anchor x="241.88" y="399.28" name="Bar"/>
  <anchor x="662.26" y="1511.66" name="top"/>
  <outline>
    <contour>
      <point x="569.26" y="0.0" type="line" smooth="yes"/>
      <point x="892.74" y="0.0"/>
      <point x="1088.18" y="185.64"/>
      <point x="1088.18" y="449.96" type="curve" smooth="yes"/>
      <point x="1088.18" y="644.28"/>
      <point x="939.54" y="752.72"/>
      <point x="651.38" y="752.72" type="curve"/>
      <point x="608.9" y="705.52" type="line"/>
      <point x="954.38" y="705.52"/>
      <point x="1125.14" y="888.6"/>
      <point x="1125.14" y="1112.64" type="curve" smooth="yes"/>
      <point x="1125.14" y="1309.28"/>
      <point x="996.5" y="1432.4"/>
      <point x="698.82" y="1432.4" type="curve" smooth="yes"/>
      <point x="274.26" y="1432.4" type="line"/>
      <point x="97.94" y="0.0" type="line"/>
      <point x="285.02" y="0.0" type="line"/>
      <point x="443.14" y="1286.04" type="line"/>
      <point x="681.7" y="1286.04" type="line" smooth="yes"/>
      <point x="853.98" y="1286.04"/>
      <point x="935.74" y="1217.68"/>
      <point x="935.74" y="1080.56" type="curve" smooth="yes"/>
      <point x="935.74" y="907.48"/>
      <point x="827.94" y="786.96"/>
      <point x="612.94" y="786.96" type="curve"/>
      <point x="362.86" y="786.96" type="line"/>
      <point x="346.82" y="655.72" type="line"/>
      <point x="646.46" y="655.72" type="line" smooth="yes"/>
      <point x="818.94" y="655.72"/>
      <point x="903.26" y="574.12"/>
      <point x="903.26" y="446.88" type="curve" smooth="yes"/>
      <point x="903.26" y="262.92"/>
      <point x="796.66" y="147.44"/>
      <point x="584.22" y="147.44" type="curve" smooth="yes"/>
      <point x="277.02" y="147.44" type="line"/>
      <point x="172.74" y="0.0" type="line"/>
    </contour>
  </outline>
</glyph>
<glyph name="C" format="2">
  <advance width="1248.72"/>
  <unicode hex="0043"/>
  <guideline x="616.76" y="0.0" angle="82.9991"/>
  <anchor x="865.16" y="1511.66" name="Top"/>
  <anchor x="680.12" y="715.12" name="Slash"/>
  <anchor x="865.16" y="1511.66" name="top"/>
  <anchor x="606.1" y="-70.0" name="bottom"/>
  <outline>
    <contour>
      <point x="676.9" y="144.4" type="curve" smooth="yes"/>
      <point x="450.94" y="144.4"/>
      <point x="289.06" y="325.04"/>
      <point x="289.06" y="621.32" type="curve" smooth="yes"/>
      <point x="289.06" y="1028.92"/>
      <point x="529.5" y="1286.92"/>
      <point x="839.9" y="1286.92" type="curve" smooth="yes"/>
      <point x="1071.3" y="1286.92"/>
      <point x="1115.98" y="1159.92"/>
      <point x="1162.82" y="1159.92" type="curve" smooth="yes"/>
      <point x="1183.02" y="1159.92"/>
      <point x="1195.66" y="1169.64"/>
      <point x="1206.14" y="1182.28" type="curve"/>
      <point x="1269.54" y="1259.56" type="line"/>
      <point x="1174.34" y="1376.04"/>
      <point x="1052.74" y="1448.4"/>
      <point x="849.46" y="1448.4" type="curve" smooth="yes"/>
      <point x="428.34" y="1448.4"/>
      <point x="97.66" y="1103.6"/>
      <point x="97.66" y="606.2" type="curve" smooth="yes"/>
      <point x="97.66" y="241.6"/>
      <point x="303.5" y="-16.0"/>
      <point x="645.74" y="-16.0" type="curve" smooth="yes"/>
      <point x="862.06" y="-16.0"/>
      <point x="1024.26" y="64.0"/>
      <point x="1148.42" y="198.52" type="curve"/>
      <point x="1082.72" y="279.88" type="line"/>
      <point x="1078.48" y="285.2"/>
      <point x="1070.0" y="291.06"/>
      <point x="1058.2" y="291.06" type="curve"/>
      <point x="1013.44" y="291.06"/>
      <point x="943.06" y="144.4"/>
    </contour>
  </outline>
</glyph>
<glyph name="D" format="2">
  <advance width="1414.78"/>
  <unicode hex="0044"/>
  <guideline x="692.58" y="0.0" angle="82.9991"/>
  <anchor x="745.2" y="1511.66" name="Top"/>
  <anchor x="551.82" y="-87.82" name="bottom"/>
  <anchor x="745.2" y="1511.66" name="top"/>
  <outline>
    <contour>
      <point x="1341.74" y="817.4" type="curve" smooth="yes"/>
      <point x="1341.74" y="1181.24"/>
      <point x="1121.38" y="1432.4"/>
      <point x="768.82" y="1432.4" type="curve" smooth="yes"/>
      <point x="274.26" y="1432.4" type="line"/>
      <point x="97.94" y="0.0" type="line"/>
      <point x="592.5" y="0.0" type="line" smooth="yes"/>
      <point x="1024.14" y="0.0"/>
      <point x="1341.74" y="328.84000000000003"/>
    </contour>
    <contour>
      <point x="1149.42" y="813.08" type="curve" smooth="yes"/>
      <point x="1149.42" y="399.64"/>
      <point x="929.14" y="150.68"/>
      <point x="610.7" y="150.68" type="curve" smooth="yes"/>
      <point x="304.3" y="150.68" type="line"/>
      <point x="444.22" y="1281.72" type="line"/>
      <point x="750.62" y="1281.72" type="line" smooth="yes"/>
      <point x="999.7" y="1281.72"/>
      <point x="1149.42" y="1102.12"/>
    </contour>
  </outline>
</glyph>
<glyph name="F" format="2">
  <advance width="1060"/>
  <unicode hex="0046"/>
  <anchor x="695.52" y="1511.66" name="Top"/>
  <anchor x="365.08" y="-70" name="bottom"/>
  <anchor x="695.52" y="1511.66" name="top"/>
  <outline>
    <contour>
      <point x="462.42" y="1432.4" type="line"/>
      <point x="274.26" y="1432.4" type="line"/>
      <point x="97.94" y="0" type="line" name="n02"/>
      <point x="286.1" y="0" type="line"/>
    </contour>
    <contour>
      <point x="360.86" y="770.04" type="line" name="n04"/>
      <point x="342.66" y="618.44" type="line" name="n05"/>
      <point x="897.02" y="618.44" type="line"/>
      <point x="917.22" y="770.04" type="line"/>
    </contour>
    <contour>
      <point x="441.46" y="1432.4" type="line" name="n08"/>
      <point x="423.26" y="1280.8" type="line" name="n09"/>
      <point x="1070.7" y="1280.8" type="line"/>
      <point x="1089.82" y="1432.4" type="line"/>
    </contour>
  </outline>
  <guideline angle="82.9991" x="531" y="0"/>
</glyph>
<glyph name="G" format="2">
  <advance width="1361"/>
  <unicode hex="0047"/>
  <anchor x="882.76" y="1511.66" name="Top"/>
  <anchor x="694.48" y="-70" name="bottom"/>
  <anchor x="882.76" y="1511.66" name="top"/>
  <outline>
    <contour>
      <point x="1090.48" y="252.44" type="line"/>
      <point x="972.56" y="180.04"/>
      <point x="870.48" y="134.68"/>
      <point x="702" y="134.68" type="curve" smooth="yes" name="n03"/>
      <point x="452.8" y="134.68"/>
      <point x="289.52" y="319.64"/>
      <point x="289.52" y="620.4" type="curve" smooth="yes"/>
      <point x="289.52" y="1025.36"/>
      <point x="518.12" y="1286.92"/>
      <point x="846.48" y="1286.92" type="curve" smooth="yes" name="n09"/>
      <point x="1046.36" y="1286.92"/>
      <point x="1118.64" y="1204.04"/>
      <point x="1177.68" y="1168.4" type="curve" smooth="yes"/>
      <point x="1207.44" y="1150.04"/>
      <point x="1236.44" y="1157.44"/>
      <point x="1255.72" y="1185.2" type="curve"/>
      <point x="1315.72" y="1262.48" type="line"/>
      <point x="1216.96" y="1370.32"/>
      <point x="1082.6" y="1448.4"/>
      <point x="860.36" y="1448.4" type="curve" smooth="yes" name="n19"/>
      <point x="421.12" y="1448.4"/>
      <point x="98.12" y="1107.12"/>
      <point x="98.12" y="613.92" type="curve" smooth="yes"/>
      <point x="98.12" y="244.84"/>
      <point x="323.72" y="-16"/>
      <point x="670.84" y="-16" type="curve" smooth="yes" name="n25"/>
      <point x="888.84" y="-16"/>
      <point x="1046.56" y="36.44"/>
      <point x="1191.04" y="139.08" type="curve"/>
      <point x="1258.76" y="685.16" type="line"/>
      <point x="848.2" y="685.16" type="line" name="n30"/>
      <point x="836.32" y="579.04" type="line"/>
      <point x="833.24" y="558.84"/>
      <point x="847.88" y="543.12"/>
      <point x="872.24" y="543.12" type="curve" smooth="yes" name="n34"/>
      <point x="1071.68" y="543.12" type="line"/>
      <point x="1020" y="119.04" type="line"/>
    </contour>
  </outline>
  <guideline angle="82.9991" x="700" y="0"/>
</glyph>
<glyph name="H" format="2">
  <advance width="1420.4"/>
  <unicode hex="0048"/>
  <guideline x="696.0" y="0.0" angle="82.9991"/>
  <anchor x="822.18" y="1511.66" name="Top"/>
  <anchor x="-15.940000000000005" y="1120.0" name="onRight"/>
  <anchor x="630.56" y="-70.0" name="bottom"/>
  <anchor x="822.18" y="1511.66" name="top"/>
  <outline>
    <contour>
      <point x="462.42" y="1432.4" type="line"/>
      <point x="274.26" y="1432.4" type="line"/>
      <point x="97.94" y="0.0" type="line"/>
      <point x="286.1" y="0.0" type="line"/>
    </contour>
    <contour>
      <point x="363.78" y="790.04" type="line"/>
      <point x="346.82" y="654.64" type="line"/>
      <point x="1145.86" y="654.64" type="line"/>
      <point x="1163.9" y="790.04" type="line"/>
    </contour>
    <contour>
      <point x="1349.54" y="1432.4" type="line"/>
      <point x="1161.38" y="1432.4" type="line"/>
      <point x="985.06" y="0.0" type="line"/>
      <point x="1173.22" y="0.0" type="line"/>
    </contour>
  </outline>
</glyph>
<glyph name="J" format="2">
  <advance width="801"/>
  <unicode hex="004A"/>
  <anchor x="546.36" y="715.12" name="Bar"/>
  <anchor x="658.08" y="1511.66" name="Top"/>
  <anchor x="216.3" y="-70" name="bottom"/>
  <anchor x="658.08" y="1511.66" name="top"/>
  <outline>
    <contour>
      <point x="742.78" y="1432.4" type="line" name="n00"/>
      <point x="555.7" y="1432.4" type="line"/>
      <point x="438.02" y="470.32" type="line" smooth="yes"/>
      <point x="408.66" y="226.36"/>
      <point x="297.1" y="140.08"/>
      <point x="158.74" y="140.08" type="curve" smooth="yes" name="n05"/>
      <point x="83.14" y="140.08"/>
      <point x="46.82" y="157.44"/>
      <point x="18.5" y="157.44" type="curve" smooth="yes"/>
      <point x="-8.78" y="157.44"/>
      <point x="-19.42" y="140.64"/>
      <point x="-22.5" y="120.44" type="curve" smooth="yes"/>
      <point x="-36.38" y="11.84" type="line"/>
      <point x="26.42" y="-7.08"/>
      <point x="86.9" y="-16"/>
      <point x="157.82" y="-16" type="curve" name="n15"/>
      <point x="421.22" y="-16.92"/>
      <point x="586.02" y="158"/>
      <point x="625.1" y="474.64" type="curve" smooth="yes"/>
    </contour>
  </outline>
  <guideline angle="82.9991" x="425" y="0"/>
</glyph>
<glyph name="K" format="2">
  <advance width="1236.3"/>
  <unicode hex="004B"/>
  <guideline x="628.26" y="0.0" angle="82.9991"/>
  <anchor x="742.92" y="1511.66" name="Top"/>
  <anchor x="508.96000000000004" y="-70.0" name="bottom"/>
  <anchor x="742.92" y="1511.66" name="top"/>
  <outline>
    <contour>
      <point x="460.26" y="1433.32" type="line"/>
      <point x="273.18" y="1433.32" type="line"/>
      <point x="97.94" y="0.0" type="line"/>
      <point x="283.94" y="0.0" type="line"/>
    </contour>
    <contour>
      <point x="322.9" y="658.64" type="line"/>
      <point x="446.06" y="658.64" type="line" smooth="yes"/>
      <point x="502.98" y="658.64"/>
      <point x="523.94" y="645.56"/>
      <point x="543.62" y="612.16" type="curve" smooth="yes"/>
      <point x="919.58" y="39.92" type="line"/>
      <point x="934.06" y="14.8"/>
      <point x="948.86" y="0.0"/>
      <point x="998.02" y="0.0" type="curve" smooth="yes"/>
      <point x="1159.22" y="0.0" type="line"/>
      <point x="727.02" y="678.76" type="line"/>
      <point x="688.98" y="751.96"/>
      <point x="633.1800000000001" y="764.44"/>
      <point x="529.6600000000001" y="764.44" type="curve"/>
      <point x="528.34" y="730.52" type="line"/>
      <point x="625.14" y="731.44"/>
      <point x="671.1" y="744.4"/>
      <point x="729.46" y="812.8" type="curve"/>
      <point x="1300.62" y="1432.4" type="line"/>
      <point x="1141.9" y="1432.4" type="line" smooth="yes"/>
      <point x="1101.82" y="1432.4"/>
      <point x="1072.84" y="1423.38"/>
      <point x="1045.42" y="1388.32" type="curve" smooth="yes"/>
      <point x="548.54" y="843.32" type="line" smooth="yes"/>
      <point x="520.86" y="812.24"/>
      <point x="494.06" y="801.76"/>
      <point x="448.06" y="801.76" type="curve" smooth="yes"/>
      <point x="342.18" y="801.76" type="line"/>
    </contour>
  </outline>
</glyph>
<glyph name="L" format="2">
  <advance width="951"/>
  <unicode hex="004C"/>
  <anchor x="277.94" y="715.12" name="Bar"/>
  <anchor x="384.74" y="1511.66" name="Top"/>
  <anchor x="443.42" y="-70" name="bottom"/>
  <anchor x="384.74" y="1511.66" name="top"/>
  <outline>
    <contour>
      <point x="461.34" y="1432.4" type="line" name="n00"/>
      <point x="274.26" y="1432.4" type="line"/>
      <point x="97.94" y="0" type="line"/>
      <point x="285.02" y="0" type="line" name="n03"/>
    </contour>
    <contour>
      <point x="286.42" y="157" type="line" name="n04"/>
      <point x="266.22" y="0" type="line"/>
      <point x="851.38" y="0" type="line"/>
      <point x="870.5" y="157" type="line"/>
    </contour>
  </outline>
  <guideline angle="82.9991" x="468" y="0"/>
</glyph>
<glyph name="O" format="2">
  <advance width="1491"/>
  <unicode hex="004F"/>
  <anchor x="762.06" y="715.12" name="Slash"/>
  <anchor x="857.6" y="1511.66" name="Top"/>
  <anchor x="663.44" y="-70" name="bottom"/>
  <anchor x="17.46" y="1120" name="onRight"/>
  <anchor x="857.6" y="1511.66" name="top"/>
  <outline>
    <contour>
      <point x="1420.44" y="818.32" type="curve" smooth="yes"/>
      <point x="1420.44" y="1183.24"/>
      <point x="1201.16" y="1448.4"/>
      <point x="849.52" y="1448.4" type="curve" smooth="yes" name="n03"/>
      <point x="420.64" y="1448.4"/>
      <point x="98.12" y="1100.64"/>
      <point x="98.12" y="613" type="curve" smooth="yes"/>
      <point x="98.12" y="248.08"/>
      <point x="317.4" y="-15.08"/>
      <point x="669.2" y="-15.08" type="curve" smooth="yes" name="n09"/>
      <point x="1099.76" y="-15.08"/>
      <point x="1420.44" y="330.84"/>
    </contour>
    <contour>
      <point x="1228.12" y="814" type="curve" smooth="yes"/>
      <point x="1228.12" y="402.72"/>
      <point x="1008" y="141"/>
      <point x="689.56" y="141" type="curve" smooth="yes" name="n15"/>
      <point x="442.16" y="141"/>
      <point x="289.52" y="327.2"/>
      <point x="289.52" y="618.24" type="curve" smooth="yes"/>
      <point x="289.52" y="1028.6"/>
      <point x="512.24" y="1292.32"/>
      <point x="827" y="1292.32" type="curve" smooth="yes" name="n21"/>
      <point x="1075.16" y="1292.32"/>
      <point x="1228.12" y="1105.04"/>
    </contour>
  </outline>
  <guideline angle="82.9991" x="733" y="0"/>
</glyph>
<glyph name="P" format="2">
  <advance width="1124"/>
  <unicode hex="0050"/>
  <anchor x="293.14" y="977.74" name="Bar"/>
  <anchor x="641.16" y="1511.66" name="Top"/>
  <anchor x="185.86" y="-70" name="bottom"/>
  <anchor x="722.06" y="651.48" name="tick"/>
  <anchor x="641.16" y="1511.66" name="top"/>
  <outline>
    <contour>
      <point x="272.34" y="538.44" type="line"/>
      <point x="557.9" y="538.44" type="line" smooth="yes" name="n01"/>
      <point x="913.5" y="538.44"/>
      <point x="1112.7" y="753.44"/>
      <point x="1112.7" y="1053.2" type="curve" smooth="yes"/>
      <point x="1112.7" y="1281.68"/>
      <point x="972.38" y="1432.4"/>
      <point x="667.78" y="1432.4" type="curve" smooth="yes" name="n07"/>
      <point x="273.18" y="1432.4" type="line"/>
      <point x="97.94" y="0" type="line" name="n09"/>
      <point x="283.94" y="0" type="line"/>
      <point x="460.26" y="1432.4" type="line"/>
      <point x="323.3" y="1286.04" type="line"/>
      <point x="649.58" y="1286.04" type="line" smooth="yes" name="n13"/>
      <point x="835.1" y="1286.04"/>
      <point x="924.54" y="1190.4"/>
      <point x="924.54" y="1036.24" type="curve" smooth="yes"/>
      <point x="924.54" y="832.84"/>
      <point x="801.66" y="685.88"/>
      <point x="576.1" y="685.88" type="curve" smooth="yes" name="n19"/>
      <point x="305.5" y="685.88" type="line"/>
    </contour>
  </outline>
  <guideline angle="82.9991" x="533" y="0"/>
</glyph>
<glyph name="Q" format="2">
  <advance width="1491.48"/>
  <unicode hex="0051"/>
  <guideline x="732.0" y="0.0" angle="82.9991"/>
  <anchor x="857.6" y="1511.66" name="Top"/>
  <anchor x="857.6" y="1511.66" name="top"/>
  <anchor x="663.44" y="-70.0" name="bottom"/>
  <anchor x="17.46" y="1120.0" name="onRight"/>
  <anchor x="762.06" y="715.12" name="Slash"/>
  <outline>
    <contour>
      <point x="1031.36" y="135.88" type="line"/>
      <point x="827.6" y="116.16" type="line"/>
      <point x="1093.4" y="-253.2" type="line"/>
      <point x="1119.0" y="-285.28"/>
      <point x="1153.08" y="-296.84"/>
      <point x="1198.72" y="-296.84" type="curve" smooth="yes"/>
      <point x="1349.88" y="-296.84" type="line"/>
    </contour>
    <component base="O"/>
  </outline>
</glyph>
<glyph name="R" format="2">
  <advance width="1167"/>
  <unicode hex="0052"/>
  <anchor x="647.02" y="1511.66" name="Top"/>
  <anchor x="554.74" y="-70" name="bottom"/>
  <anchor x="647.02" y="1511.66" name="top"/>
  <outline>
    <contour>
      <point x="490.18" y="601.48" type="line" smooth="yes"/>
      <point x="539.1" y="601.48"/>
      <point x="557.26" y="589.16"/>
      <point x="574.18" y="556.84" type="curve" smooth="yes"/>
      <point x="844.42" y="40.08" type="line"/>
      <point x="856.74" y="12.96"/>
      <point x="880.02" y="0" name="n06"/>
      <point x="913.78" y="0" type="curve" smooth="yes"/>
      <point x="1079.9" y="0" type="line"/>
      <point x="771.3" y="572.24" type="line"/>
      <point x="730.94" y="649.44"/>
      <point x="656.34" y="669.64"/>
      <point x="559.66" y="669.64" type="curve"/>
      <point x="513.38" y="615.52" type="line"/>
      <point x="558.98" y="615.52" type="line" smooth="yes" name="n14"/>
      <point x="881.1" y="615.52"/>
      <point x="1092.66" y="810.08"/>
      <point x="1092.66" y="1091.2" type="curve" smooth="yes"/>
      <point x="1092.66" y="1299.68"/>
      <point x="955.42" y="1432.4"/>
      <point x="649.86" y="1432.4" type="curve" smooth="yes" name="n20"/>
      <point x="273.18" y="1432.4" type="line"/>
      <point x="97.94" y="0" type="line"/>
      <point x="283.94" y="0" type="line"/>
      <point x="456.58" y="1399.28" type="line"/>
      <point x="294.1" y="1286.04" type="line"/>
      <point x="632.74" y="1286.04" type="line" smooth="yes" name="n26"/>
      <point x="814.14" y="1286.04"/>
      <point x="906.66" y="1206.84"/>
      <point x="906.66" y="1062.2" type="curve" smooth="yes"/>
      <point x="906.66" y="872.84"/>
      <point x="785.3" y="737.04"/>
      <point x="557.74" y="737.04" type="curve" smooth="yes" name="n32"/>
      <point x="312.26" y="737.04" type="line"/>
      <point x="271.54" y="601.48" type="line"/>
    </contour>
  </outline>
  <guideline angle="82.9991" x="570" y="0"/>
</glyph>
<glyph name="S" format="2">
  <advance width="1015.64"/>
  <unicode hex="0053"/>
  <guideline x="488.5" y="0.0" angle="82.9991"/>
  <anchor x="665.24" y="1511.66" name="Top"/>
  <anchor x="406.02" y="-70.0" name="bottom"/>
  <anchor x="665.24" y="1511.66" name="top"/>
  <outline>
    <contour>
      <point x="982.08" y="1289.88" type="line"/>
      <point x="906.84" y="1386.96"/>
      <point x="785.36" y="1447.32"/>
      <point x="638.68" y="1447.32" type="curve" smooth="yes"/>
      <point x="349.8" y="1447.32"/>
      <point x="174.48" y="1234.0"/>
      <point x="174.48" y="999.6" type="curve" smooth="yes"/>
      <point x="174.48" y="579.04"/>
      <point x="729.6" y="731.96"/>
      <point x="729.6" y="437.08" type="curve" smooth="yes"/>
      <point x="729.6" y="261.56"/>
      <point x="615.44" y="139.0"/>
      <point x="431.04" y="139.0" type="curve" smooth="yes"/>
      <point x="231.16000000000003" y="139.0"/>
      <point x="176.4" y="284.0"/>
      <point x="125.24000000000001" y="284.0" type="curve" smooth="yes"/>
      <point x="107.36" y="284.0"/>
      <point x="90.24000000000001" y="273.36"/>
      <point x="78.68" y="259.64" type="curve"/>
      <point x="13.280000000000001" y="171.4" type="line"/>
      <point x="99.0" y="57.4"/>
      <point x="237.6" y="-16.0"/>
      <point x="407.44" y="-16.0" type="curve" smooth="yes"/>
      <point x="716.92" y="-16.0"/>
      <point x="910.36" y="211.44"/>
      <point x="910.36" y="482.44" type="curve" smooth="yes"/>
      <point x="910.36" y="879.88"/>
      <point x="352.0" y="759.8"/>
      <point x="352.0" y="1039.4" type="curve" smooth="yes"/>
      <point x="352.0" y="1180.32"/>
      <point x="449.88" y="1293.4"/>
      <point x="620.64" y="1293.4" type="curve" smooth="yes"/>
      <point x="787.76" y="1293.4"/>
      <point x="838.24" y="1182.84"/>
      <point x="881.68" y="1182.84" type="curve" smooth="yes"/>
      <point x="900.8" y="1182.84"/>
      <point x="913.44" y="1192.4"/>
      <point x="927.32" y="1211.52" type="curve"/>
    </contour>
  </outline>
</glyph>
<glyph name="T" format="2">
  <advance width="1091.68"/>
  <unicode hex="0054"/>
  <guideline x="543.72" y="0.0" angle="82.9991"/>
  <anchor x="654.3" y="1511.66" name="Top"/>
  <anchor x="461.14" y="-70.0" name="bottom"/>
  <anchor x="575.82" y="715.12" name="Slash"/>
  <anchor x="654.3" y="1511.66" name="top"/>
  <outline>
    <contour>
      <point x="740.54" y="1432.4" type="line"/>
      <point x="553.46" y="1432.4" type="line"/>
      <point x="378.22" y="0.0" type="line"/>
      <point x="564.22" y="0.0" type="line"/>
    </contour>
    <contour>
      <point x="128.1" y="1432.4" type="line"/>
      <point x="109.9" y="1276.48" type="line"/>
      <point x="1143.86" y="1276.48" type="line"/>
      <point x="1163.14" y="1432.4" type="line"/>
    </contour>
  </outline>
</glyph>
<glyph name="U" format="2">
  <advance width="1369.78"/>
  <unicode hex="0055"/>
  <guideline x="671.6" y="0.0" angle="82.9991"/>
  <anchor x="792.42" y="1511.66" name="Top"/>
  <anchor x="792.42" y="1511.66" name="top"/>
  <anchor x="605.96" y="-70.0" name="bottom"/>
  <outline>
    <contour>
      <point x="628.24" y="146.56" type="curve" smooth="yes"/>
      <point x="412.88" y="146.56"/>
      <point x="308.2" y="320.24"/>
      <point x="336.8" y="560.88" type="curve"/>
      <point x="443.72" y="1432.4" type="line"/>
      <point x="256.64" y="1432.4" type="line"/>
      <point x="150.8" y="559.96" type="line" smooth="yes"/>
      <point x="110.47999999999999" y="231.56"/>
      <point x="282.08" y="-16.92"/>
      <point x="608.04" y="-16.92" type="curve" smooth="yes"/>
      <point x="934.92" y="-16.92"/>
      <point x="1166.68" y="231.56"/>
      <point x="1207.92" y="559.96" type="curve"/>
      <point x="1314.84" y="1432.4" type="line"/>
      <point x="1127.76" y="1432.4" type="line"/>
      <point x="1020.84" y="559.96" type="line"/>
      <point x="991.3199999999999" y="319.32"/>
      <point x="842.68" y="146.56"/>
    </contour>
  </outline>
</glyph>
<glyph name="V" format="2">
  <advance width="1259.02"/>
  <unicode hex="0056"/>
  <guideline x="629.72" y="0.0" angle="82.9991"/>
  <anchor x="735.42" y="1511.66" name="Top"/>
  <anchor x="735.42" y="1511.66" name="top"/>
  <anchor x="550.58" y="-70.0" name="bottom"/>
  <outline>
    <contour>
      <point x="1351.96" y="1432.4" type="line"/>
      <point x="1202.04" y="1432.4" type="line" smooth="yes"/>
      <point x="1170.12" y="1432.4"/>
      <point x="1142.52" y="1410.04"/>
      <point x="1132.96" y="1387.84" type="curve"/>
      <point x="643.92" y="362.36" type="line" smooth="yes"/>
      <point x="594.12" y="263.84000000000003"/>
      <point x="549.56" y="116.24000000000001"/>
      <point x="528.76" y="0.0" type="curve"/>
      <point x="639.64" y="0.0" type="line"/>
    </contour>
    <contour>
      <point x="470.6" y="0.0" type="line"/>
      <point x="584.72" y="0.0" type="line"/>
      <point x="601.08" y="116.24000000000001"/>
      <point x="581.04" y="263.84000000000003"/>
      <point x="555.6" y="362.36" type="curve" smooth="yes"/>
      <point x="316.20000000000005" y="1387.84" type="line"/>
      <point x="311.88" y="1413.28"/>
      <point x="291.68" y="1432.4"/>
      <point x="258.68" y="1432.4" type="curve" smooth="yes"/>
      <point x="108.92" y="1432.4" type="line"/>
    </contour>
  </outline>
</glyph>
<glyph name="W" format="2">
  <advance width="1909.56"/>
  <unicode hex="0057"/>
  <guideline y="83.0"/>
  <guideline x="940.78" y="0.0" angle="82.9991"/>
  <anchor x="1055.38" y="1511.66" name="Top"/>
  <anchor x="1055.38" y="1511.66" name="top"/>
  <anchor x="872.54" y="-70.0" name="bottom"/>
  <outline>
    <contour>
      <point x="1031.34" y="1432.4" type="line" smooth="yes"/>
      <point x="999.42" y="1432.4"/>
      <point x="973.36" y="1410.5"/>
      <point x="963.34" y="1387.84" type="curve" smooth="yes"/>
      <point x="534.7" y="372.08000000000004" type="line" smooth="yes"/>
      <point x="492.3" y="271.4"/>
      <point x="450.82" y="116.24000000000001"/>
      <point x="432.02" y="0.0" type="curve"/>
      <point x="529.1800000000001" y="0.0" type="line"/>
      <point x="994.66" y="1104.24" type="line" smooth="yes"/>
      <point x="1024.42" y="1176.56"/>
      <point x="1063.9" y="1304.88"/>
      <point x="1074.54" y="1376.12" type="curve"/>
      <point x="1017.46" y="1376.12" type="line"/>
      <point x="1010.98" y="1304.88"/>
      <point x="1019.46" y="1176.56"/>
      <point x="1031.18" y="1104.24" type="curve"/>
      <point x="1224.98" y="0.0" type="line"/>
      <point x="1327.54" y="0.0" type="line"/>
      <point x="1336.18" y="116.24000000000001"/>
      <point x="1328.94" y="271.4"/>
      <point x="1311.98" y="372.08000000000004" type="curve"/>
      <point x="1132.82" y="1387.84" type="line"/>
      <point x="1125.88" y="1413.74"/>
      <point x="1107.22" y="1432.4"/>
      <point x="1074.22" y="1432.4" type="curve" smooth="yes"/>
    </contour>
    <contour>
      <point x="361.22" y="0.0" type="line"/>
      <point x="493.86" y="0.0" type="line"/>
      <point x="502.5" y="116.24000000000001"/>
      <point x="493.1" y="269.24"/>
      <point x="483.7" y="372.08000000000004" type="curve" smooth="yes"/>
      <point x="329.26" y="1387.84" type="line"/>
      <point x="326.02" y="1414.36"/>
      <point x="304.74" y="1432.4"/>
      <point x="271.74" y="1432.4" type="curve" smooth="yes"/>
      <point x="125.22" y="1432.4" type="line"/>
    </contour>
    <contour>
      <point x="1981.58" y="1432.4" type="line"/>
      <point x="1834.9" y="1432.4" type="line" smooth="yes"/>
      <point x="1802.98" y="1432.4"/>
      <point x="1772.3" y="1411.12"/>
      <point x="1764.9" y="1387.84" type="curve"/>
      <point x="1361.9" y="372.08000000000004" type="line" smooth="yes"/>
      <point x="1327.06" y="269.24"/>
      <point x="1283.42" y="116.24000000000001"/>
      <point x="1264.62" y="0.0" type="curve"/>
      <point x="1394.02" y="0.0" type="line"/>
    </contour>
  </outline>
</glyph>
<glyph name="Y" format="2">
  <advance width="1164"/>
  <unicode hex="0059"/>
  <anchor x="688.46" y="1511.66" name="Top"/>
  <anchor x="502.54" y="-70" name="bottom"/>
  <anchor x="-109.6" y="1120" name="onRight"/>
  <anchor x="688.46" y="1511.66" name="top"/>
  <outline>
    <contour>
      <point x="1260.18" y="1432.4" type="line" name="n00"/>
      <point x="1105.18" y="1432.4" type="line" smooth="yes"/>
      <point x="1073.26" y="1432.4"/>
      <point x="1050.9" y="1410.96"/>
      <point x="1037.18" y="1388.76" type="curve"/>
      <point x="656.7" y="813.72" type="line"/>
      <point x="604.42" y="723.96"/>
      <point x="568.66" y="658.12"/>
      <point x="550.94" y="556.36" type="curve"/>
      <point x="660.74" y="556.36" type="line"/>
    </contour>
    <contour>
      <point x="491.7" y="556.36" type="line"/>
      <point x="610.14" y="556.36" type="line"/>
      <point x="614.78" y="637.6"/>
      <point x="602.46" y="717.48"/>
      <point x="569.46" y="813.72" type="curve"/>
      <point x="331.94" y="1388.76" type="line"/>
      <point x="323.46" y="1415.28"/>
      <point x="305.42" y="1432.4"/>
      <point x="272.42" y="1432.4" type="curve" smooth="yes"/>
      <point x="106.62" y="1432.4" type="line"/>
    </contour>
    <contour>
      <point x="676.62" y="609.08" type="line"/>
      <point x="489.54" y="609.08" type="line"/>
      <point x="413.54" y="0" type="line" name="n22"/>
      <point x="600.62" y="0" type="line"/>
    </contour>
  </outline>
  <guideline angle="0" x="0" y="662"/>
  <guideline angle="82.9991" x="529" y="0"/>
</glyph>
<glyph name="Z" format="2">
  <advance width="1110.84"/>
  <unicode hex="005A"/>
  <guideline x="573.8" y="0.0" angle="82.9991"/>
  <anchor x="680.28" y="1511.66" name="Top"/>
  <anchor x="492.04" y="-70.0" name="bottom"/>
  <anchor x="680.28" y="1511.66" name="top"/>
  <outline>
    <contour>
      <point x="1122.0" y="1324.32" type="line" smooth="yes"/>
      <point x="1133.4" y="1340.96"/>
      <point x="1141.88" y="1354.84"/>
      <point x="1144.96" y="1372.72" type="curve"/>
      <point x="1153.44" y="1432.4" type="line"/>
      <point x="995.04" y="1432.4" type="line"/>
      <point x="3.5999999999999996" y="106.08000000000001" type="line"/>
      <point x="-6.880000000000001" y="90.36"/>
      <point x="-15.36" y="76.48"/>
      <point x="-18.44" y="58.6" type="curve"/>
      <point x="-25.840000000000003" y="0.0" type="line"/>
      <point x="132.56" y="0.0" type="line"/>
    </contour>
    <contour>
      <point x="185.92" y="1432.4" type="line"/>
      <point x="166.8" y="1280.8" type="line"/>
      <point x="1035.0" y="1280.8" type="line"/>
      <point x="1153.44" y="1432.4" type="line"/>
    </contour>
    <contour>
      <point x="91.52000000000001" y="151.60000000000002" type="line"/>
      <point x="-25.840000000000003" y="0.0" type="line"/>
      <point x="964.48" y="0.0" type="line"/>
      <point x="983.6" y="151.60000000000002" type="line"/>
    </contour>
  </outline>
</glyph>
<glyph name="bracketleft" format="2">
  <advance width="579.8"/>
  <unicode hex="005B"/>
  <guideline x="276.0" y="0.0" angle="82.9991"/>
  <outline>
    <contour>
      <point x="633.24" y="1532.24" type="line"/>
      <point x="290.52" y="1532.24" type="line"/>
      <point x="286.64" y="1419.2" type="line"/>
      <point x="572.8" y="1419.2" type="line" smooth="yes"/>
      <point x="600.24" y="1419.2"/>
      <point x="622.6" y="1439.4"/>
      <point x="625.6800000000001" y="1464.68" type="curve"/>
    </contour>
    <contour>
      <point x="410.6" y="-286.28" type="line"/>
      <point x="419.08" y="-219.8" type="line"/>
      <point x="422.32" y="-193.44"/>
      <point x="405.36" y="-173.24"/>
      <point x="377.92" y="-173.24" type="curve" smooth="yes"/>
      <point x="97.16" y="-173.24" type="line"/>
      <point x="67.88" y="-286.28" type="line"/>
    </contour>
    <contour>
      <point x="435.64" y="1532.24" type="line"/>
      <point x="290.52" y="1532.24" type="line"/>
      <point x="67.88" y="-286.28" type="line"/>
      <point x="211.0" y="-286.28" type="line"/>
    </contour>
  </outline>
</glyph>
<glyph name="backslash" format="2">
  <advance width="828.92"/>
  <unicode hex="005C"/>
  <guideline x="346.86" y="0.0" angle="82.9991"/>
  <outline>
    <contour>
      <point x="523.8199999999999" y="-24.959999999999994" type="line"/>
      <point x="534.46" y="-68.44"/>
      <point x="572.54" y="-90.96000000000001"/>
      <point x="609.7" y="-90.96000000000001" type="curve" smooth="yes"/>
      <point x="681.42" y="-90.96000000000001" type="line"/>
      <point x="320.62" y="1388.04" type="line" smooth="yes"/>
      <point x="309.98" y="1427.36"/>
      <point x="280.22" y="1450.8"/>
      <point x="237.82" y="1450.8" type="curve" smooth="yes"/>
      <point x="165.18" y="1450.8" type="line"/>
    </contour>
  </outline>
</glyph>
<glyph name="bracketright" format="2">
  <advance width="581"/>
  <unicode hex="005D"/>
  <outline>
    <contour>
      <point x="164.62" y="1464.68" type="line" smooth="yes"/>
      <point x="161.54" y="1439.4"/>
      <point x="178.5" y="1419.2"/>
      <point x="206.86" y="1419.2" type="curve" smooth="yes"/>
      <point x="493.02" y="1419.2" type="line" name="n04"/>
      <point x="516.9" y="1532.24" type="line"/>
      <point x="173.26" y="1532.24" type="line"/>
    </contour>
    <contour>
      <point x="293.18" y="-286.28" type="line" name="n07"/>
      <point x="297.06" y="-173.24" type="line" name="n08"/>
      <point x="10.9" y="-173.24" type="line" smooth="yes"/>
      <point x="-17.46" y="-173.24"/>
      <point x="-38.74" y="-193.44"/>
      <point x="-41.82" y="-219.8" type="curve" smooth="yes"/>
      <point x="-50.46" y="-286.28" type="line"/>
    </contour>
    <contour>
      <point x="149.14" y="-286.28" type="line"/>
      <point x="293.18" y="-286.28" type="line"/>
      <point x="516.9" y="1532.24" type="line"/>
      <point x="372.86" y="1532.24" type="line" name="n17"/>
    </contour>
  </outline>
  <guideline angle="82.9991" x="276" y="0"/>
</glyph>
<glyph name="asciicircum" format="2">
  <advance width="1160"/>
  <unicode hex="005E"/>
  <outline>
    <contour>
      <point x="215.44" y="787.16" type="line" name="n00"/>
      <point x="351.48" y="787.16" type="line" smooth="yes"/>
      <point x="377.68" y="787.16"/>
      <point x="393.4" y="802.72"/>
      <point x="402.8" y="820.6" type="curve" smooth="yes"/>
      <point x="596.4" y="1174.32" type="line" smooth="yes"/>
      <point x="642.96" y="1260.04"/>
      <point x="654.04" y="1328.48"/>
      <point x="656.04" y="1432.4" type="curve" name="n08"/>
      <point x="573.84" y="1432.4" type="line"/>
    </contour>
    <contour>
      <point x="688.44" y="1432.4" type="line"/>
      <point x="610.56" y="1432.4" type="line"/>
      <point x="611.48" y="1328.48"/>
      <point x="623.64" y="1261.12"/>
      <point x="672.36" y="1174.32" type="curve" smooth="yes"/>
      <point x="868.12" y="820.6" type="line" smooth="yes"/>
      <point x="878.6" y="801.8"/>
      <point x="894.16" y="787.16"/>
      <point x="917.28" y="787.16" type="curve" smooth="yes"/>
      <point x="1046.84" y="787.16" type="line"/>
    </contour>
  </outline>
  <guideline angle="82.9991" x="580" y="0"/>
</glyph>
<glyph name="underscore" format="2">
  <advance width="888"/>
  <unicode hex="005F"/>
  <outline>
    <contour>
      <point x="-13.28" y="-168.72" type="line" name="n00"/>
      <point x="-27.16" y="-283.6" type="line" name="n01"/>
      <point x="697.92" y="-283.6" type="line"/>
      <point x="712.72" y="-168.72" type="line"/>
    </contour>
  </outline>
  <guideline angle="82.9991" x="363" y="0"/>
</glyph>
<glyph name="b" format="2">
  <advance width="1056.52"/>
  <unicode hex="0062"/>
  <guideline x="522.46" y="0.0" angle="82.9991"/>
  <anchor x="436.4" y="-70.0" name="bottom"/>
  <anchor x="642.2" y="1120.0" name="top"/>
  <anchor x="572.66" y="129.08" name="hook"/>
  <anchor x="289.48" y="1238.0" name="bar"/>
  <anchor x="357.3" y="1511.66" name="Top"/>
  <outline>
    <contour>
      <point x="153.44" y="0.0" type="line" smooth="yes"/>
      <point x="193.68" y="0.0"/>
      <point x="205.72" y="16.8"/>
      <point x="216.36" y="51.800000000000004" type="curve"/>
      <point x="239.74" y="161.5" type="line"/>
      <point x="252.54000000000002" y="175.82" type="line"/>
      <point x="411.48" y="1472.4" type="line"/>
      <point x="237.2" y="1472.4" type="line"/>
      <point x="58.879999999999995" y="0.0" type="line"/>
    </contour>
    <contour>
      <point x="209.68" y="151.92" type="line"/>
      <point x="262.76" y="47.84"/>
      <point x="362.72" y="-14.16"/>
      <point x="483.8" y="-14.16" type="curve" smooth="yes"/>
      <point x="764.52" y="-14.16"/>
      <point x="976.92" y="329.88"/>
      <point x="976.92" y="659.08" type="curve" smooth="yes"/>
      <point x="976.92" y="898.6"/>
      <point x="875.32" y="1027.48"/>
      <point x="703.48" y="1027.48" type="curve" smooth="yes"/>
      <point x="499.6" y="1027.48"/>
      <point x="314.84000000000003" y="814.56"/>
      <point x="217.0" y="523.96" type="curve"/>
      <point x="275.92" y="437.32" type="line"/>
      <point x="349.04" y="693.92"/>
      <point x="499.72" y="885.44"/>
      <point x="636.52" y="885.44" type="curve" smooth="yes"/>
      <point x="741.0" y="885.44"/>
      <point x="800.48" y="800.16"/>
      <point x="800.48" y="641.8" type="curve" smooth="yes"/>
      <point x="800.48" y="403.6"/>
      <point x="667.96" y="123.56"/>
      <point x="457.72" y="123.56" type="curve" smooth="yes"/>
      <point x="373.96000000000004" y="123.56"/>
      <point x="285.4" y="159.2"/>
      <point x="236.36" y="259.52" type="curve"/>
    </contour>
  </outline>
</glyph>
<glyph name="d" format="2">
  <advance width="1058.06"/>
  <unicode hex="0064"/>
  <guideline x="526.16" y="0.0" angle="82.9991"/>
  <anchor x="535.24" y="1120.0" name="top"/>
  <anchor x="849.78" y="129.08" name="hook"/>
  <anchor x="903.0" y="1238.0" name="bar"/>
  <anchor x="900.94" y="1511.66" name="Top"/>
  <anchor x="483.86" y="-70.0" name="bottom"/>
  <outline>
    <contour>
      <point x="850.86" y="0.0" type="line"/>
      <point x="1032.26" y="1472.4" type="line"/>
      <point x="857.98" y="1472.4" type="line"/>
      <point x="716.54" y="333.8" type="line"/>
      <point x="721.94" y="316.72" type="line"/>
      <point x="698.94" y="61.52" type="line"/>
      <point x="698.94" y="27.44"/>
      <point x="711.74" y="0.0"/>
      <point x="758.46" y="0.0" type="curve"/>
    </contour>
    <contour>
      <point x="822.38" y="862.32" type="line"/>
      <point x="769.3" y="966.4"/>
      <point x="669.34" y="1027.48"/>
      <point x="548.26" y="1027.48" type="curve" smooth="yes"/>
      <point x="267.54" y="1027.48"/>
      <point x="55.14" y="684.36"/>
      <point x="55.14" y="355.16" type="curve" smooth="yes"/>
      <point x="55.14" y="115.64"/>
      <point x="156.74" y="-14.16"/>
      <point x="328.58" y="-14.16" type="curve" smooth="yes"/>
      <point x="532.46" y="-14.16"/>
      <point x="717.22" y="199.68"/>
      <point x="815.06" y="490.28" type="curve"/>
      <point x="756.14" y="576.92" type="line"/>
      <point x="683.02" y="320.32"/>
      <point x="532.34" y="127.88000000000001"/>
      <point x="395.54" y="127.88000000000001" type="curve" smooth="yes"/>
      <point x="291.06" y="127.88000000000001"/>
      <point x="231.58" y="214.08"/>
      <point x="231.58" y="372.44" type="curve" smooth="yes"/>
      <point x="231.58" y="610.64"/>
      <point x="364.1" y="889.76"/>
      <point x="574.34" y="889.76" type="curve" smooth="yes"/>
      <point x="658.1" y="889.76"/>
      <point x="746.66" y="855.04"/>
      <point x="795.7" y="754.72" type="curve"/>
    </contour>
  </outline>
</glyph>
<glyph name="f" format="2">
  <advance width="641"/>
  <unicode hex="0066"/>
  <anchor x="505" y="1511.66" name="Top"/>
  <anchor x="271.86" y="500.14" name="bar"/>
  <anchor x="155.06" y="-421" name="bottom"/>
  <anchor x="309.42" y="129.08" name="hook"/>
  <anchor x="585.36" y="1498.68" name="top"/>
  <outline>
    <contour>
      <point x="416.26" y="1085.84" type="line" smooth="yes"/>
      <point x="437.78" y="1259.24"/>
      <point x="520.94" y="1322.72"/>
      <point x="634.9" y="1322.72" type="curve" smooth="yes" name="n03"/>
      <point x="680.54" y="1322.72"/>
      <point x="714.86" y="1315.24"/>
      <point x="719.94" y="1341.88" type="curve" smooth="yes"/>
      <point x="736.9" y="1434.12" type="line"/>
      <point x="703.34" y="1447.04"/>
      <point x="664.42" y="1453.96"/>
      <point x="623.94" y="1453.96" type="curve" smooth="yes" name="n10"/>
      <point x="428.1" y="1453.96"/>
      <point x="277.54" y="1322.8"/>
      <point x="248.46" y="1091.24" type="curve"/>
      <point x="85.54" y="-248.76" type="line" name="n14"/>
      <point x="155.42" y="-248.76" type="line" smooth="yes"/>
      <point x="205.86" y="-248.76"/>
      <point x="232.38" y="-221.92"/>
      <point x="247.34" y="-174.12" type="curve"/>
      <point x="293.98" y="32.68" type="line"/>
      <point x="403.82" y="934.64" type="line"/>
      <point x="400.58" y="955.6" type="line"/>
    </contour>
    <contour>
      <point x="641.02" y="864.92" type="line" name="n22"/>
      <point x="657.98" y="993.08" type="line" name="n23"/>
      <point x="92.06" y="993.08" type="line"/>
      <point x="83.42" y="921.2" type="line" smooth="yes"/>
      <point x="80.18" y="893.6"/>
      <point x="96.22" y="880.8"/>
      <point x="120.42" y="875.4" type="curve"/>
      <point x="249.74" y="859.52" type="line"/>
      <point x="277.78" y="864.92" type="line"/>
    </contour>
  </outline>
  <guideline angle="82.9991" x="268" y="0"/>
</glyph>
<glyph name="g" format="2">
  <advance width="968.08"/>
  <unicode hex="0067"/>
  <guideline x="464.9"/>
  <guideline x="100.0" y="0.0" angle="82.9991"/>
  <anchor x="569.14" y="1120.0" name="top"/>
  <anchor x="388.68" y="-421.0" name="bottom"/>
  <outline>
    <contour>
      <point x="439.5" y="456.32" type="curve" smooth="yes"/>
      <point x="336.22" y="456.32"/>
      <point x="274.46000000000004" y="522.12"/>
      <point x="274.46000000000004" y="641.08" type="curve" smooth="yes"/>
      <point x="274.46000000000004" y="776.52"/>
      <point x="352.82" y="904.88"/>
      <point x="495.9" y="904.88" type="curve" smooth="yes"/>
      <point x="600.26" y="904.88"/>
      <point x="662.94" y="842.92"/>
      <point x="662.94" y="725.96" type="curve" smooth="yes"/>
      <point x="661.86" y="594.68"/>
      <point x="582.58" y="456.32"/>
    </contour>
    <contour>
      <point x="825.5" y="732.44" type="curve"/>
      <point x="825.5" y="929.0"/>
      <point x="687.86" y="1027.48"/>
      <point x="515.34" y="1027.48" type="curve" smooth="yes"/>
      <point x="254.42" y="1027.48"/>
      <point x="112.06" y="835.28"/>
      <point x="112.06" y="642.16" type="curve" smooth="yes"/>
      <point x="112.06" y="445.92"/>
      <point x="236.74" y="345.6"/>
      <point x="390.9" y="345.6" type="curve" smooth="yes"/>
      <point x="513.18" y="345.6"/>
      <point x="588.54" y="392.4"/>
      <point x="657.94" y="463.04" type="curve"/>
      <point x="651.14" y="501.72" type="line"/>
      <point x="569.66" y="394.36"/>
      <point x="542.1" y="325.08"/>
      <point x="542.1" y="260.6" type="curve"/>
      <point x="541.18" y="152.68"/>
      <point x="640.78" y="104.32"/>
      <point x="639.86" y="-25.239999999999995" type="curve" smooth="yes"/>
      <point x="638.94" y="-140.56"/>
      <point x="521.66" y="-239.35999999999999"/>
      <point x="345.22" y="-239.35999999999999" type="curve" smooth="yes"/>
      <point x="197.78" y="-239.35999999999999"/>
      <point x="113.14000000000001" y="-186.95999999999998"/>
      <point x="113.14000000000001" y="-91.67999999999999" type="curve"/>
      <point x="114.06" y="26.16"/>
      <point x="270.22" y="125.56"/>
      <point x="626.38" y="66.32" type="curve"/>
      <point x="598.94" y="170.72" type="line"/>
      <point x="320.14" y="224.4"/>
      <point x="-54.82" y="153.52"/>
      <point x="-55.74" y="-113.28" type="curve"/>
      <point x="-55.74" y="-263.44"/>
      <point x="97.22" y="-364.12"/>
      <point x="330.26" y="-364.12" type="curve" smooth="yes"/>
      <point x="620.54" y="-364.12"/>
      <point x="800.26" y="-198.84"/>
      <point x="802.26" y="-11.199999999999989" type="curve" smooth="yes"/>
      <point x="803.1800000000001" y="141.36"/>
      <point x="670.26" y="204.76"/>
      <point x="671.1800000000001" y="314.6" type="curve"/>
      <point x="671.1800000000001" y="463.08"/>
      <point x="823.66" y="531.48"/>
    </contour>
    <contour>
      <point x="746.58" y="837.44" type="line"/>
      <point x="933.26" y="869.68" type="line"/>
      <point x="956.98" y="877.24"/>
      <point x="969.62" y="894.04"/>
      <point x="972.86" y="917.48" type="curve" smooth="yes"/>
      <point x="980.42" y="976.24" type="line"/>
      <point x="634.78" y="976.24" type="line"/>
    </contour>
  </outline>
</glyph>
<glyph name="h" format="2">
  <advance width="1058.84"/>
  <unicode hex="0068"/>
  <guideline x="530.08" y="0.0" angle="82.9991"/>
  <anchor x="552.04" y="715.12" name="Slash"/>
  <anchor x="357.84000000000003" y="1511.66" name="Top"/>
  <anchor x="357.84000000000003" y="1511.66" name="top"/>
  <anchor x="455.68" y="-70.0" name="bottom"/>
  <outline>
    <contour>
      <point x="236.4" y="0.0" type="line"/>
      <point x="414.72" y="1472.4" type="line"/>
      <point x="237.2" y="1472.4" type="line"/>
      <point x="58.879999999999995" y="0.0" type="line"/>
    </contour>
    <contour>
      <point x="862.64" y="0.0" type="line"/>
      <point x="938.8" y="645.28" type="line"/>
      <point x="761.28" y="645.28" type="line"/>
      <point x="685.12" y="0.0" type="line"/>
    </contour>
    <contour>
      <point x="938.8" y="645.28" type="line"/>
      <point x="968.96" y="889.16"/>
      <point x="877.48" y="1027.48"/>
      <point x="704.4" y="1027.48" type="curve" smooth="yes"/>
      <point x="520.24" y="1027.48"/>
      <point x="334.72" y="870.32"/>
      <point x="227.32" y="578.28" type="curve"/>
      <point x="285.32" y="487.32" type="line"/>
      <point x="357.04" y="724.88"/>
      <point x="508.64" y="881.12"/>
      <point x="638.68" y="881.12" type="curve" smooth="yes"/>
      <point x="743.92" y="881.12"/>
      <point x="780.8" y="803.88"/>
      <point x="761.28" y="645.28" type="curve"/>
    </contour>
  </outline>
</glyph>
<glyph name="i" format="2">
  <advance width="460.04"/>
  <unicode hex="0069"/>
  <guideline x="243.78"/>
  <guideline x="100.0" y="0.0" angle="82.9991"/>
  <anchor x="244.46" y="129.08" name="hook"/>
  <anchor x="310.36" y="1511.66" name="Top"/>
  <anchor x="310.36" y="1511.66" name="top"/>
  <anchor x="151.4" y="-70.0" name="bottom"/>
  <outline>
    <contour>
      <point x="190.95999999999998" y="1012.4" type="line"/>
      <point x="68.8" y="0.0" type="line"/>
      <point x="244.16000000000003" y="0.0" type="line"/>
      <point x="366.32" y="1012.4" type="line"/>
    </contour>
    <contour>
      <point x="433.52" y="1331.04" type="curve"/>
      <point x="433.52" y="1401.0"/>
      <point x="374.04" y="1458.32"/>
      <point x="310.24" y="1458.32" type="curve" smooth="yes"/>
      <point x="247.68" y="1458.32"/>
      <point x="189.12" y="1399.92"/>
      <point x="189.12" y="1331.04" type="curve" smooth="yes"/>
      <point x="189.12" y="1263.08"/>
      <point x="246.6" y="1205.76"/>
      <point x="309.16" y="1205.76" type="curve" smooth="yes"/>
      <point x="371.88" y="1205.76"/>
      <point x="433.52" y="1263.08"/>
    </contour>
  </outline>
</glyph>
<glyph name="j" format="2">
  <advance width="458.5"/>
  <unicode hex="006A"/>
  <guideline x="238.02"/>
  <guideline x="100.0" y="0.0" angle="82.9991"/>
  <anchor x="209.12" y="500.14" name="bar"/>
  <anchor x="306.88" y="1511.66" name="Top"/>
  <anchor x="306.88" y="1511.66" name="top"/>
  <anchor x="106.86" y="-421.0" name="bottom"/>
  <outline>
    <contour>
      <point x="191.5" y="1012.4" type="line"/>
      <point x="58.14" y="-75.88" type="line"/>
      <point x="44.14" y="-182.8"/>
      <point x="1.7399999999999984" y="-229.8"/>
      <point x="-91.62" y="-229.8" type="curve" smooth="yes"/>
      <point x="-137.46" y="-229.8"/>
      <point x="-150.54" y="-223.72"/>
      <point x="-159.3" y="-248.95999999999998" type="curve"/>
      <point x="-177.34" y="-344.44" type="line"/>
      <point x="-145.46" y="-357.36"/>
      <point x="-114.82" y="-364.28"/>
      <point x="-68.78" y="-364.28" type="curve" smooth="yes"/>
      <point x="110.34" y="-364.28"/>
      <point x="213.02" y="-237.07999999999998"/>
      <point x="232.42000000000002" y="-75.88" type="curve" smooth="yes"/>
      <point x="365.78" y="1012.4" type="line"/>
    </contour>
    <contour>
      <point x="429.26" y="1331.04" type="curve" smooth="yes"/>
      <point x="429.26" y="1401.0"/>
      <point x="369.78" y="1458.32"/>
      <point x="305.98" y="1458.32" type="curve" smooth="yes"/>
      <point x="243.42" y="1458.32"/>
      <point x="184.86" y="1399.92"/>
      <point x="184.86" y="1331.04" type="curve" smooth="yes"/>
      <point x="184.86" y="1263.08"/>
      <point x="242.34" y="1205.76"/>
      <point x="304.9" y="1205.76" type="curve" smooth="yes"/>
      <point x="367.62" y="1205.76"/>
      <point x="429.26" y="1263.08"/>
    </contour>
  </outline>
</glyph>
<glyph name="k" format="2">
  <advance width="948"/>
  <unicode hex="006B"/>
  <anchor x="371.88" y="1511.66" name="Top"/>
  <anchor x="423.58" y="-70" name="bottom"/>
  <anchor x="781.6" y="129.08" name="hook"/>
  <anchor x="371.88" y="1511.66" name="top"/>
  <outline>
    <contour>
      <point x="237.66" y="1472.4" type="line" name="n00"/>
      <point x="57.34" y="0" type="line" name="n01"/>
      <point x="232.7" y="0" type="line"/>
      <point x="413.02" y="1472.4" type="line"/>
    </contour>
    <contour>
      <point x="244.42" y="605.12" type="line"/>
      <point x="260.78" y="484.52" type="line"/>
      <point x="326.22" y="484.52" type="line" smooth="yes"/>
      <point x="363.3" y="484.52"/>
      <point x="376.22" y="478.52"/>
      <point x="392.06" y="450.04" type="curve"/>
      <point x="650.14" y="34.68" type="line"/>
      <point x="662.46" y="8.48"/>
      <point x="681.26" y="0"/>
      <point x="709.62" y="0" type="curve" smooth="yes"/>
      <point x="862.78" y="0" type="line"/>
      <point x="559.1" y="499.68" type="line"/>
      <point x="532.14" y="554.56"/>
      <point x="496.7" y="590.16"/>
      <point x="407.78" y="590.16" type="curve"/>
      <point x="401.62" y="534.8" type="line"/>
      <point x="473.9" y="534.8"/>
      <point x="524.78" y="562.4"/>
      <point x="570.7" y="615.12" type="curve"/>
      <point x="961.9" y="1012.4" type="line" name="n23"/>
      <point x="804.42" y="1012.4" type="line" smooth="yes"/>
      <point x="773.3" y="1012.4"/>
      <point x="753.58" y="999.92"/>
      <point x="734.94" y="976.96" type="curve"/>
      <point x="399.5" y="633.92" type="line"/>
      <point x="379.34" y="611.44"/>
      <point x="365.02" y="605.12"/>
      <point x="337.46" y="605.12" type="curve" smooth="yes"/>
    </contour>
  </outline>
  <guideline angle="82.9991" x="413" y="0"/>
</glyph>
<glyph name="l" format="2">
  <advance width="450.48"/>
  <unicode hex="006C"/>
  <guideline x="237.92000000000002" y="0.0" angle="82.9991"/>
  <anchor x="334.08" y="1511.66" name="Top"/>
  <anchor x="246.54000000000002" y="129.08" name="hook"/>
  <anchor x="141.3" y="-70.0" name="bottom"/>
  <anchor x="242.86" y="730.24" name="bar"/>
  <anchor x="334.08" y="1511.66" name="top"/>
  <outline>
    <contour>
      <point x="238.84" y="0.0" type="line"/>
      <point x="418.08000000000004" y="1472.4" type="line"/>
      <point x="242.72" y="1472.4" type="line"/>
      <point x="64.4" y="0.0" type="line"/>
    </contour>
  </outline>
</glyph>
<glyph name="m" format="2">
  <advance width="1574"/>
  <unicode hex="006D"/>
  <anchor x="685.2" y="-70" name="bottom"/>
  <anchor x="1340.5" y="129.08" name="hook"/>
  <anchor x="861.82" y="1120" name="top"/>
  <outline>
    <contour>
      <point x="233.16" y="0" type="line" name="n00"/>
      <point x="314.12" y="676.76" type="line"/>
      <point x="309.8" y="688.32" type="line"/>
      <point x="330.04" y="953.8" type="line"/>
      <point x="330.04" y="994.36"/>
      <point x="308.6" y="1014.24" name="n05"/>
      <point x="269.44" y="1014.24" type="curve" smooth="yes"/>
      <point x="181.2" y="1014.24" type="line"/>
      <point x="58.88" y="0" type="line"/>
    </contour>
    <contour>
      <point x="805.56" y="0" type="line"/>
      <point x="881.72" y="645.28" type="line"/>
      <point x="706.36" y="645.28" type="line"/>
      <point x="630.2" y="0" type="line"/>
    </contour>
    <contour>
      <point x="861.36" y="645.28" type="line"/>
      <point x="891.52" y="889.16"/>
      <point x="831.4" y="1027.48"/>
      <point x="668.04" y="1027.48" type="curve" smooth="yes" name="n16"/>
      <point x="493.6" y="1027.48"/>
      <point x="333.48" y="870.32"/>
      <point x="226.08" y="578.28" type="curve"/>
      <point x="283" y="487.32" type="line"/>
      <point x="356.56" y="731.32"/>
      <point x="472.92" y="880.04"/>
      <point x="607.72" y="880.04" type="curve" smooth="yes" name="n23"/>
      <point x="708.48" y="880.04"/>
      <point x="725.88" y="803.88"/>
      <point x="706.36" y="645.28" type="curve"/>
    </contour>
    <contour>
      <point x="1377.8" y="0" type="line"/>
      <point x="1453.96" y="645.28" type="line"/>
      <point x="1278.6" y="645.28" type="line"/>
      <point x="1202.44" y="0" type="line"/>
    </contour>
    <contour>
      <point x="1453.96" y="645.28" type="line"/>
      <point x="1484.12" y="889.16"/>
      <point x="1410.92" y="1027.48"/>
      <point x="1237.84" y="1027.48" type="curve" smooth="yes"/>
      <point x="1066.4" y="1027.48"/>
      <point x="907.4" y="894.24"/>
      <point x="802.92" y="606.8" type="curve"/>
      <point x="859.84" y="515.84" type="line"/>
      <point x="929.72" y="751.56"/>
      <point x="1055.28" y="880.04"/>
      <point x="1175.36" y="880.04" type="curve" smooth="yes"/>
      <point x="1275.2" y="880.04"/>
      <point x="1298.12" y="803.88"/>
      <point x="1278.6" y="645.28" type="curve"/>
    </contour>
  </outline>
  <guideline angle="82.9991" x="772" y="0"/>
</glyph>
<glyph name="n" format="2">
  <advance width="1059.76"/>
  <unicode hex="006E"/>
  <guideline x="530.54"/>
  <guideline x="100.0" y="0.0" angle="82.9991"/>
  <anchor x="587.08" y="1120.0" name="top"/>
  <anchor x="853.94" y="129.08" name="hook"/>
  <anchor x="456.68" y="-70.0" name="bottom"/>
  <outline>
    <contour>
      <point x="236.94" y="0.0" type="line"/>
      <point x="313.58000000000004" y="676.76" type="line"/>
      <point x="309.26" y="688.32" type="line"/>
      <point x="329.5" y="953.8" type="line"/>
      <point x="329.5" y="994.36"/>
      <point x="308.06" y="1014.24"/>
      <point x="268.9" y="1014.24" type="curve" smooth="yes"/>
      <point x="180.66" y="1014.24" type="line"/>
      <point x="59.419999999999995" y="0.0" type="line"/>
    </contour>
    <contour>
      <point x="864.1" y="0.0" type="line"/>
      <point x="940.26" y="645.28" type="line"/>
      <point x="762.74" y="645.28" type="line"/>
      <point x="686.58" y="0.0" type="line"/>
    </contour>
    <contour>
      <point x="940.26" y="645.28" type="line"/>
      <point x="970.42" y="889.16"/>
      <point x="878.02" y="1027.48"/>
      <point x="706.94" y="1027.48" type="curve" smooth="yes"/>
      <point x="521.7" y="1027.48"/>
      <point x="337.26" y="870.32"/>
      <point x="229.86" y="578.28" type="curve"/>
      <point x="286.78" y="487.32" type="line"/>
      <point x="357.58" y="724.88"/>
      <point x="509.18" y="880.04"/>
      <point x="641.22" y="880.04" type="curve" smooth="yes"/>
      <point x="745.38" y="880.04"/>
      <point x="782.26" y="803.88"/>
      <point x="762.74" y="645.28" type="curve"/>
    </contour>
  </outline>
</glyph>
<glyph name="o" format="2">
  <advance width="1037.52"/>
  <unicode hex="006F"/>
  <guideline x="502.74"/>
  <guideline x="100.0" y="0.0" angle="82.9991"/>
  <anchor x="596.14" y="1120.0" name="top"/>
  <anchor x="429.54" y="-70.0" name="bottom"/>
  <outline>
    <contour>
      <point x="452.52" y="124.64000000000001" type="curve"/>
      <point x="313.6" y="124.64000000000001"/>
      <point x="237.88" y="222.2"/>
      <point x="237.88" y="407.6" type="curve" smooth="yes"/>
      <point x="237.88" y="662.24"/>
      <point x="365.12" y="888.68"/>
      <point x="561.08" y="888.68" type="curve" smooth="yes"/>
      <point x="699.08" y="888.68"/>
      <point x="775.72" y="793.12"/>
      <point x="775.72" y="606.64" type="curve" smooth="yes"/>
      <point x="775.72" y="354.92"/>
      <point x="648.48" y="124.64000000000001"/>
    </contour>
    <contour>
      <point x="436.48" y="-14.16" type="curve"/>
      <point x="728.04" y="-14.16"/>
      <point x="954.16" y="269.32"/>
      <point x="954.16" y="607.72" type="curve" smooth="yes"/>
      <point x="954.16" y="872.4"/>
      <point x="798.08" y="1027.48"/>
      <point x="577.12" y="1027.48" type="curve" smooth="yes"/>
      <point x="285.56" y="1027.48"/>
      <point x="59.44" y="748.0"/>
      <point x="59.44" y="406.52" type="curve" smooth="yes"/>
      <point x="59.44" y="140.92"/>
      <point x="215.52" y="-14.16"/>
    </contour>
  </outline>
</glyph>
<glyph name="p" format="2">
  <advance width="1056.98"/>
  <unicode hex="0070"/>
  <guideline x="518.46" y="0.0" angle="82.9991"/>
  <anchor x="643.64" y="129.08" name="hook"/>
  <anchor x="126.58000000000001" y="-146.74" name="bar"/>
  <anchor x="616.58" y="95.30000000000001" name="tick"/>
  <anchor x="554.42" y="1120.0" name="top"/>
  <anchor x="338.74" y="-421.0" name="bottom"/>
  <outline>
    <contour>
      <point x="189.78" y="-342.72" type="line"/>
      <point x="312.74" y="661.12" type="line"/>
      <point x="308.42" y="672.6800000000001" type="line"/>
      <point x="330.5" y="953.8" type="line"/>
      <point x="330.5" y="994.36"/>
      <point x="309.06" y="1014.24"/>
      <point x="269.9" y="1014.24" type="curve" smooth="yes"/>
      <point x="181.66" y="1014.24" type="line"/>
      <point x="16.58" y="-342.72" type="line"/>
    </contour>
    <contour>
      <point x="210.14" y="151.92" type="line"/>
      <point x="263.22" y="47.84"/>
      <point x="363.18" y="-14.16"/>
      <point x="484.26" y="-14.16" type="curve" smooth="yes"/>
      <point x="764.98" y="-14.16"/>
      <point x="977.38" y="329.88"/>
      <point x="977.38" y="659.08" type="curve" smooth="yes"/>
      <point x="977.38" y="898.6"/>
      <point x="875.78" y="1027.48"/>
      <point x="703.94" y="1027.48" type="curve" smooth="yes"/>
      <point x="500.06" y="1027.48"/>
      <point x="315.3" y="814.56"/>
      <point x="217.46" y="523.96" type="curve"/>
      <point x="276.38" y="437.32" type="line"/>
      <point x="349.5" y="693.92"/>
      <point x="500.18" y="885.44"/>
      <point x="636.98" y="885.44" type="curve" smooth="yes"/>
      <point x="741.46" y="885.44"/>
      <point x="800.94" y="800.16"/>
      <point x="800.94" y="641.8" type="curve" smooth="yes"/>
      <point x="800.94" y="403.6"/>
      <point x="668.42" y="123.56"/>
      <point x="458.18" y="123.56" type="curve" smooth="yes"/>
      <point x="374.42" y="123.56"/>
      <point x="285.86" y="159.2"/>
      <point x="236.82" y="259.52" type="curve"/>
    </contour>
  </outline>
</glyph>
<glyph name="q" format="2">
  <advance width="1023"/>
  <unicode hex="0071"/>
  <anchor x="419.4" y="-421" name="bottom"/>
  <anchor x="655.32" y="1120" name="top"/>
  <outline>
    <contour>
      <point x="775.78" y="-342.72" type="line" name="n00"/>
      <point x="939.18" y="979.64" type="line"/>
      <point x="763.82" y="971" type="line"/>
      <point x="606.9" y="-267.68" type="line" smooth="yes"/>
      <point x="601.82" y="-305.4"/>
      <point x="615.38" y="-342.72"/>
      <point x="663.78" y="-342.72" type="curve" smooth="yes"/>
    </contour>
    <contour>
      <point x="939.18" y="979.64" type="line"/>
      <point x="860.5" y="1014.56"/>
      <point x="777.66" y="1026.56"/>
      <point x="691.62" y="1026.56" type="curve" smooth="yes" name="n10"/>
      <point x="333.62" y="1026.56"/>
      <point x="50.06" y="701.96"/>
      <point x="50.06" y="343.28" type="curve" smooth="yes"/>
      <point x="50.06" y="113.8"/>
      <point x="155.86" y="-14.16"/>
      <point x="315.98" y="-14.16" type="curve" smooth="yes" name="n16"/>
      <point x="520.78" y="-14.16"/>
      <point x="685.06" y="199.68"/>
      <point x="781.82" y="490.28" type="curve"/>
      <point x="722.9" y="582.32" type="line"/>
      <point x="650.86" y="325.72"/>
      <point x="520.82" y="133.28"/>
      <point x="382.94" y="133.28" type="curve" smooth="yes" name="n23"/>
      <point x="281.7" y="133.28"/>
      <point x="228.5" y="215.16"/>
      <point x="228.5" y="374.6" type="curve" smooth="yes"/>
      <point x="228.5" y="650.6"/>
      <point x="426.3" y="897.48"/>
      <point x="667.86" y="897.48" type="curve" smooth="yes" name="n29"/>
      <point x="726.14" y="897.48"/>
      <point x="787.38" y="887.8"/>
      <point x="843.54" y="861.36" type="curve"/>
    </contour>
  </outline>
  <guideline angle="82.9991" x="477" y="0"/>
</glyph>
<glyph name="r" format="2">
  <advance width="684.22"/>
  <unicode hex="0072"/>
  <guideline x="351.08" y="0.0" angle="82.9991"/>
  <anchor x="449.86" y="1120.0" name="top"/>
  <anchor x="131.72" y="-70.0" name="bottom"/>
  <anchor x="236.34" y="129.08" name="hook"/>
  <anchor x="202.48000000000002" y="500.14" name="bar"/>
  <outline>
    <contour>
      <point x="233.16000000000003" y="0.0" type="line"/>
      <point x="314.12" y="676.76" type="line"/>
      <point x="309.8" y="688.32" type="line"/>
      <point x="330.04" y="953.8" type="line"/>
      <point x="330.04" y="994.36"/>
      <point x="308.6" y="1014.24"/>
      <point x="269.44" y="1014.24" type="curve" smooth="yes"/>
      <point x="181.2" y="1014.24" type="line"/>
      <point x="58.879999999999995" y="0.0" type="line"/>
    </contour>
    <contour>
      <point x="272.2" y="398.76" type="line"/>
      <point x="353.04" y="765.0"/>
      <point x="494.52" y="906.88"/>
      <point x="679.88" y="832.72" type="curve"/>
      <point x="711.96" y="1003.0" type="line"/>
      <point x="511.32" y="1087.96"/>
      <point x="318.96" y="861.64"/>
      <point x="215.44" y="445.44" type="curve"/>
    </contour>
  </outline>
</glyph>
<glyph name="t" format="2">
  <advance width="709.22"/>
  <unicode hex="0074"/>
  <guideline x="342.92" y="0.0" angle="82.9991"/>
  <anchor x="314.58" y="-70.0" name="bottom"/>
  <anchor x="366.26" y="715.12" name="Slash"/>
  <anchor x="243.54" y="500.14" name="bar"/>
  <anchor x="403.36" y="1405.4" name="top"/>
  <outline>
    <contour>
      <point x="227.3" y="946.36" type="line"/>
      <point x="154.54" y="357.08" type="line" smooth="yes"/>
      <point x="139.46" y="233.2"/>
      <point x="138.54" y="207.52"/>
      <point x="138.54" y="190.28" type="curve" smooth="yes"/>
      <point x="141.78" y="56.84"/>
      <point x="220.62" y="-16.0"/>
      <point x="349.34000000000003" y="-16.0" type="curve" smooth="yes"/>
      <point x="433.38" y="-16.0"/>
      <point x="521.26" y="18.6"/>
      <point x="585.78" y="75.84" type="curve"/>
      <point x="548.14" y="160.84" type="line" smooth="yes"/>
      <point x="542.82" y="172.56"/>
      <point x="537.66" y="177.8"/>
      <point x="526.1" y="177.8" type="curve" smooth="yes"/>
      <point x="506.7" y="177.8"/>
      <point x="473.7" y="129.28"/>
      <point x="403.18" y="129.28" type="curve" smooth="yes"/>
      <point x="349.54" y="129.28"/>
      <point x="314.98" y="162.8"/>
      <point x="314.98" y="229.16000000000003" type="curve" smooth="yes"/>
      <point x="314.98" y="236.84"/>
      <point x="315.9" y="257.88"/>
      <point x="329.9" y="365.88" type="curve"/>
      <point x="450.34000000000003" y="1341.68" type="line"/>
      <point x="356.86" y="1341.68" type="line" smooth="yes"/>
      <point x="335.74" y="1341.68"/>
      <point x="321.02" y="1328.28"/>
      <point x="314.62" y="1308.24" type="curve"/>
    </contour>
    <contour>
      <point x="299.14" y="993.08" type="line"/>
      <point x="263.54" y="998.48" type="line"/>
      <point x="83.5" y="973.96" type="line"/>
      <point x="75.02" y="903.16" type="line"/>
      <point x="71.78" y="877.72"/>
      <point x="85.5" y="864.0"/>
      <point x="104.3" y="864.0" type="curve" smooth="yes"/>
      <point x="657.9" y="864.0" type="line"/>
      <point x="672.86" y="993.08" type="line"/>
    </contour>
  </outline>
</glyph>
<glyph name="u" format="2">
  <advance width="1059"/>
  <unicode hex="0075"/>
  <anchor x="489.56" y="-70" name="bottom"/>
  <anchor x="844.68" y="129.08" name="hook"/>
  <anchor x="582.72" y="1120" name="top"/>
  <outline>
    <contour>
      <point x="797.9" y="1012.4" type="line" name="n00"/>
      <point x="716.94" y="337.48" type="line"/>
      <point x="721.26" y="319.48" type="line"/>
      <point x="700.1" y="63.68" type="line"/>
      <point x="700.1" y="22.04"/>
      <point x="721.54" y="0" name="n05"/>
      <point x="765.02" y="0" type="curve" smooth="yes"/>
      <point x="853.1" y="0" type="line"/>
      <point x="975.42" y="1012.4" type="line"/>
    </contour>
    <contour>
      <point x="170.74" y="1012.4" type="line"/>
      <point x="94.58" y="368.96" type="line"/>
      <point x="272.1" y="368.96" type="line"/>
      <point x="348.26" y="1012.4" type="line"/>
    </contour>
    <contour>
      <point x="94.58" y="368.96" type="line"/>
      <point x="64.42" y="125.08"/>
      <point x="156.82" y="-14.16"/>
      <point x="327.9" y="-14.16" type="curve" smooth="yes" name="n16"/>
      <point x="513.14" y="-14.16"/>
      <point x="697.58" y="143.92"/>
      <point x="804.98" y="435.96" type="curve"/>
      <point x="748.06" y="526.92" type="line"/>
      <point x="677.26" y="289.36"/>
      <point x="525.66" y="133.28"/>
      <point x="393.62" y="133.28" type="curve" smooth="yes" name="n23"/>
      <point x="289.46" y="133.28"/>
      <point x="252.58" y="210.36"/>
      <point x="272.1" y="368.96" type="curve"/>
    </contour>
  </outline>
  <guideline angle="82.9991" x="498" y="0"/>
</glyph>
<glyph name="v" format="2">
  <advance width="957.78"/>
  <unicode hex="0076"/>
  <guideline x="476.44" y="0.0" angle="82.9991"/>
  <anchor x="545.02" y="129.08" name="hook"/>
  <anchor x="537.08" y="1120.0" name="top"/>
  <anchor x="401.0" y="-70.0" name="bottom"/>
  <outline>
    <contour>
      <point x="331.65999999999997" y="0.0" type="line"/>
      <point x="433.3" y="0.0" type="line"/>
      <point x="433.3" y="112.56"/>
      <point x="430.22" y="213.4"/>
      <point x="412.34000000000003" y="322.88" type="curve" smooth="yes"/>
      <point x="261.54" y="975.72" type="line"/>
      <point x="257.38" y="995.76"/>
      <point x="241.5" y="1012.4"/>
      <point x="214.22000000000003" y="1012.4" type="curve" smooth="yes"/>
      <point x="70.46" y="1012.4" type="line"/>
    </contour>
    <contour>
      <point x="988.1800000000001" y="1012.4" type="line"/>
      <point x="849.82" y="1012.4" type="line" smooth="yes"/>
      <point x="826.24" y="1012.4"/>
      <point x="805.74" y="996.68"/>
      <point x="796.34" y="975.72" type="curve" smooth="yes"/>
      <point x="482.78" y="322.88" type="line" smooth="yes"/>
      <point x="436.22" y="210.32000000000002"/>
      <point x="407.7" y="112.56"/>
      <point x="383.18" y="0.0" type="curve"/>
      <point x="480.5" y="0.0" type="line"/>
    </contour>
  </outline>
</glyph>
<glyph name="w" format="2">
  <advance width="1446"/>
  <unicode hex="0077"/>
  <anchor x="642.16" y="-70" name="bottom"/>
  <anchor x="773.7" y="1120" name="top"/>
  <outline>
    <contour>
      <point x="256.42" y="0" type="line" name="n00"/>
      <point x="386.3" y="0" type="line" smooth="yes"/>
      <point x="404.34" y="0"/>
      <point x="418.06" y="11.56"/>
      <point x="426.54" y="33.76" type="curve"/>
      <point x="719.3" y="721.12" type="line"/>
      <point x="749.98" y="796.52"/>
      <point x="769.1" y="871"/>
      <point x="783.9" y="946.4" type="curve"/>
      <point x="741.02" y="946.4" type="line"/>
      <point x="738.86" y="871"/>
      <point x="738.86" y="797.6"/>
      <point x="750.42" y="722.2" type="curve"/>
      <point x="873.34" y="33.76" type="line"/>
      <point x="876.58" y="10.48"/>
      <point x="887.06" y="0"/>
      <point x="902.78" y="0" type="curve" smooth="yes"/>
      <point x="1038.06" y="0" type="line"/>
      <point x="1462.82" y="1012.4" type="line" name="n18"/>
      <point x="1334.18" y="1012.4" type="line" smooth="yes"/>
      <point x="1311.06" y="1012.4"/>
      <point x="1289.94" y="996.68"/>
      <point x="1282.7" y="975.72" type="curve"/>
      <point x="1026.3" y="322.88" type="line"/>
      <point x="987.14" y="208.16"/>
      <point x="960.02" y="114.4"/>
      <point x="939.82" y="1.84" type="curve"/>
      <point x="987.78" y="0.92" type="line"/>
      <point x="994.26" y="113.48"/>
      <point x="983.62" y="212.32"/>
      <point x="967.74" y="322.88" type="curve"/>
      <point x="854.38" y="980.32" type="line"/>
      <point x="852.22" y="1000.36"/>
      <point x="836.18" y="1015.16" name="n33"/>
      <point x="810.74" y="1015.16" type="curve" smooth="yes"/>
      <point x="736.54" y="1015.16" type="line" smooth="yes"/>
      <point x="714.34" y="1015.16"/>
      <point x="694.14" y="1000.36"/>
      <point x="686.74" y="980.32" type="curve"/>
      <point x="409.7" y="322.88" type="line"/>
      <point x="365.14" y="211.24"/>
      <point x="327.98" y="114.4"/>
      <point x="303.46" y="1.84" type="curve"/>
      <point x="356.98" y="1.84" type="line"/>
      <point x="362.38" y="114.4"/>
      <point x="360.38" y="211.24"/>
      <point x="352.06" y="322.88" type="curve"/>
      <point x="258.58" y="975.72" type="line"/>
      <point x="254.42" y="997.6"/>
      <point x="237.46" y="1012.4"/>
      <point x="211.26" y="1012.4" type="curve" smooth="yes"/>
      <point x="78.14" y="1012.4" type="line"/>
    </contour>
  </outline>
  <guideline angle="82.9991" x="657" y="0"/>
</glyph>
<glyph name="x" format="2">
  <advance width="928"/>
  <unicode hex="0078"/>
  <anchor x="384.6" y="-70" name="bottom"/>
  <anchor x="758.3" y="129.08" name="hook"/>
  <anchor x="523.92" y="1120" name="top"/>
  <outline>
    <contour>
      <point x="360.9" y="517.24" type="line"/>
      <point x="536.1" y="517.24" type="line"/>
      <point x="306.02" y="988.2" type="line" smooth="yes"/>
      <point x="297.7" y="1006.08"/>
      <point x="288.3" y="1012.4" name="n04"/>
      <point x="262.1" y="1012.4" type="curve" smooth="yes"/>
      <point x="103.22" y="1012.4" type="line"/>
    </contour>
    <contour>
      <point x="932.34" y="1012.4" type="line"/>
      <point x="771.78" y="1012.4" type="line" smooth="yes"/>
      <point x="753.9" y="1012.4"/>
      <point x="741.26" y="1003.92"/>
      <point x="729.7" y="984.96" type="curve"/>
      <point x="500.78" y="681" type="line"/>
      <point x="463.78" y="627.96"/>
      <point x="455.46" y="581.08"/>
      <point x="445.9" y="517.24" type="curve"/>
      <point x="549.54" y="517.24" type="line"/>
    </contour>
    <contour>
      <point x="556.02" y="572.44" type="line"/>
      <point x="379.74" y="572.44" type="line"/>
      <point x="632.42" y="34.84" type="line"/>
      <point x="640.74" y="14.96"/>
      <point x="655.38" y="0" name="n21"/>
      <point x="681.58" y="0" type="curve" smooth="yes"/>
      <point x="840.46" y="0" type="line"/>
    </contour>
    <contour>
      <point x="-63.26" y="0" type="line"/>
      <point x="92.06" y="0" type="line" smooth="yes"/>
      <point x="116.26" y="0"/>
      <point x="131.06" y="16.04"/>
      <point x="144.62" y="33.92" type="curve" smooth="yes"/>
      <point x="420.62" y="402.2" type="line"/>
      <point x="450.06" y="444.44"/>
      <point x="463.94" y="507.68"/>
      <point x="474.42" y="572.44" type="curve"/>
      <point x="367.38" y="572.44" type="line"/>
    </contour>
  </outline>
  <guideline angle="82.9991" x="391" y="0"/>
</glyph>
<glyph name="y" format="2">
  <advance width="958.62"/>
  <unicode hex="0079"/>
  <guideline x="476.44" y="0.0" angle="82.9991"/>
  <anchor x="557.66" y="1120.0" name="top"/>
  <anchor x="283.64" y="-421.0" name="bottom"/>
  <outline>
    <contour>
      <point x="350.7" y="3.6799999999999997" type="line"/>
      <point x="442.62" y="3.6799999999999997" type="line"/>
      <point x="448.02" y="117.32000000000001"/>
      <point x="452.5" y="230.04000000000002"/>
      <point x="429.22" y="336.28000000000003" type="curve" smooth="yes"/>
      <point x="265.62" y="975.72" type="line"/>
      <point x="260.38" y="996.52"/>
      <point x="247.74" y="1012.4"/>
      <point x="219.38" y="1012.4" type="curve" smooth="yes"/>
      <point x="72.38" y="1012.4" type="line"/>
    </contour>
    <contour>
      <point x="992.1" y="1012.4" type="line"/>
      <point x="850.66" y="1012.4" type="line" smooth="yes"/>
      <point x="830.62" y="1012.4"/>
      <point x="809.5" y="998.52"/>
      <point x="799.02" y="977.56" type="curve" smooth="yes"/>
      <point x="479.14" y="337.36" type="line" smooth="yes"/>
      <point x="449.7" y="273.08000000000004"/>
      <point x="420.26" y="206.8"/>
      <point x="405.46" y="141.44" type="curve"/>
      <point x="364.74" y="113.80000000000001" type="line"/>
      <point x="115.38" y="-342.72" type="line"/>
      <point x="246.18" y="-342.72" type="line" smooth="yes"/>
      <point x="274.54" y="-342.72"/>
      <point x="293.5" y="-330.08"/>
      <point x="308.14" y="-301.88" type="curve" smooth="yes"/>
    </contour>
  </outline>
</glyph>
<glyph name="z" format="2">
  <advance width="848"/>
  <unicode hex="007A"/>
  <anchor x="334.64" y="-70" name="bottom"/>
  <anchor x="654" y="129.08" name="hook"/>
  <anchor x="500.12" y="1120" name="top"/>
  <outline>
    <contour>
      <point x="835.76" y="1012.4" type="line"/>
      <point x="133.88" y="1012.4" type="line" name="n01"/>
      <point x="116.92" y="873.6" type="line" name="n02"/>
      <point x="662.56" y="873.6" type="line"/>
      <point x="622" y="890.4" type="line"/>
      <point x="21.2" y="137.72" type="line" smooth="yes"/>
      <point x="4.24" y="117.52"/>
      <point x="-8.4" y="90.84"/>
      <point x="-9.48" y="74.04" type="curve"/>
      <point x="-18.12" y="0" type="line"/>
      <point x="695.32" y="0" type="line" name="n10"/>
      <point x="711.36" y="138.8" type="line" name="n11"/>
      <point x="152" y="138.8" type="line"/>
      <point x="194.72" y="117.84" type="line"/>
      <point x="795.52" y="869.44" type="line" smooth="yes"/>
      <point x="810.7" y="887.86"/>
      <point x="824.04" y="912"/>
      <point x="826.2" y="937.6" type="curve"/>
    </contour>
  </outline>
  <guideline angle="82.9991" x="410" y="0"/>
</glyph>
<glyph name="braceleft" format="2">
  <advance width="568"/>
  <unicode hex="007B"/>
  <outline>
    <contour>
      <point x="226.46" y="917.68" type="curve" smooth="yes"/>
      <point x="226.46" y="753.96"/>
      <point x="177.02" y="674.56"/>
      <point x="79.02" y="674.56" type="curve"/>
      <point x="66.22" y="571.4" type="line"/>
      <point x="147.46" y="615.04" type="line"/>
      <point x="258.82" y="615.04"/>
      <point x="360.78" y="704.04"/>
      <point x="369.42" y="851.96" type="curve"/>
      <point x="376.98" y="959.08"/>
      <point x="363.3" y="1073.68"/>
      <point x="373.02" y="1197.76" type="curve"/>
      <point x="379.5" y="1339.28"/>
      <point x="449.7" y="1419.2"/>
      <point x="548.7" y="1419.2" type="curve" smooth="yes" name="n14"/>
      <point x="566.02" y="1419.2" type="line" smooth="yes"/>
      <point x="580.5" y="1419.2"/>
      <point x="606.1" y="1429.68"/>
      <point x="609.18" y="1455.12" type="curve" smooth="yes"/>
      <point x="617.82" y="1532.24" type="line"/>
      <point x="569.06" y="1532.24" type="line" smooth="yes" name="n20"/>
      <point x="339.74" y="1532.24"/>
      <point x="217.1" y="1380.64"/>
      <point x="217.1" y="1123.24" type="curve" smooth="yes"/>
      <point x="217.1" y="1063.96"/>
      <point x="226.46" y="975.88"/>
    </contour>
    <contour>
      <point x="174.9" y="453" type="curve" smooth="yes"/>
      <point x="174.9" y="295.04"/>
      <point x="73.42" y="157.2"/>
      <point x="73.42" y="-20.16" type="curve" smooth="yes"/>
      <point x="73.42" y="-174.4"/>
      <point x="162.54" y="-286.28"/>
      <point x="345.34" y="-286.28" type="curve" smooth="yes" name="n32"/>
      <point x="395.18" y="-286.28" type="line"/>
      <point x="404.74" y="-210.24" type="line" smooth="yes"/>
      <point x="407.98" y="-184.8"/>
      <point x="385.62" y="-173.24"/>
      <point x="370.98" y="-173.24" type="curve" smooth="yes"/>
      <point x="352.74" y="-173.24" type="line" smooth="yes" name="n38"/>
      <point x="271.26" y="-173.24"/>
      <point x="223.94" y="-110.68"/>
      <point x="223.94" y="-17.84" type="curve" smooth="yes"/>
      <point x="223.94" y="149.2"/>
      <point x="319.1" y="292.24"/>
      <point x="319.1" y="450.68" type="curve" smooth="yes"/>
      <point x="319.1" y="553.92"/>
      <point x="248.66" y="629.84"/>
      <point x="149.62" y="629.84" type="curve"/>
      <point x="79.02" y="674.56" type="line"/>
      <point x="66.22" y="571.4" type="line"/>
      <point x="136.34" y="571.4"/>
      <point x="174.9" y="522.04"/>
    </contour>
  </outline>
  <guideline angle="0" x="0" y="630"/>
  <guideline angle="82.9991" x="276" y="0"/>
</glyph>
<glyph name="bar" format="2">
  <advance width="516.6800000000001"/>
  <unicode hex="007C"/>
  <guideline x="300.0" y="0.0" angle="82.9991"/>
  <outline>
    <contour>
      <point x="187.51999999999998" y="-342.72" type="line"/>
      <point x="326.32" y="-342.72" type="line"/>
      <point x="326.32" y="1533.32" type="line"/>
      <point x="187.51999999999998" y="1533.32" type="line"/>
    </contour>
  </outline>
</glyph>
<glyph name="braceright" format="2">
  <advance width="568.84"/>
  <unicode hex="007D"/>
  <guideline y="630.54"/>
  <guideline x="276.0" y="0.0" angle="82.9991"/>
  <outline>
    <contour>
      <point x="399.08000000000004" y="792.96" type="curve"/>
      <point x="399.08000000000004" y="949.84"/>
      <point x="498.56" y="1088.76"/>
      <point x="498.56" y="1265.04" type="curve" smooth="yes"/>
      <point x="498.56" y="1420.36"/>
      <point x="409.44" y="1532.24"/>
      <point x="227.72" y="1532.24" type="curve" smooth="yes"/>
      <point x="177.88" y="1532.24" type="line"/>
      <point x="169.24" y="1455.12" type="line"/>
      <point x="165.07999999999998" y="1429.68"/>
      <point x="187.44" y="1419.2"/>
      <point x="203.0" y="1419.2" type="curve" smooth="yes"/>
      <point x="220.32" y="1419.2" type="line" smooth="yes"/>
      <point x="301.8" y="1419.2"/>
      <point x="349.12" y="1356.64"/>
      <point x="349.12" y="1263.8" type="curve" smooth="yes"/>
      <point x="349.12" y="1096.76"/>
      <point x="252.88" y="952.64"/>
      <point x="252.88" y="795.28" type="curve" smooth="yes"/>
      <point x="252.88" y="690.96"/>
      <point x="323.32" y="615.04"/>
      <point x="424.36" y="615.04" type="curve"/>
      <point x="494.04" y="571.4" type="line"/>
      <point x="506.68" y="674.56" type="line"/>
      <point x="435.64" y="674.56"/>
      <point x="399.08000000000004" y="723.92"/>
    </contour>
    <contour>
      <point x="346.6" y="327.2" type="curve"/>
      <point x="346.6" y="492.0"/>
      <point x="396.96" y="571.4"/>
      <point x="494.04" y="571.4" type="curve"/>
      <point x="506.68" y="674.56" type="line"/>
      <point x="425.44" y="629.84" type="line"/>
      <point x="314.24" y="629.84"/>
      <point x="212.12" y="540.84"/>
      <point x="204.56" y="392.92" type="curve" smooth="yes"/>
      <point x="197.0" y="286.88"/>
      <point x="209.76" y="171.2"/>
      <point x="200.04" y="48.199999999999996" type="curve" smooth="yes"/>
      <point x="193.56" y="-93.32"/>
      <point x="123.36" y="-173.24"/>
      <point x="24.36" y="-173.24" type="curve" smooth="yes"/>
      <point x="7.040000000000001" y="-173.24" type="line" smooth="yes"/>
      <point x="-8.52" y="-173.24"/>
      <point x="-33.04" y="-184.8"/>
      <point x="-35.2" y="-210.24" type="curve"/>
      <point x="-45.84" y="-286.28" type="line"/>
      <point x="4.0" y="-286.28" type="line" smooth="yes"/>
      <point x="232.24" y="-286.28"/>
      <point x="354.88" y="-134.68"/>
      <point x="354.88" y="122.72" type="curve" smooth="yes"/>
      <point x="354.88" y="182.0"/>
      <point x="346.6" y="270.08"/>
    </contour>
  </outline>
</glyph>
<glyph name="asciitilde" format="2">
  <advance width="1160.0"/>
  <unicode hex="007E"/>
  <guideline x="580.0" y="0.0" angle="82.9991"/>
  <outline>
    <contour>
      <point x="759.74" y="612.24" type="curve"/>
      <point x="661.98" y="612.24"/>
      <point x="527.46" y="717.36"/>
      <point x="388.22" y="717.36" type="curve"/>
      <point x="216.1" y="717.36"/>
      <point x="116.18" y="592.84"/>
      <point x="116.18" y="414.2" type="curve"/>
      <point x="260.38" y="414.2" type="line"/>
      <point x="261.3" y="507.84"/>
      <point x="312.94" y="569.92"/>
      <point x="399.02" y="569.92" type="curve" smooth="yes"/>
      <point x="496.78" y="569.92"/>
      <point x="631.3" y="464.8"/>
      <point x="770.54" y="464.8" type="curve"/>
      <point x="942.66" y="464.8"/>
      <point x="1042.58" y="589.32"/>
      <point x="1042.58" y="767.96" type="curve"/>
      <point x="898.38" y="767.96" type="line"/>
      <point x="897.46" y="674.32"/>
      <point x="845.8199999999999" y="612.24"/>
    </contour>
  </outline>
</glyph>
<glyph name="exclamdown" format="2">
  <advance width="470"/>
  <unicode hex="00A1"/>
  <outline>
    <contour>
      <point x="48.64" y="-343.8" type="line" name="n00"/>
      <point x="115.56" y="198" type="line"/>
      <point x="129.56" y="318.16"/>
      <point x="150.52" y="419"/>
      <point x="178.4" y="558.64" type="curve"/>
      <point x="282.12" y="558.64" type="line"/>
      <point x="276.32" y="419"/>
      <point x="270.8" y="318.16"/>
      <point x="255.72" y="198" type="curve" smooth="yes"/>
      <point x="189.88" y="-343.8" type="line"/>
    </contour>
    <contour>
      <point x="144.08" y="903" type="curve" smooth="yes"/>
      <point x="144.08" y="832.44"/>
      <point x="198" y="778.52"/>
      <point x="268.56" y="778.52" type="curve" smooth="yes" name="n13"/>
      <point x="338.04" y="778.52"/>
      <point x="393.96" y="832.44"/>
      <point x="393.96" y="903" type="curve" smooth="yes"/>
      <point x="393.96" y="972.48"/>
      <point x="338.04" y="1028.4"/>
      <point x="268.56" y="1028.4" type="curve" smooth="yes" name="n19"/>
      <point x="198" y="1028.4"/>
      <point x="144.08" y="972.48"/>
    </contour>
  </outline>
  <guideline angle="90" x="281" y="0"/>
  <guideline angle="82.9991" x="100" y="0"/>
</glyph>
<glyph name="cent" format="2">
  <advance width="1160.0"/>
  <unicode hex="00A2"/>
  <guideline x="580.0" y="0.0" angle="82.9991"/>
  <outline>
    <contour>
      <point x="1047.06" y="897.24" type="line"/>
      <point x="969.02" y="977.76"/>
      <point x="858.06" y="1026.24"/>
      <point x="706.46" y="1026.24" type="curve" smooth="yes"/>
      <point x="342.98" y="1026.24"/>
      <point x="123.1" y="774.04"/>
      <point x="123.1" y="430.52" type="curve" smooth="yes"/>
      <point x="123.1" y="153.4"/>
      <point x="297.02" y="-14.16"/>
      <point x="548.26" y="-14.16" type="curve" smooth="yes"/>
      <point x="710.86" y="-14.16"/>
      <point x="869.22" y="36.4"/>
      <point x="967.98" y="139.76" type="curve"/>
      <point x="928.34" y="199.92000000000002" type="line" smooth="yes"/>
      <point x="922.02" y="209.48000000000002"/>
      <point x="912.3" y="214.72"/>
      <point x="897.5" y="214.72" type="curve" smooth="yes"/>
      <point x="853.42" y="214.72"/>
      <point x="785.66" y="117.08000000000001"/>
      <point x="588.06" y="117.08000000000001" type="curve" smooth="yes"/>
      <point x="403.42" y="117.08000000000001"/>
      <point x="292.9" y="235.76"/>
      <point x="292.9" y="439.0" type="curve" smooth="yes"/>
      <point x="292.9" y="717.12"/>
      <point x="434.58" y="895.0"/>
      <point x="695.82" y="895.0" type="curve" smooth="yes"/>
      <point x="865.74" y="895.0"/>
      <point x="918.94" y="817.04"/>
      <point x="956.54" y="817.04" type="curve" smooth="yes"/>
      <point x="974.58" y="817.04"/>
      <point x="984.14" y="823.36"/>
      <point x="995.7" y="837.24" type="curve"/>
    </contour>
    <contour>
      <point x="445.65999999999997" y="-236.68" type="line"/>
      <point x="509.66" y="-236.68" type="line" smooth="yes"/>
      <point x="537.1" y="-236.68"/>
      <point x="558.38" y="-214.48"/>
      <point x="563.62" y="-189.36" type="curve"/>
      <point x="837.74" y="1253.88" type="line"/>
      <point x="773.74" y="1253.88" type="line" smooth="yes"/>
      <point x="746.3" y="1253.88"/>
      <point x="725.02" y="1230.6"/>
      <point x="719.78" y="1206.56" type="curve"/>
    </contour>
  </outline>
</glyph>
<glyph name="sterling" format="2">
  <advance width="1160.0"/>
  <unicode hex="00A3"/>
  <guideline x="580.0" y="0.0" angle="82.9991"/>
  <outline>
    <contour>
      <point x="1057.48" y="148.36" type="line"/>
      <point x="372.04" y="148.36" type="line" smooth="yes"/>
      <point x="282.8" y="148.36"/>
      <point x="195.24" y="124.60000000000001"/>
      <point x="105.24000000000001" y="92.68" type="curve"/>
      <point x="13.479999999999997" y="111.64" type="line"/>
      <point x="-0.4000000000000057" y="0.0" type="line"/>
      <point x="964.8" y="0.0" type="line" smooth="yes"/>
      <point x="1009.52" y="0.0"/>
      <point x="1044.52" y="40.56"/>
      <point x="1048.84" y="75.72" type="curve" smooth="yes"/>
    </contour>
    <contour>
      <point x="874.82" y="661.08" type="curve"/>
      <point x="882.38" y="730.64" type="line"/>
      <point x="118.74000000000001" y="730.64" type="line"/>
      <point x="88.22" y="730.64"/>
      <point x="66.4" y="708.28"/>
      <point x="63.239999999999995" y="685.16" type="curve" smooth="yes"/>
      <point x="54.68" y="615.6" type="line"/>
      <point x="818.86" y="615.6" type="line"/>
      <point x="849.38" y="615.6"/>
      <point x="871.74" y="637.96"/>
    </contour>
    <contour>
      <point x="156.92000000000002" y="70.48" type="line"/>
      <point x="284.48" y="141.0"/>
      <point x="347.02" y="216.88"/>
      <point x="364.48" y="358.56" type="curve" smooth="yes"/>
      <point x="441.68" y="997.4" type="line" smooth="yes"/>
      <point x="464.2" y="1181.56"/>
      <point x="582.32" y="1300.96"/>
      <point x="754.28" y="1300.96" type="curve" smooth="yes"/>
      <point x="893.48" y="1300.96"/>
      <point x="935.28" y="1245.08"/>
      <point x="979.6" y="1169.6" type="curve" smooth="yes"/>
      <point x="1001.96" y="1140.16"/>
      <point x="1031.88" y="1139.24"/>
      <point x="1065.8" y="1155.28" type="curve"/>
      <point x="1140.6" y="1199.4" type="line"/>
      <point x="1092.72" y="1339.92"/>
      <point x="993.44" y="1447.32"/>
      <point x="771.4" y="1447.32" type="curve" smooth="yes"/>
      <point x="480.84" y="1447.32"/>
      <point x="296.48" y="1246.64"/>
      <point x="265.4" y="996.32" type="curve" smooth="yes"/>
      <point x="181.72" y="313.2" type="line"/>
      <point x="166.04" y="189.44"/>
      <point x="108.08" y="139.60000000000002"/>
      <point x="13.479999999999997" y="111.64" type="curve"/>
    </contour>
  </outline>
</glyph>
<glyph name="currency" format="2">
  <advance width="1160.0"/>
  <unicode hex="00A4"/>
  <guideline x="580.0" y="0.0" angle="82.9991"/>
  <outline>
    <contour>
      <point x="226.24" y="672.16" type="curve" smooth="yes"/>
      <point x="226.24" y="473.96"/>
      <point x="385.04" y="315.15999999999997"/>
      <point x="583.24" y="315.15999999999997" type="curve" smooth="yes"/>
      <point x="781.28" y="315.15999999999997"/>
      <point x="941.16" y="473.96"/>
      <point x="941.16" y="672.16" type="curve" smooth="yes"/>
      <point x="941.16" y="871.28"/>
      <point x="781.28" y="1030.08"/>
      <point x="583.24" y="1030.08" type="curve" smooth="yes"/>
      <point x="385.04" y="1030.08"/>
      <point x="226.24" y="871.28"/>
    </contour>
    <contour>
      <point x="358.56" y="672.16" type="curve"/>
      <point x="358.56" y="797.72"/>
      <point x="459.68" y="898.84"/>
      <point x="583.24" y="898.84" type="curve" smooth="yes"/>
      <point x="708.8" y="898.84"/>
      <point x="809.92" y="797.72"/>
      <point x="809.92" y="672.16" type="curve" smooth="yes"/>
      <point x="809.92" y="549.6800000000001"/>
      <point x="708.8" y="447.48"/>
      <point x="583.24" y="447.48" type="curve" smooth="yes"/>
      <point x="459.68" y="447.48"/>
      <point x="358.56" y="549.6800000000001"/>
    </contour>
    <contour>
      <point x="333.04" y="829.52" type="line"/>
      <point x="423.72" y="919.12" type="line"/>
      <point x="226.24" y="1116.6" type="line"/>
      <point x="135.56" y="1027.0" type="line"/>
    </contour>
    <contour>
      <point x="740.6" y="922.36" type="line"/>
      <point x="830.2" y="831.68" type="line"/>
      <point x="1027.68" y="1029.16" type="line"/>
      <point x="938.08" y="1119.84" type="line"/>
    </contour>
    <contour>
      <point x="426.96000000000004" y="421.96" type="line"/>
      <point x="336.28" y="512.64" type="line"/>
      <point x="138.8" y="315.16" type="line"/>
      <point x="228.4" y="224.48" type="line"/>
    </contour>
    <contour>
      <point x="833.44" y="515.88" type="line"/>
      <point x="742.76" y="425.2" type="line"/>
      <point x="940.24" y="227.72" type="line"/>
      <point x="1030.92" y="318.4" type="line"/>
    </contour>
  </outline>
</glyph>
<glyph name="yen" format="2">
  <advance width="1160"/>
  <unicode hex="00A5"/>
  <outline>
    <contour>
      <point x="1205.68" y="1431.32" type="line" name="n00"/>
      <point x="1060.4" y="1431.32" type="line" smooth="yes"/>
      <point x="1028.48" y="1431.32"/>
      <point x="1005.04" y="1410.96"/>
      <point x="991.48" y="1387.68" type="curve" smooth="yes"/>
      <point x="640.36" y="813.72" type="line"/>
      <point x="590.4" y="719.96"/>
      <point x="572.68" y="658.12"/>
      <point x="554.04" y="556.36" type="curve"/>
      <point x="653.04" y="556.36" type="line"/>
    </contour>
    <contour>
      <point x="485.08" y="556.36" type="line"/>
      <point x="589.48" y="556.36" type="line"/>
      <point x="597.2" y="659.2"/>
      <point x="590.28" y="718.88"/>
      <point x="562.68" y="813.72" type="curve"/>
      <point x="351.28" y="1387.68" type="line"/>
      <point x="343.88" y="1414.2"/>
      <point x="324.76" y="1431.32"/>
      <point x="292.84" y="1431.32" type="curve" smooth="yes"/>
      <point x="148.64" y="1431.32" type="line"/>
    </contour>
    <contour>
      <point x="662.44" y="609.08" type="line"/>
      <point x="489.4" y="609.08" type="line"/>
      <point x="415.4" y="0" type="line" name="n22"/>
      <point x="587.36" y="0" type="line"/>
    </contour>
    <contour>
      <point x="111.64" y="321.2" type="line" name="n24"/>
      <point x="968.88" y="321.2" type="line"/>
      <point x="980.6" y="420.04" type="line"/>
      <point x="124.44" y="420.04" type="line" name="n27"/>
    </contour>
    <contour>
      <point x="137.2" y="525.36" type="line" name="n28"/>
      <point x="994.44" y="525.36" type="line"/>
      <point x="1006.16" y="624.2" type="line"/>
      <point x="148.92" y="624.2" type="line" name="n31"/>
    </contour>
  </outline>
  <guideline angle="82.9991" x="580" y="0"/>
</glyph>
<glyph name="brokenbar" format="2">
  <advance width="516"/>
  <unicode hex="00A6"/>
  <outline>
    <contour>
      <point x="186.98" y="738.92" type="line"/>
      <point x="325.78" y="738.92" type="line"/>
      <point x="325.78" y="1533.32" type="line" name="n02"/>
      <point x="186.98" y="1533.32" type="line"/>
    </contour>
    <contour>
      <point x="186.98" y="-342.72" type="line" name="n04"/>
      <point x="325.78" y="-342.72" type="line"/>
      <point x="325.78" y="451.68" type="line"/>
      <point x="186.98" y="451.68" type="line"/>
    </contour>
  </outline>
  <guideline angle="82.9991" x="300" y="0"/>
</glyph>
<glyph name="section" format="2">
  <advance width="924.34"/>
  <unicode hex="00A7"/>
  <guideline x="463.32" y="0.0" angle="82.9991"/>
  <outline>
    <contour>
      <point x="447.8" y="970.6" type="line"/>
      <point x="213.04" y="941.0"/>
      <point x="105.68" y="821.56"/>
      <point x="105.68" y="668.36" type="curve" smooth="yes"/>
      <point x="105.68" y="371.84"/>
      <point x="577.88" y="405.12"/>
      <point x="577.88" y="187.88" type="curve" smooth="yes"/>
      <point x="577.88" y="79.4"/>
      <point x="498.44" y="-2.5999999999999943"/>
      <point x="364.92" y="-2.5999999999999943" type="curve" smooth="yes"/>
      <point x="211.6" y="-2.5999999999999943"/>
      <point x="181.8" y="87.96000000000001"/>
      <point x="134.96" y="87.96000000000001" type="curve" smooth="yes"/>
      <point x="111.68" y="87.96000000000001"/>
      <point x="97.8" y="79.48"/>
      <point x="86.24" y="62.52000000000001" type="curve" smooth="yes"/>
      <point x="38.12" y="-2.879999999999999" type="line"/>
      <point x="102.12" y="-74.88"/>
      <point x="206.84" y="-125.2"/>
      <point x="335.92" y="-125.2" type="curve" smooth="yes"/>
      <point x="586.36" y="-125.2"/>
      <point x="732.72" y="32.52"/>
      <point x="732.72" y="228.6" type="curve" smooth="yes"/>
      <point x="732.72" y="517.08"/>
      <point x="262.68" y="506.76"/>
      <point x="262.68" y="711.24" type="curve" smooth="yes"/>
      <point x="262.68" y="791.48"/>
      <point x="307.72" y="849.72"/>
      <point x="437.6" y="899.36" type="curve"/>
    </contour>
    <contour>
      <point x="874.12" y="1329.72" type="line"/>
      <point x="812.28" y="1402.04"/>
      <point x="717.44" y="1446.24"/>
      <point x="595.84" y="1446.24" type="curve" smooth="yes"/>
      <point x="363.68" y="1446.24"/>
      <point x="222.28" y="1293.56"/>
      <point x="222.28" y="1120.4" type="curve" smooth="yes"/>
      <point x="222.28" y="819.08"/>
      <point x="679.6" y="850.0"/>
      <point x="679.6" y="629.56" type="curve" smooth="yes"/>
      <point x="679.6" y="544.56"/>
      <point x="634.08" y="476.92"/>
      <point x="515.2" y="439.6" type="curve"/>
      <point x="500.2" y="366.2" type="line"/>
      <point x="732.52" y="392.12"/>
      <point x="835.52" y="519.0"/>
      <point x="835.52" y="678.92" type="curve" smooth="yes"/>
      <point x="835.52" y="966.44"/>
      <point x="377.12" y="964.96"/>
      <point x="377.12" y="1148.16" type="curve" smooth="yes"/>
      <point x="377.12" y="1239.12"/>
      <point x="457.92" y="1318.24"/>
      <point x="582.12" y="1318.24" type="curve" smooth="yes"/>
      <point x="709.56" y="1318.24"/>
      <point x="751.56" y="1245.36"/>
      <point x="791.0" y="1245.36" type="curve" smooth="yes"/>
      <point x="806.88" y="1245.36"/>
      <point x="818.44" y="1251.68"/>
      <point x="829.08" y="1267.56" type="curve"/>
    </contour>
  </outline>
</glyph>
<glyph name="dieresis" format="2">
  <advance width="736.0"/>
  <unicode hex="00A8"/>
  <guideline x="368.0" y="0.0" angle="82.9991"/>
  <anchor x="443.2" y="1120.0" name="_top"/>
  <anchor x="470.2" y="1430.78" name="top"/>
  <outline>
    <contour>
      <point x="446.84000000000003" y="1288.64" type="curve" smooth="yes"/>
      <point x="446.84000000000003" y="1351.04"/>
      <point x="394.0" y="1402.96"/>
      <point x="332.52" y="1402.96" type="curve" smooth="yes"/>
      <point x="273.36" y="1402.96"/>
      <point x="221.44" y="1351.04"/>
      <point x="221.44" y="1288.64" type="curve" smooth="yes"/>
      <point x="221.44" y="1228.24"/>
      <point x="273.36" y="1178.48"/>
      <point x="332.52" y="1178.48" type="curve" smooth="yes"/>
      <point x="394.0" y="1178.48"/>
      <point x="446.84000000000003" y="1228.24"/>
    </contour>
    <contour>
      <point x="807.76" y="1288.64" type="curve" smooth="yes"/>
      <point x="807.76" y="1351.04"/>
      <point x="756.0" y="1402.96"/>
      <point x="694.52" y="1402.96" type="curve" smooth="yes"/>
      <point x="633.2" y="1402.96"/>
      <point x="582.36" y="1351.04"/>
      <point x="582.36" y="1288.64" type="curve" smooth="yes"/>
      <point x="582.36" y="1228.24"/>
      <point x="633.2" y="1178.48"/>
      <point x="694.52" y="1178.48" type="curve" smooth="yes"/>
      <point x="756.0" y="1178.48"/>
      <point x="807.76" y="1228.24"/>
    </contour>
  </outline>
</glyph>
<glyph name="copyright" format="2">
  <advance width="1661.92"/>
  <unicode hex="00A9"/>
  <guideline x="772.94" y="0.0" angle="82.9991"/>
  <outline>
    <contour>
      <point x="1100.08" y="473.64" type="curve"/>
      <point x="1034.28" y="441.44"/>
      <point x="995.16" y="394.8"/>
      <point x="857.2" y="394.8" type="curve" smooth="yes"/>
      <point x="691.4" y="394.8"/>
      <point x="570.32" y="511.76"/>
      <point x="570.32" y="718.36" type="curve" smooth="yes"/>
      <point x="570.32" y="917.72"/>
      <point x="688.16" y="1042.84"/>
      <point x="875.52" y="1042.84" type="curve" smooth="yes"/>
      <point x="1032.16" y="1042.84"/>
      <point x="1068.84" y="970.28"/>
      <point x="1105.36" y="970.28" type="curve" smooth="yes"/>
      <point x="1121.24" y="970.28"/>
      <point x="1131.72" y="980.0"/>
      <point x="1138.04" y="988.3199999999999" type="curve"/>
      <point x="1184.16" y="1052.64" type="line"/>
      <point x="1107.88" y="1127.12"/>
      <point x="1011.52" y="1176.24"/>
      <point x="866.88" y="1176.24" type="curve" smooth="yes"/>
      <point x="605.2" y="1176.24"/>
      <point x="411.32" y="987.6"/>
      <point x="411.32" y="718.36" type="curve" smooth="yes"/>
      <point x="411.32" y="451.92"/>
      <point x="586.84" y="260.32"/>
      <point x="848.56" y="260.32" type="curve" smooth="yes"/>
      <point x="1002.4" y="260.32"/>
      <point x="1111.36" y="311.4"/>
      <point x="1187.04" y="398.68" type="curve"/>
      <point x="1126.44" y="462.68" type="line"/>
      <point x="1120.12" y="469.16"/>
      <point x="1110.56" y="474.56"/>
    </contour>
    <contour>
      <point x="113.75999999999999" y="716.2" type="curve" smooth="yes"/>
      <point x="113.75999999999999" y="313.56"/>
      <point x="441.32" y="-14.0"/>
      <point x="843.96" y="-14.0" type="curve" smooth="yes"/>
      <point x="1247.68" y="-14.0"/>
      <point x="1575.24" y="313.56"/>
      <point x="1575.24" y="716.2" type="curve" smooth="yes"/>
      <point x="1575.24" y="1119.92"/>
      <point x="1247.68" y="1447.48"/>
      <point x="843.96" y="1447.48" type="curve" smooth="yes"/>
      <point x="441.32" y="1447.48"/>
      <point x="113.75999999999999" y="1119.92"/>
    </contour>
    <contour>
      <point x="214.44" y="716.2" type="curve" smooth="yes"/>
      <point x="214.44" y="1074.44"/>
      <point x="492.2" y="1360.68"/>
      <point x="843.96" y="1360.68" type="curve" smooth="yes"/>
      <point x="1196.8" y="1360.68"/>
      <point x="1477.64" y="1074.44"/>
      <point x="1477.64" y="716.2" type="curve" smooth="yes"/>
      <point x="1477.64" y="359.04"/>
      <point x="1196.8" y="75.88000000000001"/>
      <point x="843.96" y="75.88000000000001" type="curve" smooth="yes"/>
      <point x="492.2" y="75.88000000000001"/>
      <point x="214.44" y="359.04"/>
    </contour>
  </outline>
</glyph>
<glyph name="ordfeminine" format="2">
  <advance width="685"/>
  <unicode hex="00AA"/>
  <anchor x="325.68" y="-70" name="bottom"/>
  <outline>
    <contour>
      <point x="454.56" y="1448.72" type="curve" smooth="yes" name="n00"/>
      <point x="364.52" y="1448.72"/>
      <point x="285.08" y="1418.72"/>
      <point x="213.2" y="1353.32" type="curve"/>
      <point x="230.32" y="1312.76" type="line"/>
      <point x="236.64" y="1301.04"/>
      <point x="246.2" y="1289.32"/>
      <point x="264.24" y="1289.32" type="curve" smooth="yes"/>
      <point x="305.08" y="1289.32"/>
      <point x="335.48" y="1346.64"/>
      <point x="426.8" y="1346.64" type="curve" smooth="yes" name="n10"/>
      <point x="498.88" y="1346.64"/>
      <point x="521.12" y="1297.28"/>
      <point x="513.76" y="1220.8" type="curve"/>
      <point x="636.2" y="1220.8" type="line"/>
      <point x="651.12" y="1342.08"/>
      <point x="585.04" y="1448.72"/>
    </contour>
    <contour>
      <point x="589.12" y="840.16" type="line"/>
      <point x="636.2" y="1220.8" type="line"/>
      <point x="513.76" y="1220.8" type="line"/>
      <point x="482.84" y="958.2" type="line"/>
      <point x="492.12" y="867.44" type="line"/>
      <point x="500.6" y="845.4"/>
      <point x="508.16" y="840.16"/>
      <point x="531.44" y="840.16" type="curve" smooth="yes"/>
    </contour>
    <contour>
      <point x="510.28" y="937.52" type="curve"/>
      <point x="510.28" y="937.52"/>
      <point x="504.12" y="1009.52"/>
      <point x="504.12" y="1009.52" type="curve"/>
      <point x="448.76" y="953.84"/>
      <point x="402.36" y="919.28"/>
      <point x="333.84" y="919.28" type="curve" smooth="yes" name="n31"/>
      <point x="290.96" y="919.28"/>
      <point x="259.64" y="938.32"/>
      <point x="259.64" y="984.24" type="curve" smooth="yes"/>
      <point x="259.64" y="1055.68"/>
      <point x="329.04" y="1099.64"/>
      <point x="517.64" y="1103.32" type="curve" name="n37"/>
      <point x="511" y="1182.72" type="line" name="n38"/>
      <point x="228.04" y="1176.56"/>
      <point x="138.28" y="1073.56"/>
      <point x="138.28" y="968.36" type="curve" smooth="yes"/>
      <point x="138.28" y="878.04"/>
      <point x="199.04" y="831.24"/>
      <point x="284.48" y="831.24" type="curve" smooth="yes" name="n44"/>
      <point x="377.08" y="831.24"/>
      <point x="433.2" y="868.76"/>
    </contour>
  </outline>
  <guideline angle="82.9991" x="304" y="0"/>
</glyph>
<glyph name="logicalnot" format="2">
  <advance width="1160.0"/>
  <unicode hex="00AC"/>
  <guideline x="580.0" y="0.0" angle="82.9991"/>
  <outline>
    <contour>
      <point x="150.04" y="606.0" type="line"/>
      <point x="1007.12" y="606.0" type="line"/>
      <point x="1023.16" y="736.16" type="line"/>
      <point x="165.0" y="736.16" type="line"/>
    </contour>
    <contour>
      <point x="825.08" y="317.88" type="line"/>
      <point x="971.28" y="317.88" type="line"/>
      <point x="1023.16" y="736.16" type="line"/>
      <point x="876.96" y="736.16" type="line"/>
    </contour>
  </outline>
</glyph>
<glyph name="registered" format="2">
  <advance width="1662"/>
  <unicode hex="00AE"/>
  <outline>
    <contour>
      <point x="780.16" y="626.76" type="line" smooth="yes"/>
      <point x="814.92" y="626.76"/>
      <point x="830.16" y="617.84"/>
      <point x="840.16" y="599.36" type="curve"/>
      <point x="1041.64" y="297.16" type="line"/>
      <point x="1051.96" y="279.44"/>
      <point x="1067.84" y="271.88"/>
      <point x="1090.04" y="271.88" type="curve" smooth="yes"/>
      <point x="1238.56" y="271.88" type="line"/>
      <point x="1010.4" y="606.16" type="line"/>
      <point x="979.76" y="660.24"/>
      <point x="946.64" y="687.68"/>
      <point x="862.52" y="687.68" type="curve"/>
      <point x="807.4" y="653.76" type="line"/>
      <point x="837.44" y="653.76" type="line" smooth="yes" name="n14"/>
      <point x="1057.72" y="653.76"/>
      <point x="1170" y="762.12"/>
      <point x="1170" y="916.76" type="curve" smooth="yes"/>
      <point x="1170" y="1078.64"/>
      <point x="1060.6" y="1163.76"/>
      <point x="832.16" y="1163.76" type="curve" smooth="yes" name="n20"/>
      <point x="544.56" y="1163.76" type="line"/>
      <point x="544.56" y="271.88" type="line"/>
      <point x="700.32" y="271.88" type="line"/>
      <point x="700.32" y="1044.4" type="line"/>
      <point x="832.16" y="1044.4" type="line" smooth="yes" name="n25"/>
      <point x="970.52" y="1044.4"/>
      <point x="1016.4" y="997.36"/>
      <point x="1016.4" y="897.32" type="curve" smooth="yes"/>
      <point x="1016.4" y="796.04"/>
      <point x="964.08" y="739.64"/>
      <point x="815.84" y="739.64" type="curve" smooth="yes" name="n31"/>
      <point x="655.16" y="739.64" type="line"/>
      <point x="650.84" y="626.76" type="line"/>
    </contour>
    <contour>
      <point x="113.76" y="716.2" type="curve" smooth="yes"/>
      <point x="113.76" y="313.56"/>
      <point x="441.32" y="-14"/>
      <point x="843.96" y="-14" type="curve" smooth="yes" name="n37"/>
      <point x="1247.68" y="-14"/>
      <point x="1575.24" y="313.56"/>
      <point x="1575.24" y="716.2" type="curve" smooth="yes"/>
      <point x="1575.24" y="1119.92"/>
      <point x="1247.68" y="1447.48"/>
      <point x="843.96" y="1447.48" type="curve" smooth="yes" name="n43"/>
      <point x="441.32" y="1447.48"/>
      <point x="113.76" y="1119.92"/>
    </contour>
    <contour>
      <point x="214.44" y="716.2" type="curve" smooth="yes"/>
      <point x="214.44" y="1074.44"/>
      <point x="492.2" y="1360.68"/>
      <point x="843.96" y="1360.68" type="curve" smooth="yes" name="n49"/>
      <point x="1196.8" y="1360.68"/>
      <point x="1477.64" y="1074.44"/>
      <point x="1477.64" y="716.2" type="curve" smooth="yes"/>
      <point x="1477.64" y="359.04"/>
      <point x="1196.8" y="75.88"/>
      <point x="843.96" y="75.88" type="curve" smooth="yes" name="n55"/>
      <point x="492.2" y="75.88"/>
      <point x="214.44" y="359.04"/>
    </contour>
  </outline>
  <guideline angle="82.9991" x="794" y="0"/>
</glyph>
<glyph name="macron" format="2">
  <advance width="736.0"/>
  <unicode hex="00AF"/>
  <unicode hex="02C9"/>
  <guideline x="368.0" y="0.0" angle="82.9991"/>
  <anchor x="400.0" y="1120.0" name="_top"/>
  <outline>
    <contour>
      <point x="242.38" y="1231.12" type="line"/>
      <point x="770.52" y="1231.12" type="line"/>
      <point x="784.32" y="1347.24" type="line"/>
      <point x="255.64" y="1347.24" type="line"/>
    </contour>
  </outline>
</glyph>
<glyph name="degree" format="2">
  <advance width="820"/>
  <unicode hex="00B0"/>
  <outline>
    <contour>
      <point x="145.8" y="1128.12" type="curve" smooth="yes"/>
      <point x="145.8" y="952.52"/>
      <point x="290" y="806.92"/>
      <point x="470.24" y="806.92" type="curve" smooth="yes" name="n03"/>
      <point x="653.24" y="806.92"/>
      <point x="796.68" y="952.52"/>
      <point x="796.68" y="1128.12" type="curve" smooth="yes"/>
      <point x="796.68" y="1306.96"/>
      <point x="653.24" y="1449.48"/>
      <point x="470.24" y="1449.48" type="curve" smooth="yes" name="n09"/>
      <point x="290" y="1449.48"/>
      <point x="145.8" y="1306.96"/>
    </contour>
    <contour>
      <point x="270.56" y="1127.04" type="curve" smooth="yes"/>
      <point x="270.56" y="1239.88"/>
      <point x="357.4" y="1329.04"/>
      <point x="470.24" y="1329.04" type="curve" smooth="yes" name="n15"/>
      <point x="583.08" y="1329.04"/>
      <point x="669" y="1239.88"/>
      <point x="669" y="1127.04" type="curve" smooth="yes"/>
      <point x="669" y="1015.28"/>
      <point x="583.08" y="927.2"/>
      <point x="470.24" y="927.2" type="curve" smooth="yes" name="n21"/>
      <point x="357.4" y="927.2"/>
      <point x="270.56" y="1015.28"/>
    </contour>
  </outline>
  <guideline angle="82.9991" x="374" y="0"/>
</glyph>
<glyph name="plusminus" format="2">
  <advance width="1160.0"/>
  <unicode hex="00B1"/>
  <guideline x="580.0" y="0.0" angle="82.9991"/>
  <outline>
    <contour>
      <point x="115.72" y="689.16" type="line"/>
      <point x="1072.28" y="689.16" type="line"/>
      <point x="1088.32" y="819.32" type="line"/>
      <point x="130.68" y="819.32" type="line"/>
    </contour>
    <contour>
      <point x="585.16" y="1198.56" type="line"/>
      <point x="477.15999999999997" y="318.72" type="line"/>
      <point x="617.04" y="318.72" type="line"/>
      <point x="725.04" y="1198.56" type="line"/>
    </contour>
    <contour>
      <point x="40.48" y="80.0" type="line"/>
      <point x="997.04" y="80.0" type="line"/>
      <point x="1013.08" y="210.16000000000003" type="line"/>
      <point x="55.44" y="210.16000000000003" type="line"/>
    </contour>
  </outline>
</glyph>
<glyph name="acute" format="2">
  <advance width="736.0"/>
  <unicode hex="00B4"/>
  <guideline x="368.0" y="0.0" angle="82.9991"/>
  <anchor x="400.0" y="1120.0" name="_top"/>
  <outline>
    <contour>
      <point x="639.1" y="1448.4" type="line" smooth="yes"/>
      <point x="599.12" y="1448.4"/>
      <point x="580.86" y="1434.68"/>
      <point x="561.38" y="1404.8" type="curve" smooth="yes"/>
      <point x="397.88" y="1163.4" type="line"/>
      <point x="496.2" y="1163.4" type="line" smooth="yes"/>
      <point x="521.1800000000001" y="1163.4"/>
      <point x="536.36" y="1170.8"/>
      <point x="554.94" y="1190.84" type="curve"/>
      <point x="799.1800000000001" y="1448.4" type="line"/>
    </contour>
  </outline>
</glyph>
<glyph name="micro" format="2">
  <advance width="1213"/>
  <unicode hex="00B5"/>
  <anchor x="526.64" y="-421" name="bottom"/>
  <anchor x="630.36" y="1120" name="top"/>
  <outline>
    <contour>
      <point x="228.9" y="1012.4" type="line" name="n00"/>
      <point x="71.38" y="-267" type="line" smooth="yes"/>
      <point x="65.98" y="-315.12"/>
      <point x="91.12" y="-342.72" name="n03"/>
      <point x="141.24" y="-342.72" type="curve" smooth="yes"/>
      <point x="229.92" y="-342.72" type="line"/>
      <point x="264.12" y="-63.44" type="line" smooth="yes"/>
      <point x="273.66" y="14.12"/>
      <point x="279.8" y="122.6"/>
      <point x="262.04" y="189.36" type="curve"/>
      <point x="310.62" y="224.32" type="line"/>
      <point x="407.34" y="1012.4" type="line"/>
    </contour>
    <contour>
      <point x="227.4" y="399.52" type="line"/>
      <point x="196.78" y="152.4"/>
      <point x="265.38" y="5.6" name="n14"/>
      <point x="459.98" y="5.6" type="curve" smooth="yes"/>
      <point x="598.34" y="5.6"/>
      <point x="716.04" y="104.7"/>
      <point x="811.56" y="266.52" type="curve"/>
      <point x="770.68" y="368.28" type="line"/>
      <point x="702.1" y="233.4"/>
      <point x="606.52" y="151.96"/>
      <point x="488.9" y="151.96" type="curve" smooth="yes"/>
      <point x="363.46" y="151.96"/>
      <point x="313.06" y="247.4"/>
      <point x="331.5" y="399.52" type="curve"/>
    </contour>
    <contour>
      <point x="747.72" y="285.96" type="line"/>
      <point x="763.84" y="274.5" type="line"/>
      <point x="740.52" y="77.76"/>
      <point x="835.4" y="-9.62"/>
      <point x="957.92" y="-9.62" type="curve" smooth="yes" name="n30"/>
      <point x="1032.28" y="-9.62"/>
      <point x="1079.3" y="20.76"/>
      <point x="1083.54" y="51.68" type="curve" smooth="yes"/>
      <point x="1092.1" y="123.24" type="line"/>
      <point x="1035.32" y="123.24" type="line" smooth="yes" name="n35"/>
      <point x="957.64" y="123.24"/>
      <point x="912.48" y="170.36"/>
      <point x="925.16" y="273.96" type="curve" smooth="yes"/>
      <point x="1015.84" y="1012.4" type="line"/>
      <point x="837.4" y="1012.4" type="line"/>
    </contour>
  </outline>
  <guideline angle="82.9991" x="536" y="0"/>
</glyph>
<glyph name="paragraph" format="2">
  <advance width="1391"/>
  <unicode hex="00B6"/>
  <outline>
    <contour>
      <point x="771.1" y="1432.4" type="line"/>
      <point x="614.26" y="1432.4" type="line"/>
      <point x="413.78" y="-200.52" type="line" name="n02"/>
      <point x="570.62" y="-200.52" type="line"/>
    </contour>
    <contour>
      <point x="614.26" y="1432.4" type="line" smooth="yes"/>
      <point x="314.54" y="1432.4"/>
      <point x="114.5" y="1244.12"/>
      <point x="114.5" y="1003.6" type="curve" smooth="yes"/>
      <point x="114.5" y="798.8"/>
      <point x="272.82" y="660.72"/>
      <point x="520.38" y="660.72" type="curve"/>
      <point x="634.74" y="1280.8" type="line"/>
      <point x="1405.9" y="1280.8" type="line" name="n12"/>
      <point x="1424.1" y="1432.4" type="line" name="n13"/>
    </contour>
    <contour>
      <point x="1204.9" y="1432.4" type="line"/>
      <point x="1048.06" y="1432.4" type="line"/>
      <point x="847.58" y="-200.52" type="line"/>
      <point x="1004.42" y="-200.52" type="line"/>
    </contour>
  </outline>
  <guideline angle="82.9991" x="600" y="0"/>
</glyph>
<glyph name="periodcentered" format="2">
  <advance width="514"/>
  <unicode hex="00B7"/>
  <unicode hex="2219"/>
  <outline>
    <contour>
      <point x="104.7" y="593.24" type="curve" smooth="yes"/>
      <point x="104.7" y="512.48"/>
      <point x="171.58" y="445.6"/>
      <point x="252.34" y="445.6" type="curve" smooth="yes" name="n03"/>
      <point x="336.02" y="445.6"/>
      <point x="402.9" y="512.48"/>
      <point x="402.9" y="593.24" type="curve" smooth="yes"/>
      <point x="402.9" y="676.92"/>
      <point x="336.02" y="743.8"/>
      <point x="252.34" y="743.8" type="curve" smooth="yes" name="n09"/>
      <point x="171.58" y="743.8"/>
      <point x="104.7" y="676.92"/>
    </contour>
  </outline>
  <guideline angle="82.9991" x="260" y="0"/>
</glyph>
<glyph name="cedilla" format="2">
  <advance width="736.0"/>
  <unicode hex="00B8"/>
  <guideline x="368.0" y="0.0" angle="82.9991"/>
  <anchor x="400.0" y="-70.0" name="_bottom"/>
  <outline>
    <contour>
      <point x="228.62" y="-252.8" type="curve" smooth="yes"/>
      <point x="215.98" y="-252.8"/>
      <point x="209.12" y="-259.12"/>
      <point x="204.04" y="-270.68" type="curve"/>
      <point x="180.14" y="-325.44" type="line"/>
      <point x="216.02" y="-344.64"/>
      <point x="261.46" y="-356.92"/>
      <point x="311.0" y="-356.92" type="curve" smooth="yes"/>
      <point x="439.88" y="-356.92"/>
      <point x="533.64" y="-299.28"/>
      <point x="533.64" y="-202.4" type="curve" smooth="yes"/>
      <point x="533.64" y="-131.64"/>
      <point x="477.06" y="-87.74"/>
      <point x="342.66" y="-66.96" type="curve"/>
      <point x="379.2" y="-102.12" type="line"/>
      <point x="428.36" y="24.840000000000003" type="line"/>
      <point x="327.65999999999997" y="24.840000000000003" type="line"/>
      <point x="257.38" y="-136.8" type="line"/>
      <point x="343.6" y="-148.88"/>
      <point x="392.84" y="-163.02"/>
      <point x="392.84" y="-209.1" type="curve" smooth="yes"/>
      <point x="392.84" y="-247.86"/>
      <point x="363.9" y="-276.28"/>
      <point x="310.9" y="-276.28" type="curve" smooth="yes"/>
      <point x="261.46" y="-276.28"/>
      <point x="243.94" y="-252.8"/>
    </contour>
  </outline>
</glyph>
<glyph name="ordmasculine" format="2">
  <advance width="751"/>
  <unicode hex="00BA"/>
  <anchor x="358.9" y="-70" name="bottom"/>
  <outline>
    <contour>
      <point x="478.08" y="1447.64" type="curve" smooth="yes" name="n00"/>
      <point x="285.12" y="1447.64"/>
      <point x="149.96" y="1308.56"/>
      <point x="149.96" y="1091.76" type="curve" smooth="yes"/>
      <point x="149.96" y="930.64"/>
      <point x="245.56" y="828.16"/>
      <point x="402.84" y="828.16" type="curve" smooth="yes" name="n06"/>
      <point x="594.88" y="828.16"/>
      <point x="727.88" y="967.4"/>
      <point x="727.88" y="1185.28" type="curve" smooth="yes"/>
      <point x="727.88" y="1344.24"/>
      <point x="633.36" y="1447.64"/>
    </contour>
    <contour>
      <point x="415.64" y="930.56" type="curve" smooth="yes"/>
      <point x="326.84" y="930.56"/>
      <point x="284.44" y="990.16"/>
      <point x="284.44" y="1089.6" type="curve" smooth="yes"/>
      <point x="284.44" y="1240.56"/>
      <point x="334.32" y="1345.24"/>
      <point x="466.36" y="1345.24" type="curve" smooth="yes"/>
      <point x="551" y="1345.24"/>
      <point x="594.32" y="1284.72"/>
      <point x="594.32" y="1185.28" type="curve" smooth="yes"/>
      <point x="594.32" y="1028.92"/>
      <point x="535.96" y="930.56"/>
    </contour>
  </outline>
  <guideline angle="82.9991" x="338" y="0"/>
</glyph>
<glyph name="questiondown" format="2">
  <advance width="816"/>
  <unicode hex="00BF"/>
  <outline>
    <component base="period" xScale="1" xOffset="320.88" yOffset="793.44"/>
    <contour>
      <point x="611.06" y="-140.68" type="line"/>
      <point x="604.74" y="-126.8"/>
      <point x="593.94" y="-119.4"/>
      <point x="578.06" y="-119.4" type="curve" smooth="yes"/>
      <point x="547.54" y="-119.4"/>
      <point x="477.62" y="-216.08"/>
      <point x="329.54" y="-216.08" type="curve" smooth="yes" name="n06"/>
      <point x="241.5" y="-216.08"/>
      <point x="166.22" y="-156.16"/>
      <point x="166.22" y="-46.88" type="curve" smooth="yes"/>
      <point x="166.22" y="190.72"/>
      <point x="480.9" y="212.16"/>
      <point x="490.1" y="391.12" type="curve" smooth="yes"/>
      <point x="499.3" y="558.64" type="line" name="n13"/>
      <point x="382.7" y="558.64" type="line"/>
      <point x="346.06" y="403.92" type="line" smooth="yes"/>
      <point x="312.18" y="260.72"/>
      <point x="-5.74" y="246.4"/>
      <point x="-5.74" y="-78.04" type="curve" smooth="yes"/>
      <point x="-5.74" y="-250.24"/>
      <point x="118.42" y="-357.04"/>
      <point x="298.38" y="-357.04" type="curve" smooth="yes" name="n21"/>
      <point x="447.82" y="-357.04"/>
      <point x="560.94" y="-289.04"/>
      <point x="648.38" y="-213.48" type="curve"/>
    </contour>
  </outline>
  <guideline angle="82.9991" x="320" y="0"/>
</glyph>
<glyph name="AE" format="2">
  <advance width="1735"/>
  <unicode hex="00C6"/>
  <anchor x="1279.04" y="1511.66" name="Top"/>
  <anchor x="741.06" y="-70" name="bottom"/>
  <anchor x="1279.04" y="1511.66" name="top"/>
  <outline>
    <contour>
      <point x="-66" y="0" type="line"/>
      <point x="79.44" y="0" type="line" smooth="yes"/>
      <point x="111.36" y="0"/>
      <point x="138.96" y="21.28"/>
      <point x="152.68" y="44.56" type="curve" smooth="yes"/>
      <point x="801.48" y="1152.12" type="line" smooth="yes"/>
      <point x="844.32" y="1225.48"/>
      <point x="879.16" y="1317.08"/>
      <point x="914" y="1432.4" type="curve"/>
      <point x="794.32" y="1432.4" type="line"/>
    </contour>
    <contour>
      <point x="274.96" y="395.92" type="line" name="n10"/>
      <point x="990.84" y="395.92" type="line"/>
      <point x="1006.88" y="530.4" type="line"/>
      <point x="292.08" y="530.4" type="line" name="n13"/>
    </contour>
    <contour>
      <point x="1038.16" y="1432.4" type="line"/>
      <point x="861.72" y="1432.4" type="line"/>
      <point x="861.72" y="0" type="line"/>
      <point x="1038.16" y="0" type="line"/>
    </contour>
    <contour>
      <point x="1024" y="795.44" type="line" name="n18"/>
      <point x="1006.88" y="649.24" type="line" name="n19"/>
      <point x="1531.68" y="649.24" type="line"/>
      <point x="1549.72" y="795.44" type="line"/>
    </contour>
    <contour>
      <point x="1001" y="1432.4" type="line" name="n22"/>
      <point x="982.8" y="1280.8" type="line" name="n23"/>
      <point x="1730" y="1280.8" type="line"/>
      <point x="1748.2" y="1432.4" type="line"/>
    </contour>
    <contour>
      <point x="984.64" y="151.6" type="line" name="n26"/>
      <point x="966.44" y="0" type="line" name="n27"/>
      <point x="1571.88" y="0" type="line"/>
      <point x="1591.92" y="151.6" type="line"/>
    </contour>
  </outline>
  <guideline angle="82.9991" x="846" y="0"/>
</glyph>
<glyph name="multiply" format="2">
  <advance width="1160"/>
  <unicode hex="00D7"/>
  <outline>
    <contour>
      <point x="191.88" y="1018.04" type="line"/>
      <point x="890.04" y="223.72" type="line"/>
      <point x="991.52" y="315.48" type="line"/>
      <point x="295.2" y="1110.72" type="line" name="n03"/>
    </contour>
    <contour>
      <point x="987.12" y="1108.72" type="line"/>
      <point x="94.8" y="313.48" type="line"/>
      <point x="174.84" y="221.72" type="line" name="n06"/>
      <point x="1068.08" y="1016.04" type="line"/>
    </contour>
  </outline>
  <guideline angle="82.9991" x="580" y="0"/>
</glyph>
<glyph name="Oslash" format="2">
  <advance width="1491"/>
  <unicode hex="00D8"/>
  <anchor x="863.6" y="1511.66" name="Top"/>
  <anchor x="592.94" y="-70" name="bottom"/>
  <anchor x="863.6" y="1511.66" name="top"/>
  <outline>
    <contour>
      <point x="1469.4" y="1496.4" type="line" name="n00"/>
      <point x="1373.32" y="1496.4" type="line" smooth="yes"/>
      <point x="1330.92" y="1496.4"/>
      <point x="1317.2" y="1482.68"/>
      <point x="1286.52" y="1447.68" type="curve"/>
      <point x="46.12" y="-108.48" type="line" name="n05"/>
      <point x="120.76" y="-108.48" type="line" smooth="yes"/>
      <point x="156.84" y="-108.48"/>
      <point x="199.4" y="-93.68"/>
      <point x="232.24" y="-55.44" type="curve"/>
    </contour>
    <contour>
      <point x="1420.44" y="818.32" type="curve" smooth="yes"/>
      <point x="1420.44" y="1183.24"/>
      <point x="1201.16" y="1448.4"/>
      <point x="849.52" y="1448.4" type="curve" smooth="yes" name="n13"/>
      <point x="420.64" y="1448.4"/>
      <point x="98.12" y="1100.64"/>
      <point x="98.12" y="613" type="curve" smooth="yes"/>
      <point x="98.12" y="248.08"/>
      <point x="317.4" y="-15.08"/>
      <point x="669.2" y="-15.08" type="curve" smooth="yes" name="n19"/>
      <point x="1099.76" y="-15.08"/>
      <point x="1420.44" y="330.84"/>
    </contour>
    <contour>
      <point x="1228.12" y="814" type="curve" smooth="yes"/>
      <point x="1228.12" y="402.72"/>
      <point x="1008" y="141"/>
      <point x="689.56" y="141" type="curve" smooth="yes" name="n25"/>
      <point x="442.16" y="141"/>
      <point x="289.52" y="327.2"/>
      <point x="289.52" y="618.24" type="curve" smooth="yes"/>
      <point x="289.52" y="1028.6"/>
      <point x="512.24" y="1292.32"/>
      <point x="827" y="1292.32" type="curve" smooth="yes" name="n31"/>
      <point x="1075.16" y="1292.32"/>
      <point x="1228.12" y="1105.04"/>
    </contour>
  </outline>
  <guideline angle="82.9991" x="732" y="0"/>
</glyph>
<glyph name="Thorn" format="2">
  <advance width="1121"/>
  <unicode hex="00DE"/>
  <anchor x="459.28" y="1511.66" name="Top"/>
  <anchor x="185.86" y="-70" name="bottom"/>
  <anchor x="459.28" y="1511.66" name="top"/>
  <outline>
    <contour>
      <point x="460.26" y="1432.4" type="line" name="n00"/>
      <point x="273.18" y="1432.4" type="line"/>
      <point x="97.94" y="0" type="line" name="n02"/>
      <point x="283.94" y="0" type="line"/>
    </contour>
    <contour>
      <point x="364.74" y="1018.6" type="line" name="n04"/>
      <point x="616.98" y="1018.6" type="line" smooth="yes"/>
      <point x="803.42" y="1018.6"/>
      <point x="892.86" y="925.12"/>
      <point x="892.86" y="770.96" type="curve" smooth="yes"/>
      <point x="892.86" y="567.56"/>
      <point x="769.98" y="420.6"/>
      <point x="544.42" y="420.6" type="curve" smooth="yes" name="n11"/>
      <point x="273.82" y="420.6" type="line"/>
      <point x="239.58" y="273.16" type="line"/>
      <point x="526.22" y="273.16" type="line" smooth="yes" name="n14"/>
      <point x="879.82" y="273.16"/>
      <point x="1081.02" y="487.08"/>
      <point x="1081.02" y="787.92" type="curve" smooth="yes"/>
      <point x="1081.02" y="1015.32"/>
      <point x="938.7" y="1164.96"/>
      <point x="636.1" y="1164.96" type="curve" smooth="yes"/>
      <point x="367.82" y="1164.96" type="line" name="n21"/>
    </contour>
  </outline>
  <guideline angle="82.9991" x="533" y="0"/>
</glyph>
<glyph name="germandbls" format="2">
  <advance width="1157.98"/>
  <unicode hex="00DF"/>
  <guideline x="548.58" y="0.0" angle="82.9991"/>
  <anchor x="720.36" y="1511.66" name="Top"/>
  <anchor x="720.36" y="1511.66" name="top"/>
  <anchor x="478.46000000000004" y="-421.0" name="bottom"/>
  <outline>
    <contour>
      <point x="755.56" y="1452.88" type="curve" smooth="yes"/>
      <point x="480.76" y="1452.88"/>
      <point x="269.15999999999997" y="1186.88"/>
      <point x="234.07999999999998" y="911.0" type="curve"/>
      <point x="92.4" y="-248.76" type="line"/>
      <point x="162.28" y="-248.76" type="line" smooth="yes"/>
      <point x="212.72" y="-248.76"/>
      <point x="239.24" y="-221.92"/>
      <point x="254.2" y="-174.12" type="curve"/>
      <point x="300.84000000000003" y="32.68" type="line"/>
      <point x="408.2" y="905.6" type="line" smooth="yes"/>
      <point x="435.72" y="1133.16"/>
      <point x="566.16" y="1325.96"/>
      <point x="732.12" y="1325.96" type="curve" smooth="yes"/>
      <point x="871.68" y="1325.96"/>
      <point x="923.2" y="1237.48"/>
      <point x="923.2" y="1160.72" type="curve" smooth="yes"/>
      <point x="923.2" y="936.4"/>
      <point x="590.56" y="932.76"/>
      <point x="590.56" y="683.56" type="curve" smooth="yes"/>
      <point x="590.56" y="461.2"/>
      <point x="898.96" y="500.44"/>
      <point x="898.96" y="307.08" type="curve" smooth="yes"/>
      <point x="898.96" y="195.08"/>
      <point x="819.6800000000001" y="106.60000000000001"/>
      <point x="706.52" y="106.60000000000001" type="curve" smooth="yes"/>
      <point x="579.12" y="106.60000000000001"/>
      <point x="544.08" y="198.24"/>
      <point x="498.16" y="198.24" type="curve" smooth="yes"/>
      <point x="475.96000000000004" y="198.24"/>
      <point x="461.0" y="188.68"/>
      <point x="449.44" y="172.8" type="curve" smooth="yes"/>
      <point x="401.32" y="107.4" type="line"/>
      <point x="466.4" y="35.4"/>
      <point x="559.4" y="-16.0"/>
      <point x="677.52" y="-16.0" type="curve" smooth="yes"/>
      <point x="887.08" y="-16.0"/>
      <point x="1063.52" y="123.36"/>
      <point x="1063.52" y="353.2" type="curve" smooth="yes"/>
      <point x="1063.52" y="613.8"/>
      <point x="774.56" y="593.52"/>
      <point x="774.56" y="733.08" type="curve" smooth="yes"/>
      <point x="774.56" y="884.04"/>
      <point x="1089.0" y="896.0"/>
      <point x="1089.0" y="1167.8" type="curve" smooth="yes"/>
      <point x="1089.0" y="1293.2"/>
      <point x="992.24" y="1452.88"/>
    </contour>
    <contour>
      <point x="347.12" y="866.16" type="line"/>
      <point x="363.16" y="990.92" type="line"/>
      <point x="86.12" y="990.92" type="line"/>
      <point x="78.56" y="920.28" type="line"/>
      <point x="74.4" y="894.68"/>
      <point x="91.36" y="882.04"/>
      <point x="118.8" y="876.64" type="curve"/>
      <point x="248.88" y="860.76" type="line"/>
      <point x="276.0" y="866.16" type="line"/>
    </contour>
  </outline>
</glyph>
<glyph name="ae" format="2">
  <advance width="1484.98"/>
  <unicode hex="00E6"/>
  <guideline x="722.66" y="0.0" angle="82.9991"/>
  <anchor x="811.64" y="1120.0" name="top"/>
  <anchor x="623.6800000000001" y="-70.0" name="bottom"/>
  <outline>
    <contour>
      <point x="1104.64" y="1027.32" type="curve" smooth="yes"/>
      <point x="816.4" y="1027.32"/>
      <point x="640.52" y="766.96"/>
      <point x="640.52" y="421.44" type="curve" smooth="yes"/>
      <point x="640.52" y="133.96"/>
      <point x="783.08" y="-14.16"/>
      <point x="974.92" y="-14.16" type="curve" smooth="yes"/>
      <point x="1146.24" y="-14.16"/>
      <point x="1265.34" y="48.0"/>
      <point x="1399.84" y="187.4" type="curve"/>
      <point x="1355.72" y="241.24" type="line" smooth="yes"/>
      <point x="1346.32" y="251.72"/>
      <point x="1334.6" y="258.2"/>
      <point x="1321.96" y="258.2" type="curve" smooth="yes"/>
      <point x="1258.94" y="258.2"/>
      <point x="1202.76" y="125.72000000000001"/>
      <point x="1009.32" y="125.72000000000001" type="curve" smooth="yes"/>
      <point x="865.72" y="125.72000000000001"/>
      <point x="779.48" y="230.52"/>
      <point x="779.48" y="436.24" type="curve" smooth="yes"/>
      <point x="779.48" y="710.52"/>
      <point x="885.64" y="900.56"/>
      <point x="1083.04" y="900.56" type="curve" smooth="yes"/>
      <point x="1175.72" y="900.56"/>
      <point x="1228.24" y="850.6"/>
      <point x="1228.24" y="775.32" type="curve" smooth="yes"/>
      <point x="1228.24" y="677.44"/>
      <point x="1132.72" y="597.36"/>
      <point x="772.36" y="579.8" type="curve"/>
      <point x="748.92" y="476.48" type="line"/>
      <point x="1251.04" y="478.64"/>
      <point x="1384.16" y="630.28"/>
      <point x="1384.16" y="783.96" type="curve" smooth="yes"/>
      <point x="1384.16" y="921.24"/>
      <point x="1264.4" y="1027.32"/>
    </contour>
    <contour>
      <point x="727.52" y="401.32" type="line"/>
      <point x="768.0" y="648.0" type="line" smooth="yes"/>
      <point x="796.16" y="875.88"/>
      <point x="724.92" y="1029.48"/>
      <point x="509.12" y="1029.48" type="curve" smooth="yes"/>
      <point x="371.08" y="1029.48"/>
      <point x="255.64" y="975.48"/>
      <point x="140.51999999999998" y="869.16" type="curve"/>
      <point x="164.12" y="814.4" type="line"/>
      <point x="173.52" y="796.36"/>
      <point x="188.48" y="782.48"/>
      <point x="211.92000000000002" y="782.48" type="curve" smooth="yes"/>
      <point x="270.8" y="782.48"/>
      <point x="331.16" y="889.76"/>
      <point x="489.84" y="889.76" type="curve" smooth="yes"/>
      <point x="607.56" y="889.76"/>
      <point x="659.52" y="807.56"/>
      <point x="640.0" y="648.0" type="curve" smooth="yes"/>
      <point x="609.24" y="401.32" type="line"/>
    </contour>
    <contour>
      <point x="609.24" y="401.32" type="line"/>
      <point x="584.48" y="203.24"/>
      <point x="465.84" y="104.44000000000001"/>
      <point x="328.12" y="104.44000000000001" type="curve" smooth="yes"/>
      <point x="241.76" y="104.44000000000001"/>
      <point x="185.08" y="149.16000000000003"/>
      <point x="185.08" y="245.64" type="curve" smooth="yes"/>
      <point x="185.08" y="383.15999999999997"/>
      <point x="304.4" y="471.12"/>
      <point x="644.04" y="479.88" type="curve"/>
      <point x="636.3199999999999" y="587.36" type="line"/>
      <point x="177.64" y="576.28"/>
      <point x="18.519999999999996" y="412.6"/>
      <point x="18.519999999999996" y="223.28" type="curve" smooth="yes"/>
      <point x="18.519999999999996" y="63.44"/>
      <point x="120.36" y="-16.0"/>
      <point x="295.88" y="-16.0" type="curve" smooth="yes"/>
      <point x="467.52" y="-16.0"/>
      <point x="690.44" y="95.44"/>
      <point x="727.52" y="401.32" type="curve"/>
    </contour>
  </outline>
</glyph>
<glyph name="eth" format="2">
  <advance width="1054.22"/>
  <unicode hex="00F0"/>
  <guideline y="1406.54"/>
  <guideline x="510.08" y="0.0" angle="82.9991"/>
  <anchor x="763.54" y="1511.66" name="Top"/>
  <anchor x="763.54" y="1511.66" name="top"/>
  <anchor x="437.64" y="-70.0" name="bottom"/>
  <outline>
    <contour>
      <point x="396.16" y="1411.96" type="curve"/>
      <point x="370.4" y="1356.9" type="line"/>
      <point x="354.36" y="1321.98"/>
      <point x="360.44" y="1296.84"/>
      <point x="399.76" y="1284.5" type="curve"/>
      <point x="726.24" y="1197.7"/>
      <point x="865.68" y="997.1"/>
      <point x="821.84" y="601.08" type="curve"/>
      <point x="798.24" y="596.16" type="line"/>
      <point x="759.3199999999999" y="260.12"/>
      <point x="630.92" y="120.16000000000001"/>
      <point x="453.0" y="120.16000000000001" type="curve" smooth="yes"/>
      <point x="324.2" y="120.16000000000001"/>
      <point x="227.08" y="226.52"/>
      <point x="227.08" y="405.76" type="curve" smooth="yes"/>
      <point x="227.08" y="620.96"/>
      <point x="344.52" y="793.4"/>
      <point x="546.16" y="793.4" type="curve" smooth="yes"/>
      <point x="709.24" y="793.4"/>
      <point x="781.3199999999999" y="664.48"/>
      <point x="800.56" y="537.48" type="curve"/>
      <point x="881.52" y="577.12" type="line"/>
      <point x="846.4" y="811.36"/>
      <point x="706.2" y="926.8"/>
      <point x="528.72" y="926.8" type="curve" smooth="yes"/>
      <point x="249.96" y="926.8"/>
      <point x="56.199999999999996" y="684.96"/>
      <point x="56.199999999999996" y="397.28" type="curve" smooth="yes"/>
      <point x="56.199999999999996" y="145.08"/>
      <point x="213.32" y="-13.24"/>
      <point x="432.64" y="-13.24" type="curve" smooth="yes"/>
      <point x="779.16" y="-13.24"/>
      <point x="968.64" y="285.0"/>
      <point x="968.64" y="724.32" type="curve" smooth="yes"/>
      <point x="968.64" y="1154.92"/>
      <point x="705.24" y="1358.24"/>
    </contour>
    <contour>
      <point x="485.4" y="1007.9" type="line"/>
      <point x="703.88" y="1166.28" type="line"/>
      <point x="718.68" y="1160.56" type="line"/>
      <point x="906.82" y="1297.08" type="line" smooth="yes"/>
      <point x="929.1" y="1310.72"/>
      <point x="928.64" y="1332.76"/>
      <point x="919.7" y="1348.72" type="curve"/>
      <point x="890.86" y="1405.02" type="line"/>
      <point x="671.04" y="1249.24" type="line"/>
      <point x="658.4" y="1254.96" type="line"/>
      <point x="462.58" y="1111.68" type="line" smooth="yes"/>
      <point x="447.86" y="1101.82"/>
      <point x="442.76" y="1081.86"/>
      <point x="452.86" y="1064.74" type="curve" smooth="yes"/>
    </contour>
  </outline>
</glyph>
<glyph name="divide" format="2">
  <advance width="1160.0"/>
  <unicode hex="00F7"/>
  <guideline x="580.0" y="0.0" angle="82.9991"/>
  <outline>
    <contour>
      <point x="100.08" y="606.0" type="line"/>
      <point x="1057.72" y="606.0" type="line"/>
      <point x="1073.76" y="736.16" type="line"/>
      <point x="116.12" y="736.16" type="line"/>
    </contour>
    <contour>
      <point x="506.6" y="1011.68" type="curve" smooth="yes"/>
      <point x="506.6" y="951.44"/>
      <point x="550.2" y="903.84"/>
      <point x="614.44" y="903.84" type="curve" smooth="yes"/>
      <point x="687.0" y="903.84"/>
      <point x="753.24" y="961.92"/>
      <point x="753.24" y="1038.64" type="curve" smooth="yes"/>
      <point x="753.24" y="1099.8"/>
      <point x="707.64" y="1149.4"/>
      <point x="644.48" y="1149.4" type="curve" smooth="yes"/>
      <point x="569.76" y="1149.4"/>
      <point x="506.6" y="1087.32"/>
    </contour>
    <contour>
      <point x="418.6" y="299.68" type="curve" smooth="yes"/>
      <point x="418.6" y="239.44"/>
      <point x="463.12" y="191.84"/>
      <point x="526.44" y="191.84" type="curve" smooth="yes"/>
      <point x="599.92" y="191.84"/>
      <point x="665.24" y="249.92"/>
      <point x="665.24" y="326.64" type="curve" smooth="yes"/>
      <point x="665.24" y="387.8"/>
      <point x="619.64" y="437.4"/>
      <point x="556.48" y="437.4" type="curve" smooth="yes"/>
      <point x="481.76" y="437.4"/>
      <point x="418.6" y="375.32"/>
    </contour>
  </outline>
</glyph>
<glyph name="oslash" format="2">
  <advance width="1036.44"/>
  <unicode hex="00F8"/>
  <guideline x="502.74" y="0.0" angle="82.9991"/>
  <anchor x="595.14" y="1120.0" name="top"/>
  <anchor x="386.78" y="-70.0" name="bottom"/>
  <outline>
    <contour>
      <point x="841.1" y="866.88" type="line"/>
      <point x="857.3" y="866.88" type="line"/>
      <point x="999.54" y="1061.16" type="line"/>
      <point x="910.1" y="1061.16" type="line" smooth="yes"/>
      <point x="866.62" y="1061.16"/>
      <point x="852.9" y="1047.44"/>
      <point x="826.38" y="1011.36" type="curve" smooth="yes"/>
      <point x="726.22" y="873.96" type="line"/>
      <point x="708.94" y="873.96" type="line"/>
      <point x="172.18" y="142.6" type="line"/>
      <point x="155.98" y="142.6" type="line"/>
      <point x="9.459999999999994" y="-56.72" type="line"/>
      <point x="76.38" y="-56.72" type="line" smooth="yes"/>
      <point x="114.62" y="-56.72"/>
      <point x="157.18" y="-41.92"/>
      <point x="185.86" y="-2.5999999999999943" type="curve" smooth="yes"/>
      <point x="290.14" y="140.6" type="line"/>
      <point x="306.34000000000003" y="140.6" type="line"/>
    </contour>
    <contour>
      <point x="451.98" y="113.84" type="curve" smooth="yes"/>
      <point x="313.06" y="113.84"/>
      <point x="226.54000000000002" y="222.2"/>
      <point x="226.54000000000002" y="407.6" type="curve" smooth="yes"/>
      <point x="226.54000000000002" y="683.84"/>
      <point x="364.58" y="900.4"/>
      <point x="560.54" y="900.4" type="curve" smooth="yes"/>
      <point x="698.54" y="900.4"/>
      <point x="785.98" y="793.12"/>
      <point x="785.98" y="606.64" type="curve" smooth="yes"/>
      <point x="785.98" y="333.32"/>
      <point x="647.94" y="113.84"/>
    </contour>
    <contour>
      <point x="435.94" y="-14.16" type="curve" smooth="yes"/>
      <point x="727.5" y="-14.16"/>
      <point x="953.62" y="269.32"/>
      <point x="953.62" y="607.72" type="curve" smooth="yes"/>
      <point x="953.62" y="872.4"/>
      <point x="797.54" y="1028.4"/>
      <point x="576.58" y="1028.4" type="curve" smooth="yes"/>
      <point x="285.02" y="1028.4"/>
      <point x="58.9" y="748.0"/>
      <point x="58.9" y="406.52" type="curve" smooth="yes"/>
      <point x="58.9" y="140.92"/>
      <point x="214.98" y="-14.16"/>
    </contour>
  </outline>
</glyph>
<glyph name="thorn" format="2">
  <advance width="1057"/>
  <unicode hex="00FE"/>
  <anchor x="357.3" y="1511.66" name="Top"/>
  <anchor x="338.74" y="-421" name="bottom"/>
  <anchor x="357.3" y="1511.66" name="top"/>
  <outline>
    <contour>
      <point x="125.02" y="-342.72" type="line" smooth="yes" name="n00"/>
      <point x="165.42" y="-342.72"/>
      <point x="193.02" y="-312.96"/>
      <point x="197.18" y="-279.36" type="curve" smooth="yes"/>
      <point x="413.02" y="1472.4" type="line" name="n04"/>
      <point x="237.66" y="1472.4" type="line"/>
      <point x="16.58" y="-342.72" type="line"/>
    </contour>
    <contour>
      <point x="210.14" y="151.92" type="line"/>
      <point x="263.22" y="47.84"/>
      <point x="363.18" y="-14.16"/>
      <point x="484.26" y="-14.16" type="curve" smooth="yes" name="n10"/>
      <point x="764.98" y="-14.16"/>
      <point x="977.38" y="329.88"/>
      <point x="977.38" y="659.08" type="curve" smooth="yes"/>
      <point x="977.38" y="898.6"/>
      <point x="875.78" y="1027.48"/>
      <point x="703.94" y="1027.48" type="curve" smooth="yes" name="n16"/>
      <point x="500.06" y="1027.48"/>
      <point x="315.3" y="814.56"/>
      <point x="217.46" y="523.96" type="curve"/>
      <point x="276.38" y="437.32" type="line"/>
      <point x="349.5" y="693.92"/>
      <point x="500.18" y="885.44"/>
      <point x="636.98" y="885.44" type="curve" smooth="yes" name="n23"/>
      <point x="741.46" y="885.44"/>
      <point x="800.94" y="800.16"/>
      <point x="800.94" y="641.8" type="curve" smooth="yes"/>
      <point x="800.94" y="403.6"/>
      <point x="668.42" y="123.56"/>
      <point x="458.18" y="123.56" type="curve" smooth="yes" name="n29"/>
      <point x="374.42" y="123.56"/>
      <point x="285.86" y="159.2"/>
      <point x="236.82" y="259.52" type="curve"/>
    </contour>
  </outline>
  <guideline angle="82.9991" x="496" y="0"/>
</glyph>
<glyph name="Dcroat" format="2">
  <advance width="1425.72"/>
  <unicode hex="0110"/>
  <guideline x="726.24" y="0.0" angle="82.9991"/>
  <anchor x="715.64" y="1511.66" name="Top"/>
  <anchor x="715.64" y="1511.66" name="top"/>
  <anchor x="514.72" y="-70.0" name="bottom"/>
  <outline>
    <contour>
      <point x="1353.14" y="817.4" type="curve" smooth="yes"/>
      <point x="1353.14" y="1181.24"/>
      <point x="1133.86" y="1432.4"/>
      <point x="781.14" y="1432.4" type="curve"/>
      <point x="286.58" y="1432.4" type="line"/>
      <point x="111.34" y="0.0" type="line"/>
      <point x="605.9" y="0.0" type="line" smooth="yes"/>
      <point x="1036.46" y="0.0"/>
      <point x="1353.14" y="328.84000000000003"/>
    </contour>
    <contour>
      <point x="1160.82" y="813.08" type="curve" smooth="yes"/>
      <point x="1160.82" y="399.64"/>
      <point x="942.54" y="150.68"/>
      <point x="624.1" y="150.68" type="curve" smooth="yes"/>
      <point x="317.70000000000005" y="150.68" type="line"/>
      <point x="455.62" y="1281.72" type="line"/>
      <point x="762.94" y="1281.72" type="line" smooth="yes"/>
      <point x="1011.1" y="1281.72"/>
      <point x="1160.82" y="1102.12"/>
    </contour>
    <contour>
      <point x="13.579999999999998" y="667.44" type="line"/>
      <point x="729.06" y="667.44" type="line"/>
      <point x="741.86" y="777.08" type="line"/>
      <point x="27.46" y="777.08" type="line"/>
    </contour>
  </outline>
</glyph>
<glyph name="dcroat" format="2">
  <advance width="1058"/>
  <unicode hex="0111"/>
  <anchor x="910.12" y="1511.66" name="Top"/>
  <anchor x="483.86" y="-70" name="bottom"/>
  <anchor x="910.12" y="1511.66" name="top"/>
  <outline>
    <contour>
      <point x="606.34" y="1207.76" type="line" smooth="yes"/>
      <point x="598.94" y="1164.88"/>
      <point x="614.06" y="1144.08"/>
      <point x="662.78" y="1144.08" type="curve" smooth="yes"/>
      <point x="1124.66" y="1144.08" type="line" name="n04"/>
      <point x="1137.46" y="1253.72" type="line" name="n05"/>
      <point x="613.74" y="1253.72" type="line"/>
    </contour>
    <contour>
      <point x="850.86" y="0" type="line" name="n07"/>
      <point x="1032.26" y="1472.4" type="line" name="n08"/>
      <point x="857.98" y="1472.4" type="line"/>
      <point x="716.54" y="333.8" type="line"/>
      <point x="721.94" y="316.72" type="line"/>
      <point x="698.94" y="61.52" type="line"/>
      <point x="698.94" y="27.44"/>
      <point x="711.74" y="0"/>
      <point x="758.46" y="0" type="curve" smooth="yes"/>
    </contour>
    <contour>
      <point x="822.38" y="841.8" type="line"/>
      <point x="769.3" y="945.88"/>
      <point x="669.34" y="1006.96"/>
      <point x="548.26" y="1006.96" type="curve" smooth="yes" name="n19"/>
      <point x="267.54" y="1006.96"/>
      <point x="55.14" y="684.36"/>
      <point x="55.14" y="355.16" type="curve" smooth="yes"/>
      <point x="55.14" y="115.64"/>
      <point x="156.74" y="-14.16"/>
      <point x="328.58" y="-14.16" type="curve" smooth="yes" name="n25"/>
      <point x="532.46" y="-14.16"/>
      <point x="717.22" y="199.68"/>
      <point x="815.06" y="490.28" type="curve"/>
      <point x="756.14" y="576.92" type="line"/>
      <point x="683.02" y="320.32"/>
      <point x="532.34" y="127.88"/>
      <point x="395.54" y="127.88" type="curve" smooth="yes" name="n32"/>
      <point x="291.06" y="127.88"/>
      <point x="231.58" y="214.08"/>
      <point x="231.58" y="372.44" type="curve" smooth="yes"/>
      <point x="231.58" y="610.64"/>
      <point x="364.1" y="869.24"/>
      <point x="574.34" y="869.24" type="curve" smooth="yes" name="n38"/>
      <point x="658.1" y="869.24"/>
      <point x="746.66" y="834.52"/>
      <point x="795.7" y="734.2" type="curve"/>
    </contour>
  </outline>
  <guideline angle="82.9991" x="492" y="0"/>
</glyph>
<glyph name="hcircumflex" format="2">
  <advance width="1058.84"/>
  <unicode hex="0125"/>
  <guideline x="530.08" y="0.0" angle="82.9991"/>
  <anchor x="357.84000000000003" y="1511.66" name="Top"/>
  <anchor x="357.84000000000003" y="1511.66" name="top"/>
  <anchor x="455.68" y="-70.0" name="bottom"/>
  <anchor x="552.04" y="715.12" name="Slash"/>
  <outline>
    <contour>
      <point x="28.879999999999995" y="1545.56" type="line"/>
      <point x="159.04000000000002" y="1545.56" type="line" smooth="yes"/>
      <point x="174.76" y="1545.56"/>
      <point x="194.64" y="1550.8"/>
      <point x="207.12" y="1558.96" type="curve"/>
      <point x="335.84000000000003" y="1656.32" type="line"/>
      <point x="375.16" y="1682.68"/>
      <point x="405.24" y="1724.48"/>
      <point x="408.48" y="1755.0" type="curve"/>
      <point x="274.44" y="1755.0" type="line"/>
    </contour>
    <contour>
      <point x="443.8" y="1755.0" type="line"/>
      <point x="309.76" y="1755.0" type="line"/>
      <point x="305.6" y="1724.48"/>
      <point x="325.04" y="1683.76"/>
      <point x="358.96" y="1656.32" type="curve" smooth="yes"/>
      <point x="462.8" y="1558.96" type="line"/>
      <point x="474.36" y="1551.88"/>
      <point x="493.16" y="1545.56"/>
      <point x="506.88" y="1545.56" type="curve" smooth="yes"/>
      <point x="638.12" y="1545.56" type="line"/>
    </contour>
    <component base="h"/>
  </outline>
</glyph>
<glyph name="Hbar" format="2">
  <advance width="1440.02"/>
  <unicode hex="0126"/>
  <guideline x="724.26" y="0.0" angle="82.9991"/>
  <anchor x="817.54" y="1511.66" name="Top"/>
  <anchor x="817.54" y="1511.66" name="top"/>
  <anchor x="644.32" y="-70.0" name="bottom"/>
  <anchor x="-2.1799999999999997" y="1120.0" name="onRight"/>
  <outline>
    <contour>
      <point x="94.92" y="1037.68" type="line"/>
      <point x="1467.28" y="1037.68" type="line"/>
      <point x="1480.08" y="1149.64" type="line"/>
      <point x="107.72" y="1149.64" type="line"/>
    </contour>
    <component base="H" xOffset="13.76"/>
  </outline>
</glyph>
<glyph name="hbar" format="2">
  <advance width="1058.84"/>
  <unicode hex="0127"/>
  <guideline x="530.08" y="0.0" angle="82.9991"/>
  <anchor x="348.66" y="1511.66" name="Top"/>
  <anchor x="348.66" y="1511.66" name="top"/>
  <anchor x="455.68" y="-70.0" name="bottom"/>
  <outline>
    <contour>
      <point x="43.4" y="1143.0" type="line"/>
      <point x="564.92" y="1143.0" type="line" smooth="yes"/>
      <point x="599.6" y="1143.0"/>
      <point x="620.72" y="1161.04"/>
      <point x="625.96" y="1191.72" type="curve" smooth="yes"/>
      <point x="635.52" y="1255.88" type="line"/>
      <point x="58.36" y="1255.88" type="line"/>
    </contour>
    <contour>
      <point x="236.4" y="0.0" type="line"/>
      <point x="414.72" y="1472.4" type="line"/>
      <point x="237.2" y="1472.4" type="line"/>
      <point x="58.879999999999995" y="0.0" type="line"/>
    </contour>
    <contour>
      <point x="862.64" y="0.0" type="line"/>
      <point x="936.64" y="623.68" type="line"/>
      <point x="759.12" y="623.68" type="line"/>
      <point x="685.12" y="0.0" type="line"/>
    </contour>
    <contour>
      <point x="936.64" y="623.68" type="line"/>
      <point x="966.8" y="867.56"/>
      <point x="875.32" y="1005.88"/>
      <point x="702.24" y="1005.88" type="curve" smooth="yes"/>
      <point x="518.08" y="1005.88"/>
      <point x="332.56" y="848.72"/>
      <point x="225.16" y="556.68" type="curve"/>
      <point x="283.16" y="465.72" type="line"/>
      <point x="354.88" y="703.28"/>
      <point x="506.48" y="859.52"/>
      <point x="636.52" y="859.52" type="curve" smooth="yes"/>
      <point x="741.76" y="859.52"/>
      <point x="778.64" y="782.28"/>
      <point x="759.12" y="623.68" type="curve"/>
    </contour>
  </outline>
</glyph>
<glyph name="idotless" format="2">
  <advance width="460"/>
  <unicode hex="0131"/>
  <anchor x="151.4" y="-70" name="bottom"/>
  <anchor x="287" y="1120" name="top"/>
  <outline>
    <contour>
      <point x="190.96" y="1012.4" type="line" name="n00"/>
      <point x="68.8" y="0" type="line" name="n01"/>
      <point x="244.16" y="0" type="line"/>
      <point x="366.32" y="1012.4" type="line"/>
    </contour>
  </outline>
  <guideline angle="82.9991" x="213" y="0"/>
</glyph>
<glyph name="kgreenlandic" format="2">
  <advance width="947"/>
  <unicode hex="0138"/>
  <anchor x="423.66" y="-70" name="bottom"/>
  <anchor x="537.74" y="1120" name="top"/>
  <outline>
    <contour>
      <point x="182.66" y="1012.4" type="line" name="n00"/>
      <point x="57.42" y="0" type="line" name="n01"/>
      <point x="232.78" y="0" type="line"/>
      <point x="358.02" y="1012.4" type="line"/>
    </contour>
    <contour>
      <point x="244.5" y="605.12" type="line"/>
      <point x="260.86" y="484.52" type="line"/>
      <point x="326.3" y="484.52" type="line" smooth="yes"/>
      <point x="363.38" y="484.52"/>
      <point x="376.3" y="478.52"/>
      <point x="392.14" y="450.04" type="curve"/>
      <point x="651.3" y="34.68" type="line"/>
      <point x="663.46" y="8.48"/>
      <point x="682.42" y="0"/>
      <point x="710.78" y="0" type="curve" smooth="yes"/>
      <point x="862.86" y="0" type="line"/>
      <point x="559.18" y="499.68" type="line"/>
      <point x="532.22" y="554.56"/>
      <point x="500.02" y="590.16"/>
      <point x="411.1" y="590.16" type="curve"/>
      <point x="403.86" y="534.8" type="line"/>
      <point x="476.14" y="534.8"/>
      <point x="528.1" y="561.32"/>
      <point x="572.94" y="615.12" type="curve"/>
      <point x="960.9" y="1012.4" type="line"/>
      <point x="804.5" y="1012.4" type="line" smooth="yes"/>
      <point x="773.38" y="1012.4"/>
      <point x="753.66" y="999.92"/>
      <point x="735.02" y="976.96" type="curve"/>
      <point x="399.58" y="633.92" type="line"/>
      <point x="377.58" y="609.6"/>
      <point x="360.5" y="605.12"/>
      <point x="337.54" y="605.12" type="curve" smooth="yes"/>
    </contour>
  </outline>
  <guideline angle="82.9991" x="413" y="0"/>
</glyph>
<glyph name="Lcaron" format="2">
  <advance width="951.48"/>
  <unicode hex="013D"/>
  <guideline x="473.4" y="0.0" angle="82.9991"/>
  <anchor x="384.74" y="1511.66" name="Top"/>
  <anchor x="384.74" y="1511.66" name="top"/>
  <anchor x="443.42" y="-70.0" name="bottom"/>
  <anchor x="277.94" y="715.12" name="Bar"/>
  <outline>
    <contour>
      <point x="739.02" y="1473.32" type="line"/>
      <point x="645.9" y="1149.04" type="line"/>
      <point x="705.9" y="1149.04" type="line" smooth="yes"/>
      <point x="737.5" y="1149.04"/>
      <point x="755.7" y="1155.04"/>
      <point x="771.58" y="1183.56" type="curve"/>
      <point x="866.62" y="1379.36"/>
      <point x="880.9" y="1421.76"/>
      <point x="880.9" y="1447.6" type="curve" smooth="yes"/>
      <point x="880.9" y="1460.68"/>
      <point x="875.82" y="1473.32"/>
      <point x="852.7" y="1473.32" type="curve" smooth="yes"/>
    </contour>
    <component base="L"/>
  </outline>
</glyph>
<glyph name="Lslash" format="2">
  <advance width="983"/>
  <unicode hex="0141"/>
  <anchor x="309.36" y="715.12" name="Bar"/>
  <anchor x="416.16" y="1511.66" name="Top"/>
  <anchor x="474.84" y="-70" name="bottom"/>
  <anchor x="416.16" y="1511.66" name="top"/>
  <outline>
    <component base="L" xScale="1" xOffset="31.42"/>
    <contour>
      <point x="7.98" y="461.4" type="line" name="n00"/>
      <point x="313.94" y="615.36" type="line"/>
      <point x="319.02" y="606.72" type="line"/>
      <point x="736.82" y="829.76" type="line"/>
      <point x="755.3" y="837.92"/>
      <point x="763.94" y="852.56"/>
      <point x="767.02" y="872.44" type="curve"/>
      <point x="782.14" y="996.16" type="line" name="n07"/>
      <point x="338.14" y="764.8" type="line"/>
      <point x="335.22" y="774.52" type="line"/>
      <point x="52.06" y="627.64" type="line"/>
      <point x="34.5" y="619.48"/>
      <point x="25.1" y="606.84"/>
      <point x="24.02" y="588.2" type="curve"/>
    </contour>
  </outline>
  <guideline angle="82.9991" x="483" y="0"/>
</glyph>
<glyph name="lslash" format="2">
  <advance width="577"/>
  <unicode hex="0142"/>
  <anchor x="405.78" y="1511.66" name="Top"/>
  <anchor x="314.56" y="730.24" name="bar"/>
  <anchor x="213" y="-70" name="bottom"/>
  <anchor x="318.24" y="129.08" name="hook"/>
  <anchor x="405.78" y="1511.66" name="top"/>
  <outline>
    <component base="l" xOffset="71.7"/>
    <contour>
      <point x="49.96" y="621.64" type="line" name="n00"/>
      <point x="314.24" y="735.04" type="line"/>
      <point x="320.4" y="725.32" type="line"/>
      <point x="556.48" y="830.56" type="line" smooth="yes"/>
      <point x="576.04" y="838.72"/>
      <point x="583.6" y="853.36"/>
      <point x="583.6" y="874.32" type="curve" smooth="yes"/>
      <point x="583.6" y="975.36" type="line" name="n07"/>
      <point x="320.4" y="862.88" type="line"/>
      <point x="315.32" y="872.6" type="line"/>
      <point x="74.92" y="765.36" type="line" smooth="yes"/>
      <point x="57.36" y="757.2"/>
      <point x="49.96" y="744.56"/>
      <point x="49.96" y="725.92" type="curve" smooth="yes"/>
    </contour>
  </outline>
  <guideline angle="82.9991" x="264" y="0"/>
</glyph>
